<?xml version="1.0" standalone="no"?>
<!DOCTYPE svg PUBLIC "-//W3C//DTD SVG 20010904//EN"
 "http://www.w3.org/TR/2001/REC-SVG-20010904/DTD/svg10.dtd">
<svg version="1.0" xmlns="http://www.w3.org/2000/svg"
 width="512px" height="512px" viewBox="0 0 162.000000 115.000000"
 preserveAspectRatio="xMidYMid meet">

<g transform="translate(0.000000,115.000000) scale(0.100000,-0.100000)"
fill="#fff" stroke="none">
<path d="M910 955 l-74 -75 59 -60 c56 -57 60 -59 77 -43 18 16 25 11 136
-100 l117 -117 -175 -175 -175 -175 58 -57 57 -58 235 235 235 235 -232 232
c-128 128 -235 233 -238 233 -3 0 -39 -34 -80 -75z"/>
<path fill="#fff" stroke-linecap="butt" d="M385 790 l-230 -230 233 -233 232 -232 232 233 233 232 -140 140
-140 140 -140 -140 -140 -140 55 -55 54 -55 81 80 c44 44 85 80 91 80 6 0 21
-11 34 -25 l24 -26 -119 -119 -120 -120 -120 120 -120 120 175 175 175 175
-55 55 c-30 30 -57 55 -60 55 -3 0 -109 -104 -235 -230z"/>
</g>
</svg>
