<svg id="Layer1" xmlns="http://www.w3.org/2000/svg" xmlns:xlink="http://www.w3.org/1999/xlink" width="1300" height="1000" viewBox="0 0 1300 1000">
  <defs>
    <linearGradient id="_ÂÁ_Ï_ÌÌ_È_ËÂÌÚ_24" data-name="¡ÂÁ˚ÏˇÌÌ˚È „‡‰ËÂÌÚ 24" x1="777.48" y1="505.22" x2="692.76" y2="596" gradientUnits="userSpaceOnUse">
      <stop offset="0" stop-color="#efeff3"/>
      <stop offset="1" stop-color="#c7c5da"/>
    </linearGradient>
    <linearGradient id="_ÂÁ_Ï_ÌÌ_È_ËÂÌÚ_24-2" x1="686.03" y1="428.96" x2="870.09" y2="559.93" xlink:href="#_ÂÁ_Ï_ÌÌ_È_ËÂÌÚ_24"/>
    <linearGradient id="_ÂÁ_Ï_ÌÌ_È_ËÂÌÚ_22" data-name="¡ÂÁ˚ÏˇÌÌ˚È „‡‰ËÂÌÚ 22" x1="834.36" y1="290.65" x2="729.38" y2="343.72" gradientUnits="userSpaceOnUse">
      <stop offset="0" stop-color="#00f5ad"/>
      <stop offset="1" stop-color="#00a9ff"/>
    </linearGradient>
  </defs>
  <g>
    <path d="M653.25,592.31c-86.89,28.2-143.44,74.13-143.44,126,0,85.75,154.5,155.26,345.09,155.26,0,0,39.78.68,67.21,1.35,40.77,1,84.47,8.14-3,8.14-37.42,0-77.81,2.5-77.81,2.5l-1,4.77S943.9,889,983.8,889s95.11,8.74,64.34,10-75-1.26-75-1.26l-18.62,8.61c22.28,0,72.82,7.91,120.71,5.24S1171,891.4,1223.9,888.11s-25.94-24.68-80.81-29.47-60.86,3.94-107.57,0-51.28-5.45-16.26-13.21c46.24-10.25,98.61-42.8,110.86-59.57L1004,764.19c-32.56,21.42-87.28,35.47-149.31,35.47-99.84,0-180.78-36.42-180.78-81.34,0-27.88,31.18-52.49,78.71-67.14Z" fill="#000c47" opacity="0.08"/>
    <g>
      <path d="M840.26,891a4,4,0,0,1-4-3.47L790.22,538.48a4,4,0,0,1,7.93-1.05l46.08,349.06a4,4,0,0,1-3.44,4.49A4.71,4.71,0,0,1,840.26,891Z" fill="#d8dae5"/>
      <path d="M895.58,859.08a4,4,0,0,1-4-3.48L845.54,506.54a4,4,0,1,1,7.93-1l46.08,349a4,4,0,0,1-3.44,4.49A4.73,4.73,0,0,1,895.58,859.08Z" fill="#d8dae5"/>
      <path d="M692,805.38a4,4,0,0,1-4-4.59L732.51,504a4,4,0,0,1,7.92,1.19L695.9,802A4,4,0,0,1,692,805.38Z" fill="#d8dae5"/>
      <path d="M747.27,773.44a4,4,0,0,1-4-4.59L787.84,472.1a4,4,0,0,1,7.91,1.19L751.22,770A4,4,0,0,1,747.27,773.44Z" fill="#d8dae5"/>
      <polygon points="860.58 499.63 784.87 543.34 723.28 507.78 798.99 464.07 860.58 499.63" fill="#fff"/>
      <polygon points="797.98 512.31 838.62 512.31 860.58 499.63 829.64 481.76 782.72 483.87 766.32 497.03 805.58 497.03 797.98 512.31" fill="#000c47" opacity="0.08"/>
      <polygon points="784.87 543.34 784.87 552.83 723.28 517.27 723.28 507.78 784.87 543.34" fill="url(#_ÂÁ_Ï_ÌÌ_È_ËÂÌÚ_24)"/>
      <polygon points="784.87 543.34 784.87 552.83 860.58 509.12 860.58 499.63 784.87 543.34" fill="url(#_ÂÁ_Ï_ÌÌ_È_ËÂÌÚ_24-2)"/>
      <path d="M802,601a4,4,0,0,1-2-7.46L855.3,561.6a4,4,0,0,1,4,6.93L804,600.47A4,4,0,0,1,802,601Z" fill="#d8dae5"/>
      <path d="M808.61,651.18a4,4,0,0,1-2-7.46l55.33-31.94a4,4,0,0,1,4,6.93L810.6,650.65A4,4,0,0,1,808.61,651.18Z" fill="#d8dae5"/>
      <path d="M815.23,701.37a4,4,0,0,1-2-7.47L868.55,662a4,4,0,0,1,4,6.93l-55.32,31.94A3.93,3.93,0,0,1,815.23,701.37Z" fill="#d8dae5"/>
      <path d="M821.86,751.55a4,4,0,0,1-2-7.46l55.32-31.94a4,4,0,0,1,4,6.92L823.86,751A3.93,3.93,0,0,1,821.86,751.55Z" fill="#d8dae5"/>
      <path d="M828.48,801.73a4,4,0,0,1-2-7.46l55.32-31.94a4,4,0,1,1,4,6.93L830.48,801.2A4,4,0,0,1,828.48,801.73Z" fill="#d8dae5"/>
      <path d="M835.11,851.92a4,4,0,0,1-2-7.47l55.32-31.94a4,4,0,0,1,4,6.93l-55.32,31.94A4,4,0,0,1,835.11,851.92Z" fill="#d8dae5"/>
    </g>
    <g>
      <g>
        <path d="M850.18,693.63l-40.49-59.57L684.81,695.14l2.13,1.17c42.06,23.36,81,30.57,113.3,23.78l-2.44,7.37,30.53-17.67q2.13-1.17,4.2-2.43l.1-.05h0A99.79,99.79,0,0,0,850.18,693.63Z" fill="#001370"/>
        <path d="M670.72,702l14.09-6.89c-22.87-12.6-45-23.19-65.75-33.35Z" fill="#001370"/>
        <path d="M790.45,605.75c-23.67,23.81-61.69,26.56-105,2.54-47.87-26.59-90.31-79.4-114.44-136.66C553,486.71,484.17,339,475,355.54c-5.68,10.29-30.11,69.6-18.85,128.75,8.08,42.44,52.35,91.4,52.35,91.4l77.89,100.23c20.77,10.17,75.52,6.62,98.39,19.22l124.88-61.08Z" fill="#5999ff"/>
        <path d="M537.51,541.78c24.26-19.84,15.47-55.07,33.55-70.15-12.86-30.54-20.52-62.34-21-92.1-.29-17.94,2.05-33.71,6.6-47.06l-72.11-67.64-75.93,43.85,75.93,65.45c-16.4,63.45,4.11,116,15.67,142.32C512.23,543.8,521.89,554.55,537.51,541.78Z" fill="#1a5dff"/>
      </g>
      <path d="M835.42,671.91h0L790,721.74c3.49-.4-19.07,16.45-15.71,15.74l-19.15,14.63,73.22-42.32q2.13-1.17,4.2-2.43l.1-.05h0a99.79,99.79,0,0,0,17.56-13.67Z" fill="#001370"/>
      <path d="M609.58,652.14C536.17,611.37,475.53,509,474.13,423.37c-.3-17.93,2.05-33.7,6.59-47.05l-72.11-67.64c-6.9,20.72-10.44,45.09-10,72.76,2.19,134.19,97.29,294.79,212.4,358.72,67,37.23,126.05,33.45,163.24-2.68L714.52,649.6C690.86,673.41,652.83,676.16,609.58,652.14Z" fill="#1a5dff"/>
      <polygon points="714.52 649.6 790.45 605.75 850.18 693.63 774.26 737.48 714.52 649.6" fill="#001370"/>
      <polygon points="480.73 376.32 556.5 332.91 484.54 264.83 408.61 308.68 480.73 376.32" fill="#5999ff"/>
    </g>
    <g>
      <path d="M679,210.37C622.48,179,571.64,176.75,534.8,198.49h0L528.74,202l-22.61,21.75c-9,11.42-16.29,25.16-21.59,41.07l106.9-27s31,28.39,89,60.57c24,13.36,46.72,33.33,66.39,57.15l33.51-58.87C750.14,260.78,715.58,230.69,679,210.37Z" fill="#dfe1eb"/>
      <path d="M484.54,264.83,536.91,314l11.27,23.72,8.32-4.76c10.49-31.3,34.35-42.23,34.35-42.23S511.11,185.06,484.54,264.83Z" fill="#d8dae5"/>
      <path d="M475.86,269.85l72.32,67.82c17.15-50.35,65.57-66.48,123.59-34.25,24,13.35,46.72,33.32,66.39,57.15l33.5-58.88c-30.2-35.89-64.75-66-101.33-86.3C579,164.65,502.44,190.08,475.86,269.85Z" fill="#f6f7fb"/>
      <polygon points="780.34 296.67 771.66 301.69 738.16 360.56 746.83 355.54 780.34 296.67" fill="url(#_ÂÁ_Ï_ÌÌ_È_ËÂÌÚ_22)"/>
    </g>
    <g>
      <path d="M807.24,492.69c.2,4.8-.74,6.61-1.66,7.22s-1,.78-1.1,1.58a36.18,36.18,0,0,1-2.16,5.85c-3.34,6.92-9.42,7.11-8.14,1.43s2.08-5.82,2.35-9.81.73-8,4.36-9.7S807.12,489.76,807.24,492.69Z" fill="#1a5dff"/>
      <path d="M742.32,228.7c0,6.77-12.08,15.38-19.69,21.17-6.47,4.91-47.92,20-47.92,20l-1.45-11.13,43.39-23.52s24.88-32.72,31.25-38.75C757.74,187.14,742.32,221.94,742.32,228.7Z" fill="#1a5dff"/>
      <path d="M768.84,488.71c-5.12,4.29-6.18,3.86-6.84,6.83s7.53,1.2,11.4-.24a12.5,12.5,0,0,0,4.77-3.31c1.61-2.1,3.22-1.05,6.25-2.1s3.41-4,2.09-8.61-10.15-.08-12,1.4A56.65,56.65,0,0,0,768.84,488.71Z" fill="#1a5dff"/>
      <path d="M776.56,481.67c-.86,1.34-.07,1.92,1.14,2.17s5.45-1,6.28-2.89,2.16-58.78,0-80.35.77-86.67,1.56-102.63-27.18-19.57-27.76,8.35,5.74,90.65,9.42,104.07,9.45,58.11,10,63.4C777.52,476.12,777.85,479.67,776.56,481.67Z" fill="#ebb0b0"/>
      <path d="M799.05,491.35c-.16,1.71-.3,3.64,2.32,4.15,2.2.43,5.2-2.43,4.25-5.63-1.45-4.85,4-57.79,1.8-79.36s-6.53-86.67-5.73-102.63-27.68-19.56-28.28,8.35,13.13,93,16.88,106.45,8,54.48,8.59,59.77A55.34,55.34,0,0,1,799.05,491.35Z" fill="#ebb0b0"/>
      <path d="M742.45,284.63c-2.73,74.7,6.08,86.41,10,107.27,1.61,8.54,27.72,21.88,41.54,20.43s16.08-6.26,15.56-14.14c-1.25-18.83-1.62-26.64-4.11-108.54Z" fill="#001370"/>
      <path d="M796.75,301.7c-6.71,12-11.12,28.47-34.82,30.4S737,322,736.47,288s1.75-88.78,16.63-97c13.4-7.39,43.42,6.13,53.95,29.44,9.16,20.29,3.57,72.88,3,90.6S796.75,301.7,796.75,301.7Z" fill="#f1f2f7"/>
      <g>
        <path d="M707.88,228.7l-32.45,18.74-8.35,43.33c4.29,2.51,8.73,5.05,13.36,7.62,24,13.36,46.72,33.33,66.39,57.15l33.51-58.87C758.21,270.38,733.76,247.21,707.88,228.7Z" fill="#ebb0b0"/>
        <polygon points="780.34 296.67 747.9 315.41 714.4 374.28 746.83 355.54 780.34 296.67" fill="#c42657"/>
        <path d="M675.43,247.44h0l-14.9,77.33c19.39,12.86,37.65,29.87,53.87,49.51l33.5-58.87C725.78,289.11,701.32,265.94,675.43,247.44Z" fill="#ff4778"/>
      </g>
      <path d="M794.09,206.94a18.3,18.3,0,0,0-2.74-2.75h0l-.67-.56c-1.95-1.75-7.73-7.84-10.77-20.82,0,0-10.81-1.43-12.23,3.46-.73,2.5-3.44,4.33-5.91,5.53a12.68,12.68,0,0,0-4.46,1.69h0c-3.34,2.15-4.94,6-4.17,11.73,1.67,12.43,26.23,24.29,35.66,19.28S797.17,211.16,794.09,206.94Z" fill="#ebb0b0"/>
      <path d="M788.77,224.52c9.43-5,8.4-13.36,5.32-17.58a18.3,18.3,0,0,0-2.74-2.75h0l-.67-.56c-1.51-1.36-5.33-5.35-8.38-13.12h0s-3,7.11-7.7,8.06c-4.12.84-12.11-.24-12.92-6.75a12.47,12.47,0,0,0-4.36,1.67h0c-3.34,2.15-4.94,6-4.17,11.73C754.78,217.67,779.34,229.53,788.77,224.52Z" fill="#1a5dff"/>
      <path d="M753.58,171.52c-2.28,19.23,4,23.87,9.93,26.06s19.32-5.6,16.63-26.06S755.41,156,753.58,171.52Z" fill="#ebb0b0"/>
      <path d="M753.15,176.75c-1.31,0-3.86-1.21-3-1.75s.13-.46.54-1.93-4.55-1-3.59-1.58-.53-.55-.81-2.92-.94-3.92.41-3.74,2-2.57,2.17-3.19-2.64-.95-2.1-2.85,1.9-2.51,2.51-4.07,1.43-3.33,1.43-3.33,1.81-.61,2.91-3.59,3.81-6.65,5.16-6.65,3.53,3,6.66,2.57,3.08-5.25,5-3.93,1,2.85,4.17,2.44,4.74-3.75,5.75-2.67,1.49,3.37,2.85,2.69,1.84-1,2.31-.42-.81,1.44,0,2.12.13.81,1.08,1.76-.08-1,2-.46,6.25,2.6,6.87,3.5,2.78,1.25,2.11,3.36.35,8.07,2.53,8.58c8.09,1.9,1.27,5.43,0,6.25s.12,7.51-.07,8.73.66,3.56-.87,3-1.9,2-1.9,2-.27,2.07-.27,2.46.41-.35-1.76.19-4.21-.54-3.94,1.49,2.72,2.45,1.63,3.81-3.87,1.44-4.89.9c2.53,1.35-1.14,2.65-5.43-.47-1.21-.88-.37-.88-1.21-.88s-2.53-3.13-2.53-3.13l.16-7.11-10.17-13.37H761l-5.72,3.31a14.92,14.92,0,0,0-1.65,3.63C753.1,177.7,753.15,176.75,753.15,176.75Z" fill="#001370"/>
      <path d="M777.79,169.09c-7-11.5-15.31-14.71-22.75-2.66l-1.46,5.09c5.38-7.9,13-4.8,19.2,5a2.8,2.8,0,0,0,2.93,1.24c1.21-.23,2.66-.09,3.11,1.71a5.56,5.56,0,0,1-.61,3.3,4.42,4.42,0,0,0,.14,3.87l.29.54S782.87,177.42,777.79,169.09Z" fill="#ff3456"/>
      <path d="M747.9,314.14a20,20,0,0,1-10.4,5.52c-5.09,1.16-7.33,5.35-5.23,9s13.65,1.16,16.09-.47,7.38-7,7.38-7l2.39-8.83-8.51.17Z" fill="#ebb0b0"/>
      <path d="M805.57,228.82C809.42,237.4,808,242.2,808,249s-7,36.6-11.87,43.12-40.34,29.07-40.34,29.07,2.08-3.21-2.3-6.77c-3.49-2.84-5.54-.25-5.54-.25l36.61-35.09s6.92-41.83,9.46-50.23S804.54,226.52,805.57,228.82Z" fill="#1a5dff"/>
      <path d="M672.88,260.68c-10.39,7-12,16.06-4.81,25s9.8.9,9.7-4.19-6.66-11.6-6.66-11.6Z" fill="#ebb0b0"/>
      <path d="M748.34,314c-2.29.72-5.41-1-7.48,0s1.18,3.13,3.95,3.26S748.34,314,748.34,314Z" fill="#ebb0b0"/>
      <path d="M672.17,263.48c2.24,4.37,1.63,6.41,0,5.39s-2.34-3.36-2.14-3.36A21.07,21.07,0,0,0,672.17,263.48Z" fill="#ebb0b0"/>
    </g>
    <g>
      <polygon points="817.59 668.65 823.76 672.68 823.76 665.01 820.48 661.5 807.29 653.01 813.81 663.26 817.59 668.65" fill="#fff"/>
      <path d="M678,621.07c43.47-13.24,68.58-21.59,79.78-21.79s62.74,62.22,62.74,62.22-4.52,3.51-2.89,7.15c0,0-37.59-31-63.2-42.08,0,0-32.24,18.26-41.41,18.26S652.11,628.94,678,621.07Z" fill="#d8dae5"/>
      <path d="M528.49,625.07c6.79-16.06-5.5-24.33-4.48-33.29a55.35,55.35,0,0,1,4.48-16.09l12,15.92s.35,2.34-.27,8.55a222.65,222.65,0,0,1-3.45,23.41C534.68,633.07,525.62,631.86,528.49,625.07Z" fill="#ff3456"/>
      <polygon points="783.12 708.73 786.19 712.49 790.7 710.75 792.74 708.97 790.52 703.65 783.66 703.86 783.12 708.73" fill="#fff"/>
      <path d="M616.34,573.44l10.24-5-34.15,2.51-1.12-8.66s43.42-11.76,54.07-9.42c4.91,1.08,2.92,8,0,14.41-2.09,4.59-11.88,18.46-11.88,18.46Z" fill="#ebb0b0"/>
      <path d="M654.2,653c24.34,14.9,64.35-5.74,76-12.47l52.9,68.19a9.74,9.74,0,0,1,7.4-5.08s-39.87-70-46.18-80-10.44-10.46-22.53-8.41-36.32,5.83-36.32,5.83-16.36.53-26,15S654.2,653,654.2,653Z" fill="#f6f7fb"/>
      <path d="M567.73,597.6l-10.42,4.29s3.49-6.35,13.27-14.63,12.08-10.92,12.08-10.92l-6.92-5.43s-27.44,20.53-34.5,30.33-8.75,16.88,4.22,16.09a263.68,263.68,0,0,1,27.36.1l15.95-8.38L581.17,596H571Z" fill="#ebb0b0"/>
      <g>
        <path d="M688.63,612.29c-2-2-15.62,0-31-10.18-10.9-7.21-17.31-12.68-23.7-16.17l-.47-.24a14.33,14.33,0,0,0-5.36-9.27c-7.47-6.15-12.28-2.72-12.28-2.72L600,580.07c-.32.07-.64.13-.95.21a31.78,31.78,0,0,0-13.56,6.52h0c-12.06,8.34-16.94,10.46-17.8,10.8.71-.24,4-.92,7.33,5.21,3.8,6.92.67,11.41-2.24,14.62,0,0,13.6,0,20.57,6.41,19.24,17.67,46.39,30.93,54.43,33.81,0,0,6,2.72,12.63-12.82,4.47-10.46,13.12-22.4,30.67-27.79A10.47,10.47,0,0,0,688.63,612.29Z" fill="#fff"/>
        <path d="M567.73,597.6l-.14,0Z" fill="#fff"/>
      </g>
      <path d="M583,588.53c6.48-2.55,13.2-.72,19.11-3.06s2.18-7.11,2.18-7.11-7.53,2.52-8.34-1.4-11.25,3.47-11.25,3.47.66,3.66.1,5.34A7,7,0,0,1,583,588.53Z" fill="#ebb0b0"/>
      <path d="M584.7,580.43c8.61-2.31,13.23-4.13,12.82-6.47s-3.57-19.34-11.1-22.19S573,565.42,575.87,571.86A17,17,0,0,0,584.7,580.43Z" fill="#ebb0b0"/>
      <path d="M584.93,582.17c.25,14.69-11.84-7.23-17.34-6l-12.88,8.61s-10.52,2.46-14.27,6.87l-12-15.92c1.94-8,9.35,3.62,14.46-13.13,4.79-15.68,14.36-3.77,19.14-11.12,6.18-9.51,9.47,3.71,15.26.37s14.95-5.81,18,5.73c.4,1.52,0,7.55,0,7.55s-4-10.13-7.59-10-7.84,10.08-7,14.71c0,0-3.31-.31-2.19,2.49a3.16,3.16,0,0,0,3.73,2.1S584.88,579.48,584.93,582.17Z" fill="#ff3456"/>
      <path d="M825.13,661.94c1.48-.53,1.82,2.06,1.82,2.06s2.79-1.65,11.54-6.09c5-2.53,1.78,6.93-7.71,12.61-4.2,2.52-4.48,6-6.58,5.33s-4.44-4.82-4.44-4.82,3.81-2.65,2.73-4.74C821.63,664.63,823.81,662.43,825.13,661.94Z" fill="#ff3456"/>
      <path d="M785.09,712c1.45,3.12,3.51,4.9,5,5.38s10-2.21,14.93-4.33,5.3-4.43,0-4.33-11.6.1-11.6.1a1.92,1.92,0,0,1-.69-1.77c.18-1.12-5.12.08-4,2.39l.66,1.12s-1.65,1.38-2.57,1.28S784.91,711.62,785.09,712Z" fill="#ff3456"/>
    </g>
    <g>
      <path d="M535.12,444.3c-2.59,2.45-2.19,8-.46,9.93s5.46,1.62,7.54,3c5.67,3.69,13.61,3.69,16.15,1.9s3.36-3.66-4.88-8.75c-5.35-3.31-8.83-5.43-8.83-5.43Z" fill="#001370"/>
      <path d="M535.28,439.77a65.11,65.11,0,0,1-.88,6.48,2.25,2.25,0,0,0,.73,2.16c1.72,1.49,5.42,3.91,9.61,1.85,0,0,2.45-1,1.33-4.18a47.62,47.62,0,0,1-1.73-7.28Z" fill="#fff"/>
      <path d="M491.82,462.22c-2.6,2.45-2.19,8-.46,9.93s4.44.33,5.69,2.48c4.76,8.21,13.33,7.24,16.3,6.93,4.47-.46,4.7-4.17-2.67-11.12-7.16-6.75-8.54-8.49-8.54-8.49Z" fill="#001370"/>
      <path d="M462.34,261.77c-8.55,20.86-10.58,31.35,6.93,51.56s42.67,40,46,46,7.16,19,18.06,80.33c.67,3.77,12.22,4.66,12.19-2.34-.06-12-2.09-80.92-5.46-98s-38.51-50.72-38.51-50.72Z" fill="#d8dae5"/>
      <path d="M492,457.69a63.13,63.13,0,0,1-.87,6.48,2.24,2.24,0,0,0,.73,2.16c1.72,1.49,5.41,3.91,9.61,1.84,0,0,2.44-1,1.32-4.17a47.62,47.62,0,0,1-1.73-7.28Z" fill="#fff"/>
      <path d="M506.5,249.17c10.58,8.11,14.93,11.25,14.93,11.25l10.32-5.62L517,233.58l-4.93-4-6.68,9.5Z" fill="#7a5068"/>
      <path d="M437,276.28c-8.55,20.86-10.59,31.34,6.93,51.55s46.52,34.79,49.82,40.77-2.17,59.78-3.85,88.18c-.22,3.83,12.33,6.94,13.25,0,1.14-8.59,14.92-85.87,11.55-103s-38.51-50.71-38.51-50.71Z" fill="#f6f7fb"/>
      <path d="M502.73,214.61l-.31,36.89s1.38-3.86,4.08-2.33c0,0-1.17-14.3,10.49-15.59C517,233.58,506.35,216.7,502.73,214.61Z" fill="#fff"/>
      <path d="M430.62,290.43c3.18,18.2,25.69,28.42,54.34,12.46s15.11-22,14.64-37.28S496,245,502.53,222.49,469.7,212.16,453.12,226,427.69,273.62,430.62,290.43Z" fill="#fff"/>
      <path d="M453.12,226c-16.58,13.86-27.22,53.58-24.29,70.38,2.52,14.44,20.44,30.89,40.71,26.19-.46-2.77-2.27-19.83-2.4-25.7-.54-24.78,12.58-39,9.12-69.11,0,0-14.66-6.61-1.73-12.62s18.74-6,20.37-1.11-5.2,41.2-4.25,67.7c.34,9.68,4.18,23.17,4.55,27.89,17.5-12.36,7.21-30.52,6.79-44-.47-15.25,2-19.88,2.36-43.27C504.76,198.23,469.7,212.16,453.12,226Z" fill="#001370"/>
      <path d="M483,200.16c-5.83,12.12-9.78,15.1-11,17.39s4.66,5,9.34,5.35l3,8.09,5.34-12.23s2.92-1.23,2.24-3.8.92-4.89,1.78-6.57S483,200.16,483,200.16Z" fill="#7a5068"/>
      <path d="M482.81,198c.27,8.66,7.3,12.32,13.1,13.65s18.84-16.91,16.94-25-14.66-16-21.72-10.05S482.81,198,482.81,198Z" fill="#7a5068"/>
      <path d="M503.25,266.36l-.25,0-9.48-2.45A1,1,0,1,1,494,262l9.48,2.44a1,1,0,0,1-.25,2Z" fill="#fff"/>
      <path d="M458.75,228c-10.26,2.75-17.31,18-20.36,32.43s11.33,10.88,16.29,5.63S472.67,224.26,458.75,228Z" fill="#fff"/>
      <path d="M504,263.22c-3.65-.82-4.08,1.16-7.26,5.55h0L465,281.11s-5.06-40.39-7.23-46.5l-15.1,25.81c5.33,22.86,11.12,32.22,15.67,36.7,3.66,3.6,32.4-13.95,43.63-21h0s3.6.72,9.65-4.11S508.06,264.14,504,263.22Z" fill="#7a5068"/>
      <path d="M481.38,198.21c1.09,5.85-4.91,2.54-6.29,5.9s7.6,4.3,11.1,0c2-2.41,3.65-1.49,1.48-4.87s2.69-5.08,4.71-2.69,4.47-.18,5.42-2,7.54,2.42,12.38,3.24,11.39-.84,10.37-6.74-3.63-2.69-4.67-4.93,4.06-2.2,1.11-5.35-6.33.58-7.29-2-5.28-3-7-5.54-5.33,1-6.46,0-6.57-.92-9.47,6.57-2.7,4.35-4.66,7.95S481.38,198.21,481.38,198.21Z" fill="#001370"/>
      <polygon points="505.45 268.93 534.13 245.29 517.63 275.36 489.08 300.5 505.45 268.93" fill="#ff3456"/>
      <path d="M530.16,252.52c7.49,10,4.1,14.62,2,17.59S508.8,286,505.81,291.37s-10.29,4-12.8,2.6-4.1-6.06-2.39-9.8c2-4.38,8.82-.13,8.82-.13l25-21Z" fill="#7a5068"/>
      <path d="M461.63,256.27c-4.62-3.75-16.78,2.27-17.76,9.09l-3-3.59,8.11-23,7.87-7.06,4,3Z" fill="#fff"/>
    </g>
    <g>
      <path d="M957.32,895.87c-6.51,5.45-7.85,4.9-8.69,8.68s9.56,1.52,14.48-.31c0,0,4-1.53,6.06-4.2s4.09-1.34,7.94-2.67,4.33-5.07,2.65-10.94-12.88-.1-15.3,1.78S957.32,895.87,957.32,895.87Z" fill="#001370"/>
      <path d="M960.08,591.72c-3.22-7-6.48-2.38-8.21-10.93s1.7-19.81,14-28,20.23,1.62,21.59,16-7,25-7,25l-11.61,4Z" fill="#ebb0b0"/>
      <path d="M889.18,815c-1.86,6.32-2.88,8.22-4.17,9.85s-9.84-.62-10.59-2.11-2.58.14-3.39.75-17.8,2-17.82.07c-.08-7.54,5.19-4.74,15.88-8.56,18.59-6.63,12.32-9.57,12.32-9.57Z" fill="#001370"/>
      <path d="M877.18,808.33c12-76.47,7.54-84.15,18.41-90.89s50-26.78,50-26.78l11.53,36.47s-44.1,20.71-45.63,25c-4.88,13.58-5.36,18.16-10.1,31.49-5.89,16.57-9.26,25.12-10.94,29.87S876.23,814.37,877.18,808.33Z" fill="#001370"/>
      <path d="M853.9,629.38c-5.81.43-8.42,3.25-11.12,3.5a13.61,13.61,0,0,1-3.1.12s6.17-3.75,6.37-6.8-2-3.26-3.15-2.6-7.44,4.32-7.44,4.32-4.47-7.68,0-12.68,11.95-4.71,22.77,1.54S853.9,629.38,853.9,629.38Z" fill="#ebb0b0"/>
      <path d="M944.34,731.58c4.6,32.54,9.57,48,12,72.9s5.63,63.81,8.6,78.17c2,9.59,15.08,8.59,14.25,0-.79-8.14,1.68-64.69,3.54-79.64s4.76-79.27,4.76-79.27l-41.94-33.08Z" fill="#001370"/>
      <path d="M1023.94,680.55s-12.33-52.25-27.22-63.31L987,608.46c-6-9.5-6.52-14.64-6.52-14.64-10.07,2.57-20.4-2.1-20.4-2.1s2,5.9-.15,8.4h0c-14.65,2.88-37.54,18.79-47.6,21-11.58,2.48-31.71-.38-54.11-4.29-3.12-.55-6.67,11.62-3.84,13,24.1,12,34,18.67,54.42,15s25.71-2.18,30.39,4.65-3.6,32.55-12.39,47.89c-7.66,13.37,15.11,15,24.06,18.24s12.76,33.52,32.23,36.5c8.76,1.34,19-30.7,23.6-54.74l10.17,15.12Z" fill="#1a5dff"/>
      <g>
        <path d="M925,680.28l43.6,97.21,16.13-9.33c22.59-21.94,37.13-55.83,40.5-99.73L950,617.24C947.89,644.82,938.92,666.22,925,680.28Z" fill="#d8dae5"/>
        <path d="M908.81,689.61l59.74,87.88c22.59-21.94,37.13-55.83,40.49-99.73l-75.22-51.19C931.75,654.15,922.78,675.55,908.81,689.61Z" fill="#fff"/>
        <polygon points="949.96 617.24 933.82 626.57 1009.04 677.76 1025.18 668.43 949.96 617.24" fill="#f1f2f7"/>
      </g>
      <path d="M990.71,716c-8.36,3.1-16.24-2.83-17.46-.41S980.1,720,979.5,721s-5.3,1.09-11.41,1.63-3,10.45,7,11.27,13.4-3.8,19.64-4.75S990.71,716,990.71,716Z" fill="#ebb0b0"/>
      <path d="M1023.94,680.55c13.45,33.33,12,43.82-11.18,48.1-14.19,2.61-19,3.13-19,3.13a65.4,65.4,0,0,0-3-15.76l28-11.77Z" fill="#1a5dff"/>
      <path d="M953.46,567c4.77,1.28,5.13,5.12,6.86,9.7s5.94,2.86,9.23-1.12,1.87-6.07,4-8.58,4.27-3.33,2.64-5.87-5.11-.32-7.53-2.55-6.07-3.39-7.08-2.47l-3.48,3.5s-1.76-4,4.15-8.87,15.41-5.41,21.65-.67c0,0,7,5,11.44,16.55s-9.38,21.83-12.51,23.49c-2.44,1.28-5.54-2.92-6.64-7.6s-.44-4.15,2.24-5.7,3.95-6.47,1.06-7.56-4-.69-5.64,1.85-4.27,14.36-6.51,16.3-7.16-3.48-11-3.66c-1.47-.06-2.1-.12-2.44-.09a.8.8,0,0,0-.6,1.2l.44.73C946,584.5,948,565.54,953.46,567Z" fill="#f1f2f7"/>
    </g>
    <g>
      <polygon points="456.18 636.81 260.34 523.74 260.34 371.22 456.18 484.29 456.18 636.81" fill="#dfe1eb" opacity="0.5"/>
      <g>
        <g>
          <path d="M383.34,549.17c-14.77-8.21-27-28.82-27.26-46a28.32,28.32,0,0,1,1.33-9.47L342.9,480.05a44.15,44.15,0,0,0-2,14.65c.44,27,19.58,59.32,42.74,72.18,13.49,7.49,25.36,6.73,32.85-.54l-12-17.68C399.7,553.45,392,554,383.34,549.17Z" fill="#1a5dff"/>
          <path d="M342.9,480.05l14.51,13.62c3.45-10.14,13.24-13.34,24.91-6.86a48.19,48.19,0,0,1,13.36,11.5l6.74-11.85A74.79,74.79,0,0,0,382,469.1C363.64,458.89,348.25,464,342.9,480.05Z" fill="#5999ff"/>
          <path d="M404.46,548.66l12,17.68c4.54-4.41,7.47-11.23,8.15-20.07L409.49,536C409.07,541.52,407.27,545.83,404.46,548.66Z" fill="#f1f2f7"/>
        </g>
        <path d="M402.42,486.46l-6.74,11.85A64.08,64.08,0,0,1,403,509.39l11.39-5.07A101.69,101.69,0,0,0,402.42,486.46Z" fill="#ff3456"/>
        <path d="M409.49,536l15.14,10.3c.12-1.6.17-3.26.14-5-.19-12-4.08-25-10.37-37L403,509.39c4,7.57,6.44,15.84,6.57,23.45C409.6,533.93,409.57,535,409.49,536Z" fill="#1a5dff"/>
      </g>
      <polygon points="314.38 450.18 301.57 442.78 301.57 427.99 314.38 435.38 314.38 450.18" fill="#ff3456"/>
      <polygon points="314.38 470.35 301.57 462.96 301.57 448.17 314.38 455.56 314.38 470.35" fill="#1a5dff"/>
      <polygon points="314.38 490.6 301.57 483.2 301.57 468.41 314.38 475.81 314.38 490.6" fill="#5e4ef4"/>
      <polygon points="314.38 510.84 301.57 503.44 301.57 488.65 314.38 496.05 314.38 510.84" fill="#ec89f6"/>
      <polygon points="314.38 531.08 301.57 523.69 301.57 508.9 314.38 516.29 314.38 531.08" fill="#f1f2f7"/>
    </g>
    <g>
      <path d="M298.42,825.08c.1,3.77-.74,5.66.48,7.49s5.76,3,8.31,1.84c2.88-1.37,4.63-2.42,5.41-4s2-1.46,4.23-2,13.31-7.23,12.49-9.54-5.14-3.05-12-.44-16.95,5.36-16.95,5.36Z" fill="#001370"/>
      <path d="M244.29,817c.14,6.45-.07,7.47,2,9.5s8.66-.9,9.15-2.52,1.42-.14,3.74-1.63,11.88-6.47,12.49-9.32-4.68-3.31-9.41-1.73a40,40,0,0,1-10.13,1.49Z" fill="#001370"/>
      <path d="M222.68,630.58c5.7,52.54,11.4,77,11.81,95.3s5.7,73.72,7.74,87.16,15.26,6.11,15.16,0,6.42-77.38,6.83-93.67,0-92.86,0-92.86Z" fill="#001370"/>
      <path d="M243.54,667.74c28.92,57.77,34,54.51,41.83,79.76s9.49,63.2,10.71,74,14.25,8.79,15.07,0,2.85-80.23,0-97.05-36.72-97.9-36.72-97.9l-26.09,15.06Z" fill="#001370"/>
      <path d="M323.44,530.9c4.18-2.8,2.36-5.49,9.67-9.83,4.4-2.61,8.93,2,12.12,1.14s6.2-5.72,8.33-3.83c1.16,1-.12,2.2-7.31,7.7a39,39,0,0,1-5.46,6.82c-2.71,2.44-5.13-.65-6.62-.44s-7.54,5.29-7.54,5.29Z" fill="#ebb0b0"/>
      <path d="M248.4,526.8c2.61-4.19,3.67-10.46,2.34-13.72s-5.29-20.27,7.88-25.12,23.48,6.39,21.24,19.42-3.56,20.26-7,20.72-4.7-.29-5.46,2.47-15.52,0-15.52,0l-3.46-1.13Z" fill="#ebb0b0"/>
      <path d="M322.09,528.38c-42.25,26.47-43.35,33.36-59,24.89s-26.56-22.6-26.56-22.6L226,558.05s9.36,14.42,33.39,21,48.45-23.79,66.86-36.46C335.64,536.11,325.4,526.3,322.09,528.38Z" fill="#dfe1eb"/>
      <path d="M245.27,527.66c28.83,16.46,30.76,14.76,38.94,39.08,6.14,18.25-6.53,65.76,5,90.46,4.07,8.7-2.58,13.55-10.33,11.93-9.95-2.08-12.64-23.55-12.64-23.55s7.08,52.1-9.81,49.4-29.49-19.62-34.6-35.54c-2.62-8.18-4.52-74.79-3.69-79.52C223.44,550,235.91,522.32,245.27,527.66Z" fill="#f1f2f7"/>
      <path d="M284.48,613.63s-.43,7.54-1,9.8a26.87,26.87,0,0,1-4.79,5.28c-3.33,2.94-8.26,1.89-7.92,5.14s4,.24,11.29,1.39c6.22,1.34,7.49-.49,7.49-.49s.2-6.52.29-10.11C290.06,615.72,284.48,613.63,284.48,613.63Z" fill="#ebb0b0"/>
      <path d="M274.37,591.17c6,16.83,21,29.87,21,29.87s-9.38-.33-11.25,6.15c-1.48,5.14-.91,7.49,6.31,8.73,11,1.9,23.1-2.1,25.94-8.15,6.1-13-33-69.92-38.33-76.32C271,543,268.68,575.3,274.37,591.17Z" fill="#dfe1eb"/>
      <path d="M248.4,526.8s-4,3.34-5.24,5.7c-.55,1,14.42,6.53,24.22,7.87v-9.8S247.87,529.84,248.4,526.8Z" fill="#f1f2f7"/>
      <path d="M274.77,481.07c13.64,1,11.83,15.37,8.38,21.3s-3.63,3.95-8.38,6.94c0,0-.95-.45-2.24,7.85l-2.57.69c-.85.23.81-2.43-.41-3.52s-5.3,1.57-3.74,5.3,1.57,2.65,1.57,2.65-3.26,3.73-5.16,3.05-10.94-1.24-11.41-4.56-4.27-7.88-3.6-16.8,6.59-17.26,15.28-18.76S271.54,480.85,274.77,481.07Z" fill="#001370"/>
    </g>
    <path d="M268.84,810.44c28.82,0,48.57-.15,69.85,0s32.79-6.18,71.59-6.62,41.23,13.91,68.5,15,33.94,19.73-9.73,22.17-73.63,2.93-101.78,4S305,825.66,250.66,825.82Z" fill="#000c47" opacity="0.08"/>
  </g>
</svg>
