<svg id="Layer1" xmlns="http://www.w3.org/2000/svg" xmlns:xlink="http://www.w3.org/1999/xlink" width="1300" height="1000" viewBox="0 0 1300 1000">
  <defs>
    <linearGradient id="linear-gradient" x1="-16.85" y1="430.32" x2="1433.12" y2="430.32" gradientUnits="userSpaceOnUse">
      <stop offset="0" stop-color="#88869c"/>
      <stop offset="0.08" stop-color="#9290a5"/>
      <stop offset="0.5" stop-color="#c5c5d1"/>
      <stop offset="0.82" stop-color="#e5e6ed"/>
      <stop offset="1" stop-color="#f1f2f7"/>
    </linearGradient>
    <linearGradient id="linear-gradient-2" x1="-16.85" y1="416.19" x2="1433.12" y2="416.19" xlink:href="#linear-gradient"/>
    <linearGradient id="_ÂÁ_Ï_ÌÌ_È_ËÂÌÚ_17" data-name="¡ÂÁ˚ÏˇÌÌ˚È „‡‰ËÂÌÚ 17" x1="-4093.61" y1="328.38" x2="-4075.36" y2="241.55" gradientTransform="matrix(-1, 0, 0, 1, -3844, 0)" gradientUnits="userSpaceOnUse">
      <stop offset="0" stop-color="#1a5dff"/>
      <stop offset="1" stop-color="#bb1aff"/>
    </linearGradient>
    <linearGradient id="_ÂÁ_Ï_ÌÌ_È_ËÂÌÚ_3" data-name="¡ÂÁ˚ÏˇÌÌ˚È „‡‰ËÂÌÚ 3" x1="774.86" y1="858.39" x2="775.08" y2="860.09" gradientUnits="userSpaceOnUse">
      <stop offset="0" stop-color="#04007e"/>
      <stop offset="1" stop-color="#bb1aff"/>
    </linearGradient>
    <linearGradient id="_ÂÁ_Ï_ÌÌ_È_ËÂÌÚ_3-2" x1="748.27" y1="853.28" x2="748.46" y2="854.85" xlink:href="#_ÂÁ_Ï_ÌÌ_È_ËÂÌÚ_3"/>
    <linearGradient id="_ÂÁ_Ï_ÌÌ_È_ËÂÌÚ_3-3" x1="-3011.26" y1="741" x2="-3019.05" y2="744.34" gradientTransform="matrix(-1, 0, 0, 1, -2649.27, 0)" xlink:href="#_ÂÁ_Ï_ÌÌ_È_ËÂÌÚ_3"/>
    <linearGradient id="_ÂÁ_Ï_ÌÌ_È_ËÂÌÚ_3-4" x1="-3012.8" y1="741.14" x2="-3019.03" y2="743.81" gradientTransform="matrix(-1, 0, 0, 1, -2649.27, 0)" xlink:href="#_ÂÁ_Ï_ÌÌ_È_ËÂÌÚ_3"/>
    <linearGradient id="_ÂÁ_Ï_ÌÌ_È_ËÂÌÚ_3-5" x1="-2961.85" y1="580.18" x2="-2968.96" y2="583.15" gradientTransform="matrix(-1, 0, 0, 1, -2649.27, 0)" xlink:href="#_ÂÁ_Ï_ÌÌ_È_ËÂÌÚ_3"/>
    <linearGradient id="_ÂÁ_Ï_ÌÌ_È_ËÂÌÚ_40" data-name="¡ÂÁ˚ÏˇÌÌ˚È „‡‰ËÂÌÚ 40" x1="932" y1="837.91" x2="882.08" y2="817.49" gradientUnits="userSpaceOnUse">
      <stop offset="0" stop-color="#04007e"/>
      <stop offset="1" stop-color="#1a5dff"/>
    </linearGradient>
    <linearGradient id="_ÂÁ_Ï_ÌÌ_È_ËÂÌÚ_34" data-name="¡ÂÁ˚ÏˇÌÌ˚È „‡‰ËÂÌÚ 34" x1="524.35" y1="344.7" x2="489.05" y2="293.53" gradientUnits="userSpaceOnUse">
      <stop offset="0" stop-color="#00a9ff"/>
      <stop offset="1" stop-color="#1a5dff"/>
    </linearGradient>
  </defs>
  <g>
    <path d="M464.62,568c17-1,33.39.17,50.1-3.36A52.83,52.83,0,0,1,527.45,563c3.48.12,6.9.9,10.35,1.34,14.48,1.85,29-2.14,43.05-6.09l4.3-1.21a3.34,3.34,0,0,0,1.59-.77,2.27,2.27,0,0,0-.26-3,5.53,5.53,0,0,0-3-1.34c-6.4-1.24-13,.22-19.51-.56-8.89-1.08-16.76-6.26-25.47-8.36-9.6-2.31-19.72-.73-29.27,1.81s-18.86,6-28.61,7.67c-7.23,1.2-14.58,1.35-21.91,1.5a33.4,33.4,0,0,0-6.08,6.65c10.79-.81,23.22-3.18,34-4,4-.3,9.11,2.5,6.63,3l-19.64,4.12a31.29,31.29,0,0,1-7.45.94C465.44,566.14,465.34,566.57,464.62,568Z" fill="#000c47" opacity="0.15"/>
    <path d="M956.15,789.35c-13.25-11-42.87-15.63-37.39-2.43s1.82,14.86,1.82,14.86l-13.92,2.72c-6.16-.78-21.08,4.76-31.34,6.92s-9-.35-14.74.09L870.4,817h36.81l13.37,16.4-1.14,3.64v1.51s4.24,0,7.19,0c1.09,0,3.49-5.15,1.71-9.7-.71-1.81-1.94-3.2-4.76-7.32,0,0,25.34.44,32.18,0,8.25-.53,40.11-1.84,40.46-11.13C996.94,791.47,967.48,798.78,956.15,789.35Z" fill="#000c47" opacity="0.15"/>
    <path d="M749.94,828.54c8.4-1.22-.17,5,7.85,4.81s38.46-5.72,53.57-12.4,39.77,5.44,51.85,5.44c17.07,0,46.87,6.58,22.61,10.84s-61.72,6.09-76.49,4.88-40.47-2.23-40.47-2.23-20.64-1.58-24.75-2.65l-4.1-1.07Z" fill="#000c47" opacity="0.15"/>
    <path d="M251.93,700.69c7.75,1.48,22.94.44,25.59.44,4.44,0-3.91,9.2-.54,9.17,6,0,23.84-.72,23.84-.72l-20-17.15s-16.55,3-16.75,3S251.93,700.69,251.93,700.69Z" fill="#000c47" opacity="0.15"/>
    <g>
      <polygon points="495.77 792.94 608.38 792.94 664.86 694.24 512.35 655.37 495.77 792.94" fill="#000c47" opacity="0.15"/>
      <path d="M680.48,414.79,625,411.1,611.4,423.71c-12.08-2-37.43-1.6-88.83,5.6-124.06,17.38-120.43,94-120.43,94H550.91s23-52.06,114-68.24l-15.38-21.85Z" fill="#000c47" opacity="0.15"/>
      <path d="M1024.93,436.76l16.21-7.45c-77.86-49.81-194-81.42-323.82-81.42a746.82,746.82,0,0,0-155.78,16l54.94,59c30.36-6.51,66.22,10.34,100.84,10.34,68.7,0,131.32,14.07,178.65,37.19l-2.2.94v13.12c39.5,25.27,63.35,58,63.35,93.71,0,56.33-59.21,105.16-145.71,129.15l50.71,76h20.8c137.41-38.13,231.48-115.7,231.48-205.19C1114.4,524.88,1081,475.79,1024.93,436.76Z" fill="#000c47" opacity="0.15"/>
      <polygon points="551.43 443.31 551.43 396.79 493.7 317.38 493.7 363.9 551.43 443.31" fill="#dde0ea"/>
      <path d="M397.23,626.05l-148.53-26v54.13c40.95,63.56,131.8,114.41,247.07,138.72l57-79.57C480.17,698.06,423,666.06,397.23,626.05Z" fill="#1a5dff"/>
      <path d="M397.23,571.92,248.7,600.09c40.95,63.57,131.8,114.41,247.07,138.72l57-79.57C480.17,643.93,423,611.93,397.23,571.92Z" fill="#5999ff"/>
      <g>
        <path d="M551.43,354.08V274.75L444,257.41l-41.88,97.36V391C337.8,416.11,286.91,450.7,256.5,491l145.64,32.31c27.52-36.48,81.63-65.53,149.29-80h0a470.13,470.13,0,0,1,98.05-10.07V347.89A771.11,771.11,0,0,0,551.43,354.08Z" fill="#dfe1eb"/>
        <path d="M973.3,429.31c-33.54-21.46-74.21-39.53-120-53.16V484.49h0Z" fill="url(#linear-gradient)"/>
        <path d="M649.48,347.89v85.35c81.69,0,154.81,19.9,203.81,51.25V376.15C792.8,358.15,723.35,347.89,649.48,347.89Z" fill="url(#linear-gradient-2)"/>
        <path d="M649.48,347.89v85.35c81.69,0,154.81,19.9,203.81,51.25V376.15C792.8,358.15,723.35,347.89,649.48,347.89Z" fill="#f1f2f7"/>
      </g>
      <polygon points="973.3 382.79 973.3 429.31 853.29 484.49 853.29 437.97 973.3 382.79" fill="#dfe1eb"/>
      <path d="M551.43,274.75,493.7,195.34c-107.48,23-193.48,69.16-237.2,127.12l145.64,32.31C429.66,318.29,483.77,289.24,551.43,274.75Z" fill="#fff"/>
      <polygon points="256.5 322.46 256.5 491.02 402.14 523.33 402.14 354.77 256.5 322.46" fill="#f1f2f7"/>
      <g>
        <path d="M909.4,451.7l-56.11,19.67v13.12c39.51,25.27,63.35,58,63.35,93.71,0,56.33-59.21,105.16-145.7,129.15l71.51,76,98.9-156Z" fill="#f1f2f7"/>
        <path d="M1073.92,578.2c0-56.77-37.86-108.74-100.62-148.89L909.4,451.7l32,175.67-98.9,156C979.85,745.26,1073.92,667.69,1073.92,578.2Z" fill="#dfe1eb"/>
      </g>
      <path d="M1073.92,565.09c0-56.78-37.86-108.75-100.62-148.9l-120,55.18c39.51,25.27,63.35,58,63.35,93.72,0,56.33-59.21,105.15-145.7,129.15l71.51,76C979.86,732.15,1073.92,654.58,1073.92,565.09Z" fill="#fff"/>
      <polygon points="770.94 694.24 770.94 707.36 842.45 783.39 842.45 770.27 770.94 694.24" fill="#f1f2f7"/>
      <polygon points="495.77 738.81 495.77 792.94 552.73 713.37 552.73 659.24 495.77 738.81" fill="#001370"/>
      <path d="M648.73,386.79c81.69,0,154.8,19.9,203.81,51.25l120-55.18c-77.86-49.81-194-81.42-323.82-81.42a772.92,772.92,0,0,0-97.3,6.08l-.76,89.34A470.3,470.3,0,0,1,648.73,386.79Z" fill="#fff"/>
    </g>
    <g>
      <path d="M331.57,539.33c20,0,25.71-4.46,48.87-3.39s38.62,11.22,55.24,14,3.49,10.2-17,11.29S383.64,566.6,367,566.1s-44.75-5-51.25-4.26-6.5,3.33-6.5,3.33L298,557.54s48.88-1,64.18-1,8-7.69-9.59-10.69S330.82,542,330.82,542Z" fill="#000c47" opacity="0.15"/>
      <g>
        <g>
          <path d="M353.08,393.46c-.72,0-1.14.69-.94,1.66l25.61,122.8,2.69.6-25.69-123.2A2.28,2.28,0,0,0,353.08,393.46Z" fill="#d8dae5"/>
          <path d="M385.06,401.26a2.25,2.25,0,0,0-1.66-1.86c-.72-.06-1.14.68-.94,1.65l19.68,94.35V483.11Z" fill="#d8dae5"/>
          <path d="M388.53,423.17l-30.32-5.93c-.73-.15-1.21.51-1.08,1.48a2.41,2.41,0,0,0,1.58,2L389,426.65a.9.9,0,0,0,.28,0c.58-.06.92-.66.8-1.5A2.38,2.38,0,0,0,388.53,423.17Z" fill="#d8dae5"/>
          <path d="M394,449.15l-30.32-5.93c-.74-.15-1.22.51-1.08,1.47a2.37,2.37,0,0,0,1.57,2l30.32,5.94a1,1,0,0,0,.29,0c.57-.06.91-.67.8-1.5A2.41,2.41,0,0,0,394,449.15Z" fill="#d8dae5"/>
          <path d="M399.36,475.13,369,469.19c-.73-.14-1.22.52-1.08,1.48a2.38,2.38,0,0,0,1.58,2l30.32,5.94a1.37,1.37,0,0,0,.28,0c.57-.06.92-.67.8-1.5A2.38,2.38,0,0,0,399.36,475.13Z" fill="#d8dae5"/>
          <path d="M374.45,495.17c-.73-.15-1.22.52-1.08,1.48a2.38,2.38,0,0,0,1.58,2L402.14,504v-3.39Z" fill="#d8dae5"/>
        </g>
        <g>
          <path d="M330.79,542.5l-.2,0a1.49,1.49,0,0,1-1.29-1.68l19.05-147.51a1.5,1.5,0,0,1,3,.39L332.27,541.19A1.5,1.5,0,0,1,330.79,542.5Z" fill="#fff"/>
          <path d="M364.16,549.9H364a1.5,1.5,0,0,1-1.29-1.68L381.72,400.7a1.5,1.5,0,1,1,3,.38L365.64,548.59A1.5,1.5,0,0,1,364.16,549.9Z" fill="#fff"/>
          <path d="M380.68,422.52a1.73,1.73,0,0,1-.32,0L347,415.08a1.5,1.5,0,0,1,.65-2.93L381,419.56a1.5,1.5,0,0,1-.33,3Z" fill="#fff"/>
          <path d="M377.83,444.53l-.32,0-33.37-7.41a1.5,1.5,0,0,1,.65-2.93l33.37,7.41a1.5,1.5,0,0,1-.33,3Z" fill="#fff"/>
          <path d="M375,466.54l-.33,0-33.37-7.41a1.5,1.5,0,1,1,.65-2.93l33.37,7.41a1.5,1.5,0,0,1-.32,3Z" fill="#fff"/>
          <path d="M372.14,488.55a1.84,1.84,0,0,1-.33,0l-33.37-7.41a1.5,1.5,0,0,1,.65-2.93l33.37,7.41a1.5,1.5,0,0,1-.32,3Z" fill="#fff"/>
          <path d="M369.29,510.56a1.24,1.24,0,0,1-.33,0l-33.37-7.4a1.5,1.5,0,0,1,.65-2.93l33.37,7.41a1.5,1.5,0,0,1-.32,3Z" fill="#fff"/>
          <path d="M366.44,532.57a1.24,1.24,0,0,1-.33,0l-33.36-7.4a1.5,1.5,0,0,1,.65-2.93l33.36,7.41a1.5,1.5,0,0,1-.32,3Z" fill="#fff"/>
        </g>
      </g>
      <g>
        <path d="M305.81,560.44c2.95,2.48,3.56,2.23,3.94,3.94s-4.34.69-6.57-.14a7.24,7.24,0,0,1-2.75-1.9c-.93-1.22-1.86-.61-3.61-1.22s-2-2.29-1.2-5,5.85,0,6.95.81A33,33,0,0,1,305.81,560.44Z" fill="#000070"/>
        <path d="M304.55,422.43c1.47-3.16,2.94-1.08,3.73-5s-.77-9-6.38-12.69-9.17.74-9.79,7.27a17.15,17.15,0,0,0,3.19,11.33l5.26,1.81Z" fill="#ebb0b0"/>
        <path d="M336.32,522.3c.84,2.87,1.3,3.73,1.89,4.47s4.46-.28,4.8-1,1.17.07,1.54.34,7.72-.77,7.73-1.65c0-3.42-2-.47-6.85-2.2-8.44-3-5.59-4.34-5.59-4.34Z" fill="#000070"/>
        <path d="M342.17,520.72c-5.45-34.7-3.42-38.18-8.35-41.24s-22.68-12.15-22.68-12.15l-5.23,16.55s20,9.39,20.7,11.33c2.21,6.16,2.43,8.24,4.58,14.29,2.68,7.52,4.2,11.4,5,13.55S342.6,523.46,342.17,520.72Z" fill="#001370"/>
        <path d="M352.73,439.52c2.64.2,3.83,1.48,5,1.59s1.21-.56,1.21-.56-2.6-1.09-2.69-2.47.86-1.3,1.42-1.18c.91.19,4.78,1.15,4.78,1.15a5.87,5.87,0,0,0-1.4-4.94c-2-2.27-5.42-2.14-10.33.69S352.73,439.52,352.73,439.52Z" fill="#ebb0b0"/>
        <path d="M311.7,485.9c-2.09,14.76-4.35,21.8-5.46,33.07s-2.55,29-3.9,35.48c-.9,4.35-6.84,3.89-6.47,0,.36-3.7-.76-29.36-1.6-36.14s-2.16-36-2.16-36l19-15Z" fill="#001370"/>
        <path d="M274.2,466.28s7-27.25,13.73-32.27l4.41-4c2.73-4.31,3-6.65,3-6.65,4.57,1.17,9.25-.95,9.25-.95s-.89,2.68.07,3.81h0c6.64,1.3,17,8.52,21.6,9.5,5.25,1.12,14.39-.17,24.55-1.95,1.42-.24,3,5.28,1.74,5.92-10.94,5.44-15.42,8.47-24.69,6.81s-11.67-1-13.79,2.11,1.63,14.77,5.62,21.73c3.47,6.07-6.86,6.81-10.92,8.28s-5.79,15.21-14.62,16.56c-4,.61-6.72-20-8.82-30.87l-4.23,7.24Z" fill="#1a5dff"/>
        <path d="M322,470.79,268.4,501.74a9.69,9.69,0,0,1-13.23-3.55h0A9.69,9.69,0,0,1,258.72,485L312.33,454a9.68,9.68,0,0,1,13.23,3.54h0A9.69,9.69,0,0,1,322,470.79Z" fill="#ff4778"/>
        <path d="M307.56,411.22c-2.17.58-2.33,2.32-3.12,4.4s-2.69,1.3-4.18-.51-.85-2.75-1.82-3.89-1.94-1.51-1.2-2.67,2.32-.14,3.42-1.15,2.75-1.54,3.21-1.12l1.58,1.59s.8-1.81-1.88-4a8.19,8.19,0,0,0-9.83-.3,17.48,17.48,0,0,0-5.19,7.51c-2,5.22,4.26,9.9,5.68,10.65,1.1.59,2.51-1.32,3-3.44s.2-1.89-1-2.59-1.79-2.93-.48-3.43,1.82-.31,2.56.84,1.94,6.52,3,7.39,3.25-1.57,5-1.65c.67,0,.95-.06,1.1,0a.36.36,0,0,1,.28.54l-.2.33C311,419.16,310,410.55,307.56,411.22Z" fill="#000070"/>
        <path d="M268.32,490.61c2.08,3.59,1.19,8-2,9.83s-7.44.41-9.52-3.18-1.18-8,2-9.83S266.25,487,268.32,490.61Z" fill="#d8dae5"/>
        <path d="M290.66,478.84c3.79,1.4,7.36-1.29,7.92-.19s-3.11,2-2.84,2.45,2.41.5,5.18.74,1.37,4.75-3.16,5.12-6.08-1.73-8.92-2.16S290.66,478.84,290.66,478.84Z" fill="#ebb0b0"/>
        <path d="M275.23,462.54c-6.1,15.12-5.11,20.08,5.42,22,6.44,1.19,8.64,1.43,8.64,1.43a29.37,29.37,0,0,1,1.37-7.15s-7.1-4.72-9.16-7C279.68,469.82,275.23,462.54,275.23,462.54Z" fill="url(#_ÂÁ_Ï_ÌÌ_È_ËÂÌÚ_17)"/>
      </g>
    </g>
    <path d="M302.76,617c26.61-2,22.85,5.74,29.71,7.65,14.93,4.16,20.43-.74,28.38,6.2,5.76,5-9.86,9-15.3,9.68-10.36,1.21-18.94,9.49-27.93,11.16s-18.42,2.45-18.42,2.45l-17.85-10.31Z" fill="#000c47" opacity="0.15"/>
    <path d="M282.12,693.6s-11.85-37.49-9.39-45.06,10.54-8,10.54-8v14.8Z" fill="#000c47" opacity="0.15"/>
    <path d="M299.2,654.18c-2.64,23.59,1.62,55.4,1.62,55.4L290,700.69s-4.53-41.18-4.46-47.54,2.48-8.17,2.48-8.17Z" fill="#000c47" opacity="0.15"/>
    <g>
      <path d="M764.7,835.47c0,1.78-.35,2.67.22,3.54a3.8,3.8,0,0,0,3.94.87c1.36-.65,2.19-1.14,2.55-1.89s1-.69,2-1,6.3-3.43,5.91-4.52-2.43-1.44-5.69-.21-8,2.54-8,2.54Z" fill="url(#_ÂÁ_Ï_ÌÌ_È_ËÂÌÚ_3)"/>
      <path d="M739.07,831.66c.07,3.05,0,3.53.94,4.5s4.1-.43,4.32-1.2.68-.06,1.78-.77,5.62-3.06,5.91-4.41-2.22-1.57-4.46-.82a19.1,19.1,0,0,1-4.79.71Z" fill="url(#_ÂÁ_Ï_ÌÌ_È_ËÂÌÚ_3-2)"/>
      <path d="M728.84,743.4c2.7,24.87,5.4,36.44,5.59,45.11s2.7,34.89,3.67,41.26,7.22,2.89,7.18,0,3-36.63,3.23-44.34,0-44,0-44Z" fill="#001370"/>
      <path d="M738.72,761c13.69,27.34,16.08,25.8,19.8,37.75s4.49,29.92,5.07,35,6.74,4.16,7.13,0,1.35-38,0-45.94-17.38-46.34-17.38-46.34L741,748.6Z" fill="#001370"/>
      <path d="M783.47,729.15c2.2.92,2.78-.49,6.4,1.26,2.18,1.06,1.54,4.05,2.71,5.09s3.88,1,3.69,2.3c-.11.72-.91.52-4.95-.89a18.19,18.19,0,0,1-4.12-.38c-1.67-.44-1.08-2.2-1.55-2.73s-4.06-1.6-4.06-1.6Z" fill="#ebb0b0"/>
      <path d="M741,694.28c1.23-2,1.73-5,1.11-6.5s-2.51-9.59,3.73-11.89,11.11,3,10,9.2-1.69,9.58-3.32,9.8-2.23-.14-2.59,1.17-7.34,0-7.34,0l-1.64-.53Z" fill="#ebb0b0"/>
      <path d="M784.11,728c-21.47-9.8-36.44-27.26-36.44-27.26l-13.55,3s21.88,25.6,45.48,29.62C784.91,734.21,785.8,728.73,784.11,728Z" fill="#1c59d1"/>
      <path d="M739.54,694.68c13.64,7.8,14.56,7,18.43,18.5,2.9,8.64-3.09,31.13,2.38,42.82,1.92,4.12-1.23,6.41-4.89,5.65-4.72-1-6-11.15-6-11.15s3.35,24.66-4.64,23.38-14-9.28-16.38-16.82c-1.24-3.87-2.14-35.4-1.74-37.64C729.2,705.26,735.11,692.15,739.54,694.68Z" fill="#1a5dff"/>
      <path d="M758.1,735.38a42.38,42.38,0,0,1-.49,4.64,12.85,12.85,0,0,1-2.26,2.5c-1.58,1.39-3.91.89-3.75,2.43s1.88.11,5.34.65c2.94.64,3.55-.22,3.55-.22s.09-3.09.14-4.79C760.74,736.37,758.1,735.38,758.1,735.38Z" fill="#ebb0b0"/>
      <path d="M753.31,724.75c2.85,8,10,14.13,10,14.13s-4.44-.15-5.32,2.92c-.71,2.43-.43,3.54,3,4.13,5.23.9,10.94-1,12.28-3.86C776.1,735.9,757.6,709,755.07,706,751.7,701.93,750.62,717.24,753.31,724.75Z" fill="#1a5dff"/>
      <path d="M741,694.28a13.5,13.5,0,0,0-2.48,2.69c-.26.5,6.82,3.09,11.46,3.73v-4.64S740.77,695.72,741,694.28Z" fill="#ff4778"/>
      <path d="M753.5,672.63c6.46.46,5.6,7.28,4,10.08s-1.72,1.87-4,3.29c0,0-.45-.22-1.06,3.71l-1.21.33c-.41.11.38-1.15-.2-1.66s-2.51.74-1.77,2.5.74,1.26.74,1.26-1.54,1.76-2.44,1.44-5.18-.59-5.4-2.16-2-3.73-1.7-7.95,3.11-8.17,7.23-8.88S752,672.53,753.5,672.63Z" fill="#001370"/>
    </g>
    <g>
      <path d="M264.8,692.13A4.12,4.12,0,0,1,265,697c-.84.93-2.65.78-3.66,1.44-2.75,1.79-9,3.17-10.21,2.3s-1.69-3.15,4.75-5.62a12.15,12.15,0,0,0,4.28-2.64Z" fill="url(#_ÂÁ_Ï_ÌÌ_È_ËÂÌÚ_3-3)"/>
      <path d="M264.72,689.93a29.07,29.07,0,0,0,.43,3.15,1.07,1.07,0,0,1-.36,1,4.2,4.2,0,0,1-4.66.9s-1.19-.47-.64-2a23.39,23.39,0,0,0,.84-3.53Z" fill="#fff"/>
      <path d="M285.81,700.82a4.12,4.12,0,0,1,.22,4.82c-.84.94-2.16.16-2.76,1.21-2.31,4-6.47,3.51-7.91,3.36-2.17-.23-2.28-2,1.3-5.4a54.81,54.81,0,0,0,4.14-4.12Z" fill="url(#_ÂÁ_Ï_ÌÌ_È_ËÂÌÚ_3-4)"/>
      <path d="M300.1,603.58c4.15,10.12,5.14,15.2-3.35,25S276,648,274.44,650.91s-3.48,9.22-8.76,39c-.33,1.83-5.94,2.26-5.92-1.14,0-5.83,1-39.25,2.65-47.55s18.69-24.6,18.69-24.6Z" fill="#fff"/>
      <path d="M285.73,698.63a29.15,29.15,0,0,0,.43,3.14,1.1,1.1,0,0,1-.36,1.05,4.22,4.22,0,0,1-4.66.89s-1.19-.47-.64-2a23.69,23.69,0,0,0,.84-3.53Z" fill="#fff"/>
      <path d="M278.68,597.46c-5.13,3.94-7.24,5.46-7.24,5.46l-5-2.73,7.16-10.29L276,588l3.25,4.61Z" fill="#7a5068"/>
      <path d="M312.39,610.61c4.15,10.12,5.14,15.21-3.36,25s-18.38,15.45-20,18.35-3.14,30.43-2.33,44.21c.11,1.85-6,3.36-6.42,0-.56-4.17-4.24-42.47-2.61-50.76s15.69-23.81,15.69-23.81Z" fill="#fff"/>
      <path d="M280.51,580.69l.15,17.9s-.67-1.87-2-1.13c0,0,.57-6.94-5.09-7.56C273.59,589.9,278.76,581.71,280.51,580.69Z" fill="#fff"/>
      <path d="M315.49,617.48c-1.54,8.83-12.46,13.79-26.36,6s-7.33-10.69-7.1-18.09,1.74-10-1.42-20.92,15.93-5,24,1.71S316.92,609.33,315.49,617.48Z" fill="#fff"/>
      <path d="M306,586.45c8,6.72,11.82,25.77,10.4,33.93-1.23,7-9.92,15-19.76,12.7.23-1.34,1.1-9.62,1.17-12.46.26-12-6.11-18.91-4.43-33.53,0,0,7.11-3.21.84-6.13s-9.09-2.91-9.88-.53,2.52,20,2.06,32.84c-.16,4.7-2,11.24-2.21,13.53-8.49-6-3.49-14.81-3.29-21.36.23-7.4-1-9.65-1.15-21C279.53,572.75,297.92,579.72,306,586.45Z" fill="#001370"/>
      <path d="M290.06,573.69c2.83,5.87,4.75,7.32,5.34,8.43s-2.26,2.42-4.53,2.6l-1.45,3.92-2.59-5.93s-1.41-.6-1.09-1.85-.44-2.37-.86-3.18S290.06,573.69,290.06,573.69Z" fill="#7a5068"/>
      <path d="M290.17,572.61c-.13,4.2-3.54,6-6.35,6.62s-9.14-8.2-8.22-12.15,7.11-7.77,10.54-4.87S290.17,572.61,290.17,572.61Z" fill="#7a5068"/>
      <path d="M280.26,605.8h.12l4.6-1.19a.49.49,0,0,0-.24-.94l-4.6,1.19a.48.48,0,0,0-.35.59A.47.47,0,0,0,280.26,605.8Z" fill="#fff"/>
      <path d="M301.85,587.19c5,1.33,8.4,8.74,9.88,15.73s-5.5,5.28-7.91,2.73S295.09,585.38,301.85,587.19Z" fill="#fff"/>
      <path d="M279.9,604.28c1.78-.4,2,.56,3.53,2.69h0l15.38,6s2.45-19.6,3.51-22.56l7.32,12.52c-2.58,11.09-5.39,15.63-7.6,17.81-1.77,1.74-15.72-6.77-21.17-10.21h0s-1.74.35-4.68-2S277.93,604.72,279.9,604.28Z" fill="#7a5068"/>
      <path d="M290.87,572.74c-.53,2.84,2.38,1.23,3.05,2.86s-3.69,2.09-5.38,0c-1-1.17-1.77-.72-.72-2.36s-1.31-2.46-2.29-1.31-2.17-.08-2.63-1-3.66,1.18-6,1.58-5.53-.41-5-3.27,1.77-1.31,2.27-2.39-2-1.07-.54-2.6,3.07.28,3.54-1,2.56-1.45,3.4-2.69,2.59.47,3.14,0,3.19-.44,4.59,3.19,1.31,2.11,2.26,3.86S290.87,572.74,290.87,572.74Z" fill="url(#_ÂÁ_Ï_ÌÌ_È_ËÂÌÚ_3-5)"/>
      <polygon points="279.19 607.05 265.28 595.58 273.28 610.17 287.13 622.37 279.19 607.05" fill="#ff4778"/>
      <path d="M267.2,599.09c-3.63,4.88-2,7.09-.95,8.53s11.32,7.71,12.77,10.32,5,1.92,6.21,1.26,2-2.94,1.16-4.76c-1-2.12-4.28-.06-4.28-.06L270,604.19Z" fill="#7a5068"/>
      <path d="M300.45,600.91c2.24-1.82,8.14,1.1,8.62,4.41l1.46-1.74-3.94-11.19L302.77,589l-1.92,1.43Z" fill="#fff"/>
    </g>
    <path d="M914.62,829.47c1.72.79,2.93,2.65,2.67,1.13,0,0,2.42-3.09,2.36-3.21s-1.58-1.62-1.58-1.62l-4,.79Z" fill="#fff"/>
    <path d="M839.4,761.06c-2.29-2.73-2.91-2.2-2.79-1.73s.82,1.11.58,1.39-.68-.42-3.12.17-2.12,5.54-.86,6.09,2.35-3.05,4-2.31a5.73,5.73,0,0,0,3.46.24L841,763S839.7,761.41,839.4,761.06Z" fill="#ebb0b0"/>
    <path d="M902.21,779.54C888.51,791.76,886.06,805,891,812.75s17.17,12.3,23.63,16.72c0,0,.62-3.87,3.45-3.7,0,0-12.45-13.45-12.58-13.79-1.44-3.83,5.18-16.59,6.24-21S902.21,779.54,902.21,779.54Z" fill="#1a5dff"/>
    <path d="M858.91,812.71c-1,1.76,4.79,4.32,7.53,4.94,1.61.37,3.74,2.58,5.35,2.11,4-1.17,2.22-4.25,1.59-5.5a3.26,3.26,0,0,0-2.82-2,34.61,34.61,0,0,1-5.63-.1C863.68,811.87,860.27,810.37,858.91,812.71Z" fill="#001370"/>
    <path d="M867.53,811.56c0,1.67.27,3.68,3,4,4.93.6,1.74-5.14,1.74-5.14Z" fill="#fff"/>
    <path d="M855.1,758a10.68,10.68,0,0,1-3.93-.68c-1.74-.76-2.75-1.17-4.5.18-1.14.89-1.83,2.76-.63,2.76s1.3-.52,1.85-.93a1.56,1.56,0,0,1,1.81.11c.31.41-.92,1.46-.75,1.81.38.81,2-1,3.86-1.44a5.13,5.13,0,0,1,2.51,0C855.29,759.57,855.1,758,855.1,758Z" fill="#ebb0b0"/>
    <path d="M891.1,783.39c-14.72-8.48-27-17.87-32.9-12.54s5.85,35.43,8.17,40.22,7.72,3,6.9-.4-2.34-21.32-2.34-21.32,12.12,9.87,23.68,9.3c8.44-.41,11.23-9,13.27-12,6.3-9.12,5-9.17,5-9.17Z" fill="#1a5dff"/>
    <path d="M854.84,757.58c-.57,0-.75,2.63.21,2.81s33.76-3.25,33.76-3.25l4.25-15.1-14.87,9Z" fill="#001370"/>
    <path d="M883.58,748c-2.59,13.28,5.88,17.36-.68,31.58-3.65,7.88,5.15,18.29,15.15,18.41,7.49.09,20.78-7.59,20.71-11-.58-25.51-7.71-39.46-15.32-45.56C895.26,734.81,885,740.7,883.58,748Z" fill="#001370"/>
    <path d="M842.08,762.41c-2.07-.09-2.73,2.43-1.88,3.16s22.26,5.3,28.6,4.7c11-1,24.58-8.86,22-16-3.8-10.48-7.6-2.08-20.37,6.37C862.44,765.88,842.08,762.41,842.08,762.41Z" fill="#001370"/>
    <path d="M894.17,739.47c.05-.75-3.07-.31-4.87-1.65a32.39,32.39,0,0,1-4.26-4.43l-2.95,8.42s3.62,1.63,3.08,2.39C882.09,748.58,894.12,740.23,894.17,739.47Z" fill="#ebb0b0"/>
    <path d="M915.89,827.73a3.67,3.67,0,0,0,0,4c.93,1.41,2.28,2.68,2.39,3.31,0,0-.47-.82-2.33,1.07-.53.53,1.53,2.34,3.18,2.46s3.24-1.68,4.11-2.85-.08-5.69-1-7.19a7.22,7.22,0,0,0-3.76-2.13A2.81,2.81,0,0,0,915.89,827.73Z" fill="url(#_ÂÁ_Ï_ÌÌ_È_ËÂÌÚ_40)"/>
    <path d="M918.41,830.49c0,1.53,3.18,5,2.22,6.27s-2.32,1.79-3.06,1.32a4.09,4.09,0,0,0,1.56.51c1.65.12,3.24-1.68,4.11-2.85s-.08-5.69-1-7.19C919.13,827.73,918.41,829,918.41,830.49Z" fill="#001370"/>
    <path d="M882.09,741.81c-.9-.52-1.57,1.86-2.85,2.14s-9.42-4.73-9.92-9.43,7.27-6.47,15.72-1.13Z" fill="#ebb0b0"/>
    <path d="M868.62,737c2.44,1.93,7.11,1.33,7.82,1.48s-.64-.59-.23-1.14,1.69-.68,2.28.91,4,.87,5.08.76,4.1-1.9,4.56-3.13-5.65-5.29-7.66-8.75-3.66-5.06-6.12-2.37-5-1.3-6.83,1.53.37,4.39-2,6S867.63,736.25,868.62,737Z" fill="#001370"/>
    <path d="M873,402.28c-2.39-2-7.73-15.86-7.73-15.86l5.86,3.75s1.81-.89,1.33-1.84,15.41-27,14.18-32.37-57.06-1-57.06-1-17.32-5.26-26.08-7-14.09-4.55-11.63-8.08,4.79-6.41,3.69-8.18-8.48-1.78-8.48-1.78L786,335.1l-31.83,17.73,4.12-12.43,7.42,2,6.81-2.57-1.56-3.56H758.88l-13.4,12.48-7.12,13.74c16.74.11,25.88.95,25.88.95L792,380H803.7s17.67-1.22,22.5-1.8,24.67-10.44,24.67-10.44l14.74,35.47s7.48,5,9.29,4S875.39,404.25,873,402.28Zm2.44-39.5c0,3.06-5.31,11.94-5.31,11.94l-4-11.08S875.43,361.64,875.43,362.78Z" fill="#000c47" opacity="0.15"/>
    <g>
      <path d="M421.57,471.32c-.51-1.51-2.42-2.89-3.61-3.63a2.76,2.76,0,0,1,.86-1.95c1.23-1.14-1.3-4.08-1.3-4.08l-1,1.17c-3.61,4.55-3,8.79,1.39,11.71S422.33,473.56,421.57,471.32Z" fill="#ebb0b0"/>
      <path d="M469.76,558.64c.09,2.23-.34,3.07-.77,3.35s-.44.37-.51.73a17.62,17.62,0,0,1-1,2.72c-1.55,3.21-4.38,3.3-3.78.66s1-2.7,1.09-4.55.34-3.7,2-4.5A1.9,1.9,0,0,1,469.76,558.64Z" fill="#001370"/>
      <path d="M442.68,438.92c.95,3-3.17,8.5-5.72,12.13-2.17,3.08-18.37,15.58-18.37,15.58l-2.21-4.72,15.87-16.51c6.54-18.39,6.59-18.32,8.35-21.52C443.64,418.37,441.72,435.93,442.68,438.92Z" fill="#ff4778"/>
      <path d="M451.94,556.8c-2.37,2-2.86,1.79-3.17,3.16s3.49.56,5.29-.11a5.82,5.82,0,0,0,2.21-1.53c.75-1,1.5-.49,2.9-1s1.58-1.85,1-4-4.7,0-5.59.65A26.91,26.91,0,0,0,451.94,556.8Z" fill="#001370"/>
      <path d="M455.53,553.53c-.4.62,0,.89.53,1s2.52-.47,2.91-1.33,1-27.27,0-37.28.36-40.21.72-47.61-12.61-9.08-12.88,3.87,2.67,42.06,4.38,48.28,4.38,27,4.66,29.41C456,551,456.12,552.6,455.53,553.53Z" fill="#ebb0b0"/>
      <path d="M466,558c-.08.79-.14,1.69,1.08,1.93a2,2,0,0,0,2-2.61c-.67-2.25,1.85-26.81.83-36.82s-3-40.21-2.66-47.61-12.84-9.08-13.11,3.87,6.09,43.16,7.83,49.38,3.69,25.28,4,27.73A26,26,0,0,1,466,558Z" fill="#ebb0b0"/>
      <path d="M439.7,462.12c-1.27,34.65,2.82,40.09,4.65,49.76.75,4,12.86,10.15,19.27,9.48s7.46-2.9,7.22-6.56c-.58-8.73-.75-12.36-1.91-50.35Z" fill="#001370"/>
      <path d="M464.89,470c0,6.38-2.8,15.39-16.13,9.76-10.16-4.29-11.83-7.76-11.83-16.12,0-15.77.81-41.19,7.71-45,6.22-3.43,20.14,2.84,25,13.66,4.25,9.41,1.66,33.8,1.4,42S464.89,470,464.89,470Z" fill="#fff"/>
      <path d="M447.06,488.85s.31-5.43-2.4-9.05l-13.37,1.58Z" fill="#d8dae5"/>
      <path d="M463.66,426.08a8.3,8.3,0,0,0-1.27-1.28h0l-.31-.26c-.91-.81-3.59-3.63-5-9.66,0,0-5-.66-5.68,1.61a4.86,4.86,0,0,1-2.73,2.56,5.8,5.8,0,0,0-2.07.79h0c-1.55,1-2.29,2.78-1.93,5.44.77,5.76,12.17,11.27,16.54,8.94S465.09,428,463.66,426.08Z" fill="#ebb0b0"/>
      <path d="M461.19,434.23c4.37-2.32,3.9-6.19,2.47-8.15a8.3,8.3,0,0,0-1.27-1.28h0l-.31-.26a15.87,15.87,0,0,1-3.89-6.08h0s-1.41,3.29-3.57,3.73c-1.91.4-5.62-.11-6-3.13a5.87,5.87,0,0,0-2,.78h0c-1.55,1-2.29,2.78-1.93,5.44C445.42,431.05,456.82,436.56,461.19,434.23Z" fill="#ff4778"/>
      <path d="M444.86,409.65c-1.05,8.91,1.87,11.07,4.61,12.09s9-2.6,7.72-12.09S445.72,402.44,444.86,409.65Z" fill="#ebb0b0"/>
      <path d="M444.66,412.07c-.6,0-1.78-.56-1.41-.81s.07-.21.26-.89-2.11-.48-1.67-.74-.25-.25-.37-1.35-.44-1.82.19-1.74.91-1.19,1-1.48-1.22-.44-1-1.32.88-1.16,1.16-1.89.66-1.54.66-1.54a2.56,2.56,0,0,0,1.35-1.67c.51-1.39,1.77-3.09,2.4-3.09s1.64,1.39,3.09,1.2,1.43-2.43,2.33-1.83.47,1.33,1.93,1.14,2.2-1.74,2.67-1.24.69,1.56,1.32,1.25.85-.46,1.07-.2-.37.67,0,1,.06.38.51.82,0-.48.95-.21a9.19,9.19,0,0,1,3.18,1.62c.29.42,1.29.58,1,1.56s.17,3.75,1.17,4c3.76.88.59,2.52,0,2.9s.06,3.48,0,4.05.31,1.65-.4,1.41-.88.92-.88.92-.13,1-.13,1.14.19-.16-.81.09-2-.25-1.83.69,1.26,1.14.76,1.77a2.24,2.24,0,0,1-2.28.42c1.18.62-.52,1.22-2.51-.22-.56-.41-.17-.41-.56-.41s-1.18-1.45-1.18-1.45l.07-3.3-4.71-6.2h-3.69L445.63,408a7.05,7.05,0,0,0-.77,1.69C444.64,412.51,444.66,412.07,444.66,412.07Z" fill="#ff4778"/>
      <path d="M456.1,408.52c-3.26-5.34-7.11-6.83-10.56-1.24l-.68,2.37c2.5-3.67,6.05-2.23,8.91,2.3a1.3,1.3,0,0,0,1.36.57,1.1,1.1,0,0,1,1.45.79,2.64,2.64,0,0,1-.29,1.54,2,2,0,0,0,.06,1.79l.14.25S458.45,412.38,456.1,408.52Z" fill="#001370"/>
      <path d="M447.12,476.43c-1.36,1.24-2.14,3.6-4.51,4.13s-3.71.91-2.74,2.58,6.33.54,7.46-.21a30.6,30.6,0,0,0,3.43-3.25l1.11-4.09-3.95.08Z" fill="#ebb0b0"/>
      <path d="M469,435.75c1.78,4,1.1,6.2,1.1,9.34s-3.27,17-5.51,20-13.82,14.58-13.82,14.58.63-1.3-1.49-3.2a1.45,1.45,0,0,0-1.92-.27l11.87-17.16s3.2-19.41,4.38-23.3S468.51,434.68,469,435.75Z" fill="#ff4778"/>
      <path d="M447.33,476.36c-1.07.33-2.51-.47-3.48,0s.55,1.45,1.84,1.51S447.33,476.36,447.33,476.36Z" fill="#ebb0b0"/>
      <path d="M416,467.81c-3.61,3-4.89,12.35-1.9,21.79C418,501.94,409,505.15,409,505.15l28.87,15.42a14.39,14.39,0,0,0,4-14c-2.13-8.73-.45-20.32,0-23.1a6.46,6.46,0,0,1,2.48-3.83s-16.12-7.34-24.25-11.59C417.92,467,417.19,466.83,416,467.81Z" fill="#fff"/>
    </g>
    <g>
      <polygon points="859.66 382.84 861.34 384.62 864.5 385.45 864.5 382.61 863.19 380.02 859.76 380.38 859.66 382.84" fill="#fff"/>
      <polygon points="863.74 399.67 865.42 401.44 868.58 402.28 868.58 399.44 867.27 396.85 863.84 397.2 863.74 399.67" fill="#fff"/>
      <path d="M801.43,369.75c19.38,13.09,33.35-16.12,39-19.93l19.27,33a4.91,4.91,0,0,1,3.53-2.82s-12.78-34.4-16.31-39.19-5.62-4.88-11.62-3.41S818.89,353.6,812,355.23c-3.46.81-7.39-2.79-11.69,4.82S801.43,369.75,801.43,369.75Z" fill="#001370"/>
      <path d="M775.09,337.83l5-2.91L763,337.41l-.88-4.3s21.38-7.48,26.82-6.69c2.5.37,1.75,3.91.52,7.24-.89,2.38-5.3,9.7-5.3,9.7Z" fill="#7a5068"/>
      <path d="M797,376.33c12.76,6.61,32.11-5.2,37.73-9l29,32.35a4.91,4.91,0,0,1,3.53-2.82s-22.55-33.74-26.08-38.52-5.62-4.88-11.62-3.41-18,4.24-18,4.24a17.57,17.57,0,0,0-12.5,8.47C794.73,375.24,797,376.33,797,376.33Z" fill="#001370"/>
      <path d="M751.54,351.62l-5.07,2.53s1.52-3.31,6.13-7.83a69.72,69.72,0,0,0,5.67-5.92l-3.67-2.47s-13,11.3-16.23,16.48-3.79,8.79,2.7,7.93a133.15,133.15,0,0,1,13.74-.94l7.71-4.78-4.29-6.3-5.09.36Z" fill="#7a5068"/>
      <g>
        <path d="M808.23,352.66c-4.47-2.46-3.28,2.52-11.35-2-5.74-3.23-9.15-5.74-12.49-7.26l-.24-.11a7.21,7.21,0,0,0-3-4.46c-4-2.82-6.27-.92-6.27-.92l-7.71,3.76-.47.14a16,16,0,0,0-6.58,3.77h0c-5.75,4.63-8.13,5.87-8.55,6.07.35-.14,2-.6,3.87,2.35,2.16,3.34.75,5.71-.6,7.43a27.15,27.15,0,0,1,14.75,4.89c10.85,7.44,18.29,12.57,22.43,13.73,0,0,5,0,7.83-8,1.87-5.42,3.53-13.43,12.14-16.77C812,355.23,809.45,353.34,808.23,352.66Z" fill="#ff4778"/>
        <path d="M751.54,351.62l-.07,0Z" fill="#fff"/>
      </g>
      <path d="M758.88,346.61c3.17-1.52,9.88-1,12.76-2.42s-2.43-3.46-2.43-3.46-3.69,1.54-4.24-.4-5.53,2.14-5.53,2.14a7.74,7.74,0,0,1,.25,2.69A3.49,3.49,0,0,1,758.88,346.61Z" fill="#7a5068"/>
      <path d="M759.44,342.38c4.19-1.45,6.56-2.32,6.21-3.71-.28-1.16-2.49-9.58-6.37-10.74s-6.26,7.34-4.58,10.47A8.57,8.57,0,0,0,759.44,342.38Z" fill="#7a5068"/>
      <path d="M759.62,343.25c.66,7.37-6.2-3.21-8.92-2.41l-6.16,4.79s-6.56,4.85-9.43,5.42c-7.89,1.54-10.36-4.79-10.52-7.29-.74-11.17,11.28-.25,13.24-8.84,1.84-8.05,7.08-2.42,9.21-6.28,2.77-5,4.9,1.52,7.68-.36s7.3-3.46,9.24,2.22a23.2,23.2,0,0,1,.28,3.8s-2.39-4.95-4.17-4.74-3.58,5.35-3,7.65c0,0-1.67,0-1,1.33a1.6,1.6,0,0,0,1.95.92A13,13,0,0,1,759.62,343.25Z" fill="#001370"/>
      <path d="M865.25,400.57c-.6,1.62-1,3.13,2,4.24.74.27,2.59,1.42,5.1,2.44s4.28-.9,2-2.1a12.86,12.86,0,0,1-4-3.71,4.21,4.21,0,0,1-.51-1.77c.25-1.22-1.55-.74-2,.47l-.17.63s-1.72,1-2,.67S865.32,400.37,865.25,400.57Z" fill="#001370"/>
      <path d="M861.17,383.74c-.6,1.63-1,3.13,2,4.25.75.27,2.59,1.42,5.1,2.44s4.28-.91,2-2.1a12.86,12.86,0,0,1-4-3.71,4.26,4.26,0,0,1-.51-1.78c.25-1.22-1.55-.74-2,.47l-.16.64s-1.73,1-2,.67S861.24,383.54,861.17,383.74Z" fill="#001370"/>
    </g>
    <polygon points="469.66 157.29 469.66 97.64 394.47 54.22 394.47 112.25 462.3 151.41 469.66 179.91 469.66 157.29" fill="#f1f2f7"/>
    <polygon points="806.69 274.95 806.69 215.3 881.88 171.89 881.88 229.92 814.06 269.08 806.69 297.57 806.69 274.95" fill="#f1f2f7"/>
    <polygon points="256.5 572.03 256.5 513.58 181.31 556.99 181.31 615.02 249.13 575.86 256.5 594.65 256.5 572.03" fill="#f1f2f7"/>
    <polygon points="765.29 635.72 765.29 576.06 840.48 619.47 840.48 677.5 773.39 638.77 765.29 658.34 765.29 635.72" fill="#f1f2f7"/>
    <g>
      <path d="M481.82,249.52s19.64,21.15,37.06,30.29a6.73,6.73,0,0,1,3.47,2.83c.64,1,3,2.38,2.33.46s.58-1.42,1.9-.65l2.71,1.56s1-1.56-3.11-3.93-4.69-2.05-6-3.2c-1-.87-15.76-14.69-15.76-14.69l-16.72-18.41S482.08,245.91,481.82,249.52Z" fill="#ebb0b0"/>
      <path d="M490,246.32s-3.73-3.07-3.08-7.2.9-8.92.9-8.92-6,14.6-7.07,18.19l2.42,2.47C482.53,249.72,488.24,244.3,490,246.32Z" fill="#ff4778"/>
      <path d="M484.25,322.15l-.55,3a10.63,10.63,0,0,1-.92,2.36,1.32,1.32,0,0,0-.3,1l4.1,4,1.26-1.89s-1.22-1.94-1.12-2.58a21.36,21.36,0,0,1,.62-2.15l1.14-3.46Z" fill="#fff"/>
      <path d="M485.31,334.92c-2.61-1.22-5.05-3.47-3.84-5.38.44-.68,1.42-2.16,1.42-2.16.67,2.17,4.62,3.55,4.95,3.28,0,0,9.65,6.35,9.39,7.63a2.3,2.3,0,0,1-.26.52C496.13,339.84,487.66,336,485.31,334.92Z" fill="#001370"/>
      <path d="M476.88,344.23s-.82,3.85-1.08,4.55,7.54,4.87,5.36-2.34a16.59,16.59,0,0,1,0-3.77Z" fill="#fff"/>
      <path d="M479.44,353c-2.65-.93-4.67-2.2-4.05-4.37a25.35,25.35,0,0,1,1.06-2.44c.47,1.65,4.78,3,5.09,2.19,0,0,10.36,5.73,10.52,7.07a2.59,2.59,0,0,1-.1.6C491.43,357.31,482.07,353.91,479.44,353Z" fill="#001370"/>
      <path d="M464.9,259.49c18,4.18,43.64,14.22,43.64,24.74,0,7-20.75,42.5-20.75,42.5s-3.67-.34-4.54-1.71c0-3.23,16.79-36,11.81-38.71-9.7-5.35-32.81-7.54-32.81-7.54Z" fill="url(#_ÂÁ_Ï_ÌÌ_È_ËÂÌÚ_34)"/>
      <path d="M447.27,272.15c.06,11.42,30.89,22.13,31.68,26.61,1.3,7.3-2.07,45.47-2.07,45.47.63,1.28,4.26,1.62,4.26.41,0,0,10-48.39,9.09-51.53-1.48-5.32-14.85-13.82-19.74-21.11-1.63-2.44-6.21-9.75-6.21-9.75S447.16,253.45,447.27,272.15Z" fill="#1a5dff"/>
      <path d="M451.31,278.77s-10.75.88-8-21c2.27-18.17,10-25.3,26.37-34.39,15.29-8.51,19,3.21,18,9.89-.1.69-4.81,8.6-7.95,18.2-1.57,4.8-3.24,10.31-2.76,15,.55,5.44-22.69,11.54-22.69,11.54l-1.59-10.88Z" fill="#ff4778"/>
      <path d="M501.28,227.71c-4.54,8.8-6,8.86-8,8.39s-1.93-1.74-4.05-2.57-2.79,1.11-5,1.77c-1.56.45-1.82-4.24-.24-6.22s2.09-4.14,5.48-3,4.1-1,8.31-1S501.28,227.71,501.28,227.71Z" fill="#ebb0b0"/>
      <path d="M502,222.87c3.7,4.48-.51,5.37-2.38,5a17.07,17.07,0,0,0-6,.46c-2.42-3.5-4.17.54-3.29,1.3,1.33,1.14-4.79-1.3-7,3.82s-6.59,3.27-8.2-1.46c-1.45-4.29-3.32-9.23-7.56-7.16s-12.17,7.78-15.32,11.53c-5.17,6.15-7.75,14.76-7.75,14.76-.55-3.28-4.52,1.21-5.84-3.22-2-6.83,3.76-15.32,11.35-16.43,6.44-.94,7.89-4.12,11.58-11.17s16.5,1.09,21-.62C496,214.56,496.9,216.73,502,222.87Z" fill="#001370"/>
      <path d="M465.72,248.39c4.15,13.45,5.08,19.57,17.59,23.28s18.55,2,21.11,5,1.73.14,1.51-.36-2-3.91-3.64-5a6,6,0,0,0-4.17-1.09c-1.7.07-18.08-1.86-20.27-8.9-1.53-4.93-3.5-15.27-3.5-15.27l-5.71-2.3Z" fill="#ebb0b0"/>
      <path d="M471.88,226.7c2.47,5.12,2.47,19.38,2.47,19.38s-7.18-1.2-8.63,2.31c0,0-3.33-7.83-2.73-12.2S470.47,223.79,471.88,226.7Z" fill="#ff4778"/>
    </g>
    <g>
      <path d="M520.49,293.08c-.23-2.49.88-3.84.77-5.12s-.88.41-1.17,1.05-.27-2.25-1.26-3.72-3.31.33-3.07,2.84a16.89,16.89,0,0,0,1,4.63,7.92,7.92,0,0,1,.38,1.84Z" fill="#7a5068"/>
      <path d="M580.52,355.38c-.26,5.87-3.31,48.45-3.38,53.32-.12,7.95,7.49,44.67,7.49,44.67-.45,1.47-3,3-4.68,1.53,0,0-16.54-45.19-16.17-48.66.65-5.88-3.18-46.08-3.18-46.08l5.92-8.33Z" fill="#001370"/>
      <path d="M540.87,281.93l-2-3s-2.62-4.55-5.7-2.75-2.13,6.95.05,6.16c2.76-1,3.82.7,3.82.7l1.18,1.94C540.72,289.08,540.87,281.93,540.87,281.93Z" fill="#7a5068"/>
      <path d="M549.27,355.38c-5,17.3,2.89,43.73,4.12,63,.29,4.6,7.66,38.11,7.66,38.11s3.63,2.79,4.21-2.42c-1.44-7.4-.87-29.34-.32-35.76,1.83-21.63,7.88-57.14,7.88-57.14Z" fill="#001370"/>
      <path d="M579.35,349.71c-8-11.83-3-8.11-6.74-24.81-4.94-21.92-14.5-15.65-14.5-15.65-2.52,2.24.59,1-4.32,5-1.45.62-4.34,2.28-6.47,2.54-4.81.6-8.59.87-4.63,9.55,2.41,5.29,2.63,13.44,1.54,22.64-1.79,15.13.15,15.13,3.67,16.88C559.25,371.5,587,361.05,579.35,349.71Z" fill="#fff"/>
      <path d="M547.32,316.78c2.17,4.31,3.17,46.53-3,15.47,0,0-20.28,1.52-21.79-3.5-2.08-6.86-6.08-34.77-6.08-34.77l4.55-1.22s8.52,25.07,10.16,27.1S547.32,316.78,547.32,316.78Z" fill="#001370"/>
      <path d="M556.87,313.54c4.61-3.81,13,5.28,16.2,13.48,0,0-.29-12.17-3.68-17.18s-15.85-25.16-16.79-26.47-11.73-2.4-11.73-2.4l-4.14,3.82,10.87,7.58Z" fill="#001370"/>
      <path d="M559.1,295.28c-9.76,4.17-9.48,6.74-9.14,8.85s1.72,2.19,2.44,4.52,0,3.77-.86,6.11c-.61,1.63,3,1.4,5.21-.13s3-1.8,2-5.51,2.92-4.43,3.28-8.91S559.1,295.28,559.1,295.28Z" fill="#7a5068"/>
      <path d="M558,294.67c-2.42.64-.8,7.87-1.19,8.1,0,0,2.18,0,1.09,1.6s-2.19.43-2.19.43-.27,2,1.13,2.81,1.79.6,1.79.6a7.8,7.8,0,0,0,6.07-2.43C567.75,302.43,563.37,293.24,558,294.67Z" fill="#ff4778"/>
      <path d="M564.48,302.26c-1,.28-.7,2.22-.3,2.53s3.67,1.95,3.66,5.47-2.54,3.08-2.77,8.7,14.82,9.6,13.19,14.28-7.59,1.56-8.42,6.09c-.37,2,.38,4.44,9,2.57s9.52-10,3.59-17.86-2.73-11.94-4.21-15.8S569.44,300.93,564.48,302.26Z" fill="#ff4778"/>
      <path d="M529.63,266.58a9.14,9.14,0,1,0,9.14,9.14A9.14,9.14,0,0,0,529.63,266.58Zm0,16.13a7,7,0,1,1,7-7A7,7,0,0,1,529.63,282.71Z" fill="#ff4778"/>
      <path d="M539.68,280.13c-.6-2.18-1.14-5.3-1.62-5.25-2.07.19,0,4.16-.52,5.41s.84.5.84.5Z" fill="#7a5068"/>
      <path d="M565.13,453.13c-1-.72-3.23-.68-5.41,2.3-1.57,2.15-4.35,9-7,10.62-1.82,1.1-2.76,2.86,0,2.81,3.29-.07,14.26-10.58,13.83-12.26a2.68,2.68,0,0,0-.07-.27C566.07,454.74,565.69,453.52,565.13,453.13Z" fill="#4f5fe4"/>
      <path d="M552.73,468.86a6.26,6.26,0,0,0,5-2c3.51-3.4,7.81-7.23,8.14-7.76.6-.93,1-1.72.64-2.47s-2.28-.73-3.89.88c-.51.5-4.09,6.16-7.23,9.82A4.3,4.3,0,0,1,552.73,468.86Z" fill="#2c369e"/>
      <path d="M584.23,452.75c-1.05-.42-2.41-.22-4,1.59-1.76,2-2.31,9.77-5.5,11-2.21.87-3.1,2.66.56,3.15,4.37.58,11.66-10.13,10.76-12.1C586,456.32,585.62,453.3,584.23,452.75Z" fill="#4f5fe4"/>
      <path d="M575.3,468.53a7.68,7.68,0,0,0,5-1.28,18,18,0,0,0,4.73-6.56c.57-1.61,1.55-3.1,1.07-4.26s-2-1.51-3.65.2c-1.38,1.48-.87,6.72-4.33,10.19A6.35,6.35,0,0,1,575.3,468.53Z" fill="#2c369e"/>
    </g>
    <polygon points="181.31 556.99 181.31 571.92 256.5 528.51 256.5 513.58 181.31 556.99" fill="#d8dae5"/>
    <polygon points="806.69 215.3 806.69 230.23 881.88 186.82 881.88 171.89 806.69 215.3" fill="#d8dae5"/>
    <polygon points="840.48 619.47 840.48 634.41 765.29 591 765.29 576.06 840.48 619.47" fill="#d8dae5"/>
    <polygon points="469.66 97.64 469.66 112.57 394.47 69.16 394.47 54.22 469.66 97.64" fill="#d8dae5"/>
    <polygon points="413.79 85.08 413.79 118.32 406.16 113.91 406.16 80.67 413.79 85.08" fill="#ff4778"/>
    <polygon points="425.78 112.76 425.78 125.25 418.15 120.84 418.15 108.35 425.78 112.76" fill="#001370"/>
    <polygon points="450.49 132.27 450.49 139.51 442.86 135.1 442.86 127.86 450.49 132.27" fill="#001370"/>
    <polygon points="437.95 107.1 437.95 132.27 430.32 127.86 430.32 102.69 437.95 107.1" fill="#fff"/>
    <g>
      <g>
        <path d="M808.16,648.43c-4.92-2.73-9-9.59-9.07-15.33a9.44,9.44,0,0,1,.44-3.15l-4.83-4.53a14.75,14.75,0,0,0-.67,4.87c.15,9,6.52,19.75,14.23,24,4.49,2.5,8.44,2.24,10.93-.18l-4-5.88C813.6,649.85,811.06,650,808.16,648.43Z" fill="#fff"/>
        <path d="M794.7,625.42l4.83,4.53c1.15-3.37,4.4-4.44,8.29-2.28a15.92,15.92,0,0,1,4.45,3.83l2.24-4a24.79,24.79,0,0,0-6.79-5.78C801.6,618.37,796.48,620.08,794.7,625.42Z" fill="#001370"/>
        <path d="M815.19,648.26l4,5.88a10.16,10.16,0,0,0,2.71-6.68l-5-3.43A6.52,6.52,0,0,1,815.19,648.26Z" fill="#ff4778"/>
      </g>
      <path d="M814.51,627.55l-2.24,4a22,22,0,0,1,2.44,3.68l3.79-1.68A33.25,33.25,0,0,0,814.51,627.55Z" fill="#001370"/>
      <path d="M816.86,644l5,3.43c0-.53.06-1.08.05-1.66a28.1,28.1,0,0,0-3.45-12.3l-3.79,1.68a18,18,0,0,1,2.18,7.81A8.84,8.84,0,0,1,816.86,644Z" fill="#001370"/>
    </g>
    <polygon points="785.21 615.48 780.94 613.01 780.94 608.09 785.21 610.55 785.21 615.48" fill="#001370"/>
    <polygon points="785.21 622.86 780.94 620.4 780.94 615.48 785.21 617.94 785.21 622.86" fill="#f1f2f7"/>
    <polygon points="785.21 630.24 780.94 627.78 780.94 622.86 785.21 625.32 785.21 630.24" fill="#ff4778"/>
    <polygon points="193.15 573.69 193.15 598.59 245.13 568.58 245.13 542.75 193.15 573.69" fill="#fff"/>
    <polygon points="202.23 579.19 194.65 583.57 194.65 574.81 202.23 570.43 202.23 579.19" fill="#ff4778"/>
    <polygon points="243.68 555.26 236.09 559.64 236.09 550.88 243.68 546.51 243.68 555.26" fill="#001370"/>
    <polygon points="243.68 566.75 236.09 571.13 236.09 562.38 243.68 558 243.68 566.75" fill="#001370"/>
    <g>
      <path d="M871.64,229.59a2.23,2.23,0,0,0,1-1.72c0-.63-.45-.89-1-.57-2.77,1.6-3.64.21-4.85-1.71-1.39-2.23-3.13-5-8.68-1.8-4.16,2.4-6.28,1.13-8.74-.35s-5.41-3.24-10.87-.08c-4.12,2.38-6,5.72-7.86,9-2.22,3.89-4.51,7.92-11.25,11.81a2.2,2.2,0,0,0-1,1.72c0,.64.44.89,1,.58,7.58-4.38,10.4-9.34,12.67-13.33,1.76-3.1,3.16-5.55,6.44-7.45,4.63-2.67,7-1.27,9.45.22s5.16,3.09,10.16.21c4.35-2.52,5.55-.61,6.93,1.59C866.27,229.65,867.67,231.88,871.64,229.59Z" fill="#001370"/>
      <path d="M844.42,238.54h0c4.85-2.8,7.77-8.06,11.16-14.15,3.1-5.58,6.62-11.91,12.48-17.74a2,2,0,0,0,.6-1.81c-.19-.49-.76-.47-1.27,0-6.31,6.27-10,12.91-13.26,18.77s-5.72,10.29-9.71,12.6h0c-6.38,3.68-9.19,1-12.16-1.85-2.71-2.58-5.5-5.25-11-2.94a2.15,2.15,0,0,0-1.12,1.62c-.07.67.31,1,.86.8,4.67-2,7.1.36,9.67,2.82C833.66,239.56,837.05,242.8,844.42,238.54Z" fill="#ff4778"/>
    </g>
    <path d="M853.29,471.37h60l87.87-35.26a323.74,323.74,0,0,0-27.87-19.92Z" fill="#000c47" opacity="0.15"/>
  </g>
</svg>
