<svg id="Layer1" xmlns="http://www.w3.org/2000/svg" xmlns:xlink="http://www.w3.org/1999/xlink" width="1300" height="1000" viewBox="0 0 1300 1000">
  <defs>
    <linearGradient id="Безымянный_градиент_74" data-name="Безымянный градиент 74" x1="1049.18" y1="530.46" x2="927.98" y2="532.07" gradientUnits="userSpaceOnUse">
      <stop offset="0" stop-color="#a8daff"/>
      <stop offset="1" stop-color="#598aff"/>
    </linearGradient>
    <linearGradient id="Безымянный_градиент_55" data-name="Безымянный градиент 55" x1="920.01" y1="538.21" x2="939.46" y2="623.54" gradientUnits="userSpaceOnUse">
      <stop offset="0" stop-color="#343e8a"/>
      <stop offset="1" stop-color="#598aff"/>
    </linearGradient>
    <linearGradient id="Безымянный_градиент_55-2" x1="937.29" y1="546.37" x2="957.18" y2="633.63" xlink:href="#Безымянный_градиент_55"/>
    <linearGradient id="Безымянный_градиент_3" data-name="Безымянный градиент 3" x1="-3667.95" y1="644.91" x2="-3676.3" y2="648.49" gradientTransform="matrix(-1, 0, 0, 1, -2649.27, 0)" gradientUnits="userSpaceOnUse">
      <stop offset="0" stop-color="#04007e"/>
      <stop offset="1" stop-color="#bb1aff"/>
    </linearGradient>
    <linearGradient id="Безымянный_градиент_3-2" x1="-3669.61" y1="645.06" x2="-3676.29" y2="647.92" xlink:href="#Безымянный_градиент_3"/>
    <linearGradient id="Безымянный_градиент_3-3" x1="-3614.95" y1="472.42" x2="-3622.58" y2="475.6" xlink:href="#Безымянный_градиент_3"/>
    <linearGradient id="Безымянный_градиент_3-4" x1="428.2" y1="848.76" x2="428.43" y2="850.58" gradientTransform="matrix(1, 0, 0, 1, 0, 0)" xlink:href="#Безымянный_градиент_3"/>
    <linearGradient id="Безымянный_градиент_3-5" x1="399.68" y1="843.27" x2="399.89" y2="844.95" gradientTransform="matrix(1, 0, 0, 1, 0, 0)" xlink:href="#Безымянный_градиент_3"/>
    <linearGradient id="Безымянный_градиент_40" data-name="Безымянный градиент 40" x1="572.89" y1="807.02" x2="519.34" y2="785.12" gradientUnits="userSpaceOnUse">
      <stop offset="0" stop-color="#04007e"/>
      <stop offset="1" stop-color="#1a5dff"/>
    </linearGradient>
    <linearGradient id="Безымянный_градиент_34" data-name="Безымянный градиент 34" x1="555.39" y1="306.97" x2="517.53" y2="252.09" gradientUnits="userSpaceOnUse">
      <stop offset="0" stop-color="#00a9ff"/>
      <stop offset="1" stop-color="#1a5dff"/>
    </linearGradient>
    <linearGradient id="Безымянный_градиент_50" data-name="Безымянный градиент 50" x1="386.26" y1="457.68" x2="452.88" y2="457.68" gradientUnits="userSpaceOnUse">
      <stop offset="0" stop-color="#d8dae5"/>
      <stop offset="1" stop-color="#f6f7fb"/>
    </linearGradient>
    <linearGradient id="Безымянный_градиент_50-2" x1="363.15" y1="369.68" x2="382.52" y2="370.66" xlink:href="#Безымянный_градиент_50"/>
    <linearGradient id="Безымянный_градиент_17" data-name="Безымянный градиент 17" x1="-4178.79" y1="210.99" x2="-4159.22" y2="117.85" gradientTransform="matrix(-1, 0, 0, 1, -3844, 0)" gradientUnits="userSpaceOnUse">
      <stop offset="0" stop-color="#1a5dff"/>
      <stop offset="1" stop-color="#bb1aff"/>
    </linearGradient>
    <linearGradient id="Безымянный_градиент_50-3" x1="379.29" y1="354.88" x2="413.27" y2="354.28" xlink:href="#Безымянный_градиент_50"/>
    <linearGradient id="Безымянный_градиент_46" data-name="Безымянный градиент 46" x1="636.51" y1="220.47" x2="641.08" y2="220.47" gradientUnits="userSpaceOnUse">
      <stop offset="0" stop-color="#fff"/>
      <stop offset="1" stop-color="#efeff3"/>
    </linearGradient>
    <linearGradient id="Безымянный_градиент_50-4" x1="245.72" y1="506.42" x2="312.79" y2="506.42" xlink:href="#Безымянный_градиент_50"/>
  </defs>
  <g>
    <g>
      <polygon points="580.42 715.97 497.79 668.25 415.14 715.97 497.78 763.68 580.42 715.97" fill="#f1f2f7"/>
      <polygon points="497.82 350.69 415.18 302.98 415.18 304.77 497.82 352.48 497.82 350.69" fill="#f1f2f7"/>
      <polygon points="497.82 350.69 580.45 302.98 580.45 304.77 497.82 352.48 497.82 350.69" fill="#d8dae5"/>
      <g>
        <polygon points="589.52 403.64 506.88 355.93 506.88 357.71 589.52 405.43 589.52 403.64" fill="#f1f2f7"/>
        <polygon points="589.52 403.64 672.15 355.93 672.15 357.71 589.52 405.43 589.52 403.64" fill="#d8dae5"/>
      </g>
      <g>
        <polygon points="681.22 456.58 598.58 408.87 598.58 410.66 681.22 458.37 681.22 456.58" fill="#f1f2f7"/>
        <polygon points="681.22 456.58 763.85 408.87 763.85 410.66 681.22 458.37 681.22 456.58" fill="#d8dae5"/>
      </g>
      <g>
        <polygon points="772.92 509.53 690.28 461.82 690.28 463.61 772.92 511.31 772.92 509.53" fill="#f1f2f7"/>
        <polygon points="772.92 509.53 855.55 461.82 855.55 463.61 772.92 511.31 772.92 509.53" fill="#d8dae5"/>
      </g>
      <g>
        <polygon points="864.62 562.47 781.99 514.76 781.99 516.55 864.62 564.26 864.62 562.47" fill="#f1f2f7"/>
        <polygon points="864.62 562.47 947.25 514.76 947.25 516.55 864.62 564.26 864.62 562.47" fill="#d8dae5"/>
      </g>
      <g>
        <polygon points="956.32 615.42 873.69 567.71 873.69 569.5 956.32 617.21 956.32 615.42" fill="#f1f2f7"/>
        <polygon points="956.32 615.42 1038.95 567.71 1038.95 569.5 956.32 617.21 956.32 615.42" fill="#d8dae5"/>
      </g>
      <g>
        <polygon points="1048.02 668.36 965.39 620.65 965.39 622.44 1048.02 670.15 1048.02 668.36" fill="#f1f2f7"/>
        <polygon points="1048.02 668.36 1130.65 620.65 1130.65 622.44 1048.02 670.15 1048.02 668.36" fill="#d8dae5"/>
      </g>
      <polygon points="406.11 403.64 323.47 355.93 323.47 357.71 406.11 405.43 406.11 403.64" fill="#f1f2f7"/>
      <polygon points="406.11 403.64 488.74 355.93 488.74 357.71 406.11 405.43 406.11 403.64" fill="#d8dae5"/>
      <g>
        <polygon points="497.81 456.58 415.17 408.87 415.17 410.66 497.81 458.37 497.81 456.58" fill="#f1f2f7"/>
        <polygon points="497.81 456.58 580.44 408.87 580.44 410.66 497.81 458.37 497.81 456.58" fill="#d8dae5"/>
      </g>
      <g>
        <polygon points="589.51 509.53 506.87 461.82 506.87 463.61 589.51 511.32 589.51 509.53" fill="#f1f2f7"/>
        <polygon points="589.51 509.53 672.14 461.82 672.14 463.61 589.51 511.32 589.51 509.53" fill="#d8dae5"/>
      </g>
      <g>
        <polygon points="681.21 562.47 598.57 514.76 598.57 516.55 681.21 564.26 681.21 562.47" fill="#f1f2f7"/>
        <polygon points="681.21 562.47 763.84 514.76 763.84 516.55 681.21 564.26 681.21 562.47" fill="#d8dae5"/>
      </g>
      <g>
        <polygon points="772.91 615.42 690.27 567.71 690.27 569.5 772.91 617.21 772.91 615.42" fill="#f1f2f7"/>
        <polygon points="772.91 615.42 855.54 567.71 855.54 569.5 772.91 617.21 772.91 615.42" fill="#d8dae5"/>
      </g>
      <g>
        <polygon points="864.61 668.36 781.98 620.65 781.98 622.44 864.61 670.15 864.61 668.36" fill="#f1f2f7"/>
        <polygon points="864.61 668.36 947.24 620.65 947.24 622.44 864.61 670.15 864.61 668.36" fill="#d8dae5"/>
      </g>
      <g>
        <polygon points="956.31 721.31 873.68 673.6 873.68 675.38 956.31 723.1 956.31 721.31" fill="#f1f2f7"/>
        <polygon points="956.31 721.31 1038.94 673.6 1038.94 675.38 956.31 723.1 956.31 721.31" fill="#d8dae5"/>
      </g>
      <polygon points="314.4 456.58 231.76 408.87 231.76 410.66 314.4 458.37 314.4 456.58" fill="#f1f2f7"/>
      <polygon points="314.4 456.58 397.03 408.87 397.03 410.66 314.4 458.37 314.4 456.58" fill="#d8dae5"/>
      <g>
        <polygon points="406.1 509.53 323.46 461.82 323.46 463.61 406.1 511.32 406.1 509.53" fill="#f1f2f7"/>
        <polygon points="406.1 509.53 488.73 461.82 488.73 463.61 406.1 511.32 406.1 509.53" fill="#d8dae5"/>
      </g>
      <g>
        <polygon points="497.8 562.48 415.16 514.76 415.16 516.55 497.8 564.26 497.8 562.48" fill="#f1f2f7"/>
        <polygon points="497.8 562.48 580.43 514.76 580.43 516.55 497.8 564.26 497.8 562.48" fill="#d8dae5"/>
      </g>
      <g>
        <polygon points="589.5 615.42 506.86 567.71 506.86 569.5 589.5 617.21 589.5 615.42" fill="#f1f2f7"/>
        <polygon points="589.5 615.42 672.13 567.71 672.13 569.5 589.5 617.21 589.5 615.42" fill="#d8dae5"/>
      </g>
      <g>
        <polygon points="681.2 668.37 598.57 620.65 598.57 622.44 681.2 670.15 681.2 668.37" fill="#f1f2f7"/>
        <polygon points="681.2 668.37 763.83 620.65 763.83 622.44 681.2 670.15 681.2 668.37" fill="#d8dae5"/>
      </g>
      <g>
        <polygon points="772.9 721.31 690.26 673.6 690.26 675.39 772.9 723.1 772.9 721.31" fill="#f1f2f7"/>
        <polygon points="772.9 721.31 855.53 673.6 855.53 675.39 772.9 723.1 772.9 721.31" fill="#d8dae5"/>
      </g>
      <g>
        <polygon points="864.6 774.25 781.97 726.54 781.97 728.33 864.6 776.04 864.6 774.25" fill="#f1f2f7"/>
        <polygon points="864.6 774.25 947.23 726.54 947.23 728.33 864.6 776.04 864.6 774.25" fill="#d8dae5"/>
      </g>
      <polygon points="222.69 509.53 140.05 461.82 140.05 463.61 222.69 511.32 222.69 509.53" fill="#ff3456"/>
      <polygon points="222.69 509.53 305.32 461.82 305.32 463.61 222.69 511.32 222.69 509.53" fill="#d5b1e3"/>
      <g>
        <polygon points="314.39 562.48 231.75 514.76 231.75 516.55 314.39 564.26 314.39 562.48" fill="#f1f2f7"/>
        <polygon points="314.39 562.48 397.02 514.76 397.02 516.55 314.39 564.26 314.39 562.48" fill="#d8dae5"/>
      </g>
      <g>
        <polygon points="406.09 615.42 323.45 567.71 323.45 569.5 406.09 617.21 406.09 615.42" fill="#f1f2f7"/>
        <polygon points="406.09 615.42 488.72 567.71 488.72 569.5 406.09 617.21 406.09 615.42" fill="#d8dae5"/>
      </g>
      <g>
        <polygon points="497.79 668.37 415.15 620.65 415.15 622.44 497.79 670.15 497.79 668.37" fill="#f1f2f7"/>
        <polygon points="497.79 668.37 580.42 620.65 580.42 622.44 497.79 670.15 497.79 668.37" fill="#d8dae5"/>
      </g>
      <g>
        <polygon points="589.49 721.31 506.86 673.6 506.86 675.39 589.49 723.1 589.49 721.31" fill="#f1f2f7"/>
        <polygon points="589.49 721.31 672.12 673.6 672.12 675.39 589.49 723.1 589.49 721.31" fill="#d8dae5"/>
      </g>
      <g>
        <polygon points="681.19 774.25 598.55 726.54 598.55 728.33 681.19 776.04 681.19 774.25" fill="#f1f2f7"/>
        <polygon points="681.19 774.25 763.82 726.54 763.82 728.33 681.19 776.04 681.19 774.25" fill="#d8dae5"/>
      </g>
      <g>
        <polygon points="772.89 827.2 690.26 779.49 690.26 781.28 772.89 828.99 772.89 827.2" fill="#f1f2f7"/>
        <polygon points="772.89 827.2 855.52 779.49 855.52 781.28 772.89 828.99 772.89 827.2" fill="#d8dae5"/>
      </g>
      <polygon points="130.98 562.48 48.34 514.77 48.34 516.55 130.98 564.26 130.98 562.48" fill="#f1f2f7"/>
      <polygon points="130.98 562.48 213.61 514.77 213.61 516.55 130.98 564.26 130.98 562.48" fill="#d8dae5"/>
      <g>
        <polygon points="222.68 615.42 140.04 567.71 140.04 569.5 222.68 617.21 222.68 615.42" fill="#f1f2f7"/>
        <polygon points="222.68 615.42 305.31 567.71 305.31 569.5 222.68 617.21 222.68 615.42" fill="#d8dae5"/>
      </g>
      <g>
        <polygon points="314.38 668.37 231.74 620.66 231.74 622.44 314.38 670.15 314.38 668.37" fill="#f1f2f7"/>
        <polygon points="314.38 668.37 397.01 620.66 397.01 622.44 314.38 670.15 314.38 668.37" fill="#d8dae5"/>
      </g>
      <g>
        <polygon points="406.08 721.31 323.44 673.6 323.44 675.39 406.08 723.1 406.08 721.31" fill="#f1f2f7"/>
        <polygon points="406.08 721.31 488.71 673.6 488.71 675.39 406.08 723.1 406.08 721.31" fill="#d8dae5"/>
      </g>
      <g>
        <polygon points="589.48 827.2 506.85 779.49 506.85 781.28 589.48 828.99 589.48 827.2" fill="#f1f2f7"/>
        <polygon points="589.48 827.2 672.11 779.49 672.11 781.28 589.48 828.99 589.48 827.2" fill="#d8dae5"/>
      </g>
      <g>
        <polygon points="681.18 880.15 598.55 832.44 598.55 834.22 681.18 881.93 681.18 880.15" fill="#f1f2f7"/>
        <polygon points="681.18 880.15 763.81 832.44 763.81 834.22 681.18 881.93 681.18 880.15" fill="#d8dae5"/>
      </g>
    </g>
    <g>
      <polygon points="580.43 620.65 497.8 572.94 415.15 620.65 497.79 668.37 580.43 620.65" fill="#f6f7fb"/>
      <polygon points="672.13 673.6 589.5 625.89 506.86 673.6 589.49 721.31 672.13 673.6" fill="#f6f7fb"/>
      <polygon points="213.62 514.76 130.98 467.06 48.34 514.77 130.98 562.48 213.62 514.76" fill="#f6f7fb"/>
      <polygon points="305.32 567.71 222.69 520 140.04 567.71 222.68 615.42 305.32 567.71" fill="#f6f7fb"/>
      <polygon points="397.02 620.65 314.38 572.95 231.74 620.66 314.38 668.37 397.02 620.65" fill="#f6f7fb"/>
      <polygon points="488.72 673.6 406.09 625.89 323.44 673.6 406.08 721.31 488.72 673.6" fill="#f6f7fb"/>
      <polygon points="580.42 726.54 497.79 678.84 415.14 726.55 497.78 774.26 580.42 726.54" fill="#f6f7fb"/>
      <polygon points="580.42 715.97 497.79 668.26 415.15 715.97 497.78 763.68 580.42 715.97" fill="#91ccff"/>
      <polygon points="672.12 779.49 589.49 731.78 506.85 779.49 589.48 827.2 672.12 779.49" fill="#f6f7fb"/>
      <polygon points="763.82 832.43 681.19 784.73 598.55 832.44 681.18 880.15 763.82 832.43" fill="#f6f7fb"/>
      <polygon points="305.33 461.82 222.69 414.11 140.05 461.82 222.69 509.53 305.33 461.82" fill="#ff4778"/>
      <polygon points="397.03 514.76 314.39 467.05 231.75 514.76 314.39 562.48 397.03 514.76" fill="#f6f7fb"/>
      <polygon points="488.73 567.71 406.1 520 323.45 567.71 406.09 615.42 488.73 567.71" fill="#f6f7fb"/>
      <polygon points="763.83 726.54 681.2 678.83 598.55 726.54 681.19 774.25 763.83 726.54" fill="#f6f7fb"/>
      <polygon points="855.53 779.49 772.9 731.78 690.26 779.49 772.89 827.2 855.53 779.49" fill="#f6f7fb"/>
      <polygon points="397.04 408.87 314.4 361.16 231.76 408.87 314.4 456.58 397.04 408.87" fill="#f6f7fb"/>
      <polygon points="488.74 461.82 406.11 414.11 323.46 461.82 406.1 509.53 488.74 461.82" fill="#f6f7fb"/>
      <polygon points="580.44 514.76 497.81 467.05 415.16 514.76 497.8 562.48 580.44 514.76" fill="#f6f7fb"/>
      <polygon points="672.14 567.71 589.51 520 506.86 567.71 589.5 615.42 672.14 567.71" fill="#f6f7fb"/>
      <polygon points="763.84 620.65 681.21 572.94 598.57 620.65 681.2 668.37 763.84 620.65" fill="#f6f7fb"/>
      <polygon points="855.54 673.6 772.91 625.89 690.26 673.6 772.9 721.31 855.54 673.6" fill="#f6f7fb"/>
      <polygon points="947.24 726.54 864.61 678.83 781.97 726.54 864.6 774.25 947.24 726.54" fill="#f6f7fb"/>
      <polygon points="488.75 355.93 406.11 308.22 323.47 355.93 406.11 403.64 488.75 355.93" fill="#f6f7fb"/>
      <polygon points="580.45 408.87 497.81 361.16 415.17 408.87 497.81 456.58 580.45 408.87" fill="#f6f7fb"/>
      <polygon points="672.15 461.82 589.52 414.11 506.87 461.82 589.51 509.53 672.15 461.82" fill="#f6f7fb"/>
      <polygon points="763.85 514.76 681.22 467.05 598.57 514.76 681.21 562.47 763.85 514.76" fill="#f6f7fb"/>
      <polygon points="855.55 567.71 772.92 520 690.27 567.71 772.91 615.42 855.55 567.71" fill="#f6f7fb"/>
      <polygon points="947.24 620.65 864.61 572.94 781.97 620.65 864.6 668.36 947.24 620.65" fill="#f6f7fb"/>
      <polygon points="1038.95 673.6 956.32 625.89 873.68 673.6 956.31 721.31 1038.95 673.6" fill="#f6f7fb"/>
      <polygon points="580.46 302.98 497.82 255.27 415.18 302.98 497.82 350.69 580.46 302.98" fill="#f6f7fb"/>
      <polygon points="672.16 355.93 589.52 308.22 506.88 355.93 589.52 403.64 672.16 355.93" fill="#f6f7fb"/>
      <polygon points="763.86 408.87 681.23 361.16 598.58 408.87 681.22 456.58 763.86 408.87" fill="#f6f7fb"/>
      <polygon points="855.56 461.82 772.93 414.11 690.28 461.82 772.92 509.53 855.56 461.82" fill="#f6f7fb"/>
      <polygon points="947.26 514.76 864.63 467.05 781.99 514.76 864.62 562.47 947.26 514.76" fill="#f6f7fb"/>
      <polygon points="1038.96 567.71 956.33 520 873.69 567.71 956.32 615.42 1038.96 567.71" fill="#f6f7fb"/>
      <polygon points="1130.66 620.65 1048.03 572.94 965.39 620.65 1048.02 668.36 1130.66 620.65" fill="#f6f7fb"/>
      <polygon points="415.15 715.97 415.15 728.34 497.78 776.04 497.78 763.68 415.15 715.97" fill="#5999ff"/>
      <polygon points="580.42 715.97 580.42 728.34 497.78 776.04 497.78 763.68 580.42 715.97" fill="#1a5dff"/>
      <path d="M502.87,296.59l-4.78-.55.52-1.34,6.86.69,1.55.9-16.12,10.2L489,305.38Z" fill="#d8dae5"/>
      <path d="M579.78,356l11.2.39c4.33.15,6.87-.27,8.46-1.28,2-1.24,1.4-3-.39-4a11.47,11.47,0,0,0-7-1l-.3-1.45a14.41,14.41,0,0,1,9.06,1.48c2.92,1.69,3.53,4.28.64,6.11-2.18,1.38-5,1.83-10.25,1.67l-8.09-.24,8.58,4.95-1.73,1.1-11.66-6.73Z" fill="#d8dae5"/>
      <path d="M671.68,407.51h2.52c-.25,1.5.46,3.05,2.52,4.24,2.36,1.37,5.18,1.49,7,.33s1.17-2.79-1.49-4.33l-1.79-1,1.69-1.07,1.79,1.06c2.24,1.32,5,1.65,6.8.49s1.29-2.78-.82-4a11.45,11.45,0,0,0-6.68-1.1l-.18-1.44a14.39,14.39,0,0,1,8.62,1.54c3.22,1.86,3.8,4.36,1.22,6a8.63,8.63,0,0,1-7,.5c1.34,1.23,2.07,3.1-.26,4.57-2.7,1.71-7,1.58-10.52-.45C672.28,411.21,671.36,409.2,671.68,407.51Z" fill="#d8dae5"/>
      <path d="M768.22,461.86,759.78,457l1.28-1.11L780.13,454l2.22,1.28-10.54,6.67,2.53,1.46-1.67,1.05L770.14,463l-3.92,2.48-1.92-1.11Zm1.67-1.05,8.33-5.28-14.83,1.53Z" fill="#d8dae5"/>
      <path d="M579.16,781.07h2.52c-.25,1.5.46,3,2.52,4.24,2.36,1.36,5.18,1.48,7,.32s1.17-2.79-1.49-4.32l-1.79-1,1.69-1.07,1.79,1.07c2.24,1.32,5,1.65,6.8.49s1.29-2.78-.82-4a11.45,11.45,0,0,0-6.68-1.11l-.18-1.43a14.31,14.31,0,0,1,8.62,1.54c3.22,1.86,3.8,4.35,1.22,6a8.71,8.71,0,0,1-7,.5c1.34,1.23,2.07,3.09-.26,4.57-2.7,1.7-7,1.57-10.52-.46C579.76,784.77,578.84,782.76,579.16,781.07Z" fill="#d8dae5"/>
      <path d="M675.7,835.42l-8.44-4.87,1.29-1.11,19.06-1.92,2.22,1.28-10.54,6.67,2.53,1.46L680.15,838l-2.53-1.46L673.7,839l-1.92-1.11Zm1.67-1.06,8.33-5.27-14.82,1.52Z" fill="#d8dae5"/>
      <path d="M855.3,513.78l2.59-.12a4.46,4.46,0,0,0,2.52,4.18,7.73,7.73,0,0,0,7.57,0c2.07-1.31,1.8-3.17-.56-4.53a11.68,11.68,0,0,0-5-1.38l-.74-1.23,8.53-5.1,10,5.76-1.74,1.1-8.12-4.68-5.59,3.33a11.56,11.56,0,0,1,4.69,1.4c3.06,1.76,3.76,4.39.57,6.41a11.36,11.36,0,0,1-11.31-.11C856.08,517.33,855.17,515.53,855.3,513.78Z" fill="#d8dae5"/>
      <path d="M506.43,413c-4.81,3-11.59,3.7-15.43,1.48-2.07-1.19-2.77-2.53-2.87-4l2.49-.3a3.65,3.65,0,0,0,2.09,3.26c2.71,1.56,7.9.87,11.77-1.59l.22-.13a11.39,11.39,0,0,1-7.24-1.2c-3.08-1.77-3.83-4.42-.64-6.44a11.57,11.57,0,0,1,11.29.06C512.68,406.78,511,410.08,506.43,413Zm.16-2.72c2-1.83,2.33-3.74,0-5.11a8.08,8.08,0,0,0-7.7,0c-2.2,1.4-1.75,3.28.52,4.59A8.65,8.65,0,0,0,506.59,410.25Z" fill="#d8dae5"/>
      <path d="M586.93,452.68l-4.78-.54.52-1.35,6.86.69,1.55.9L575,462.58l-1.92-1.1Z" fill="#d8dae5"/>
      <path d="M586.81,459.66c4.89-3.09,11.24-3.6,15.37-1.21s3.56,6.23-1.32,9.32-11.26,3.61-15.37,1.24S581.91,462.77,586.81,459.66Zm12.11,7c3.89-2.47,4.55-5.41,1.57-7.13s-7.84-1.2-11.73,1.26-4.55,5.44-1.58,7.16S595,469.11,598.92,466.65Z" fill="#d8dae5"/>
      <path d="M681.05,507.36l-4.79-.54.53-1.35,6.86.69,1.55.9-16.13,10.2-1.92-1.1Z" fill="#d8dae5"/>
      <path d="M689.73,512.38l-4.78-.55.52-1.34,6.86.69,1.55.89-16.13,10.21-1.92-1.11Z" fill="#d8dae5"/>
      <path d="M767.48,557.21l-4.79-.55.53-1.34,6.85.69,1.56.89L755.5,567.11,753.58,566Z" fill="#d8dae5"/>
      <path d="M760.57,568.19l11.19.38c4.34.15,6.87-.27,8.47-1.28,2-1.24,1.4-3-.4-4a11.47,11.47,0,0,0-7-1l-.29-1.45a14.39,14.39,0,0,1,9,1.48c2.92,1.69,3.53,4.28.64,6.11-2.18,1.38-5.05,1.83-10.25,1.67l-8.09-.24,8.59,4.95-1.74,1.1L759,569.15Z" fill="#d8dae5"/>
      <path d="M865.68,613.62l-4.78-.54.53-1.35,6.85.69,1.55.9-16.12,10.2-1.92-1.1Z" fill="#d8dae5"/>
      <path d="M859.52,623.87H862c-.25,1.5.46,3,2.52,4.24,2.36,1.36,5.18,1.48,7,.32s1.17-2.79-1.49-4.32l-1.79-1L870,622l1.79,1.06c2.24,1.33,5,1.65,6.8.49s1.29-2.77-.82-4a11.45,11.45,0,0,0-6.68-1.1l-.18-1.43a14.31,14.31,0,0,1,8.62,1.54c3.22,1.86,3.8,4.35,1.22,6a8.67,8.67,0,0,1-7.05.51c1.34,1.23,2.07,3.09-.26,4.56-2.7,1.71-7,1.58-10.52-.45C860.12,627.56,859.2,625.56,859.52,623.87Z" fill="#d8dae5"/>
      <path d="M314.44,402.28l-4.78-.55.52-1.34,6.86.69,1.55.9-16.12,10.2-1.92-1.11Z" fill="#d8dae5"/>
      <path d="M308.46,412.88l2.59-.12a4.45,4.45,0,0,0,2.52,4.18,7.73,7.73,0,0,0,7.57,0c2.07-1.31,1.8-3.16-.56-4.53a11.82,11.82,0,0,0-5-1.38l-.75-1.23,8.53-5.1,10,5.77-1.74,1.1-8.12-4.69-5.59,3.33a11.58,11.58,0,0,1,4.69,1.41c3.06,1.76,3.76,4.38.57,6.4a11.36,11.36,0,0,1-11.31-.11C309.24,416.44,308.33,414.63,308.46,412.88Z" fill="#d8dae5"/>
      <path d="M404.2,454.27l-4.78-.54.52-1.35,6.86.7,1.55.89-16.13,10.21-1.92-1.11Z" fill="#d8dae5"/>
      <path d="M413.45,470.33a11.58,11.58,0,0,1-11.28-.07c-4.57-2.64-2.88-5.95,1.68-8.83,4.81-3.05,11.59-3.7,15.43-1.49,2.06,1.19,2.76,2.54,2.87,4l-2.49.29a3.64,3.64,0,0,0-2.1-3.25c-2.7-1.56-7.9-.87-11.77,1.58l-.21.14a11.4,11.4,0,0,1,7.24,1.19C415.89,465.66,416.64,468.31,413.45,470.33Zm-2-1.07c2.2-1.39,1.74-3.28-.52-4.58a8.58,8.58,0,0,0-7.21-.53c-1.95,1.83-2.33,3.74,0,5.1A8.06,8.06,0,0,0,411.42,469.26Z" fill="#d8dae5"/>
      <path d="M497.33,508.46l-4.78-.54.52-1.35,6.86.7,1.55.89-16.12,10.21-1.92-1.11Z" fill="#d8dae5"/>
      <path d="M512.68,516.73l-9.15-5.28,1.74-1.1,11.44,6.6-1.39.88-22,5.12-2.21-1.28Z" fill="#d8dae5"/>
      <path d="M588.82,560.65l-4.78-.54.52-1.35,6.86.7,1.55.89-16.13,10.21-1.92-1.11Z" fill="#d8dae5"/>
      <path d="M584.68,570c2-1.28,5.15-1.23,7.85-.44-1.22-1.56-1.35-3.14.5-4.31,2.68-1.69,7.08-1.09,10,.6s4.11,4.37,1.46,6c-2,1.24-4.72,1.11-7.08.48,1.39,1.6,1.63,3.47-.39,4.75-2.75,1.74-7.21,1.29-10.68-.71S582,571.69,584.68,570Zm10.52,5.93c1.95-1.23.62-3.36-1.11-4.42s-5.4-1.7-7.35-.46c-1.76,1.11-1.06,3,1.28,4.31S593.44,577,595.2,575.9Zm7.19-5c1.62-1,1.1-2.75-1-4s-5-1.45-6.58-.42c-1.88,1.19-.61,3,.9,4C597.43,571.37,600.56,572,602.39,570.85Z" fill="#d8dae5"/>
      <path d="M678,611.82l-4.79-.54.53-1.35,6.85.7,1.55.89-16.12,10.21-1.92-1.11Z" fill="#d8dae5"/>
      <path d="M690.54,625.81c-4.81,3.05-11.59,3.71-15.43,1.49-2.06-1.19-2.77-2.54-2.87-4l2.49-.29a3.63,3.63,0,0,0,2.1,3.25c2.7,1.57,7.9.87,11.77-1.58l.21-.13a11.47,11.47,0,0,1-7.24-1.2c-3.07-1.78-3.82-4.43-.63-6.45a11.58,11.58,0,0,1,11.28.07C696.79,619.62,695.09,622.93,690.54,625.81Zm.16-2.72c1.95-1.83,2.33-3.74,0-5.1a8.08,8.08,0,0,0-7.7,0c-2.2,1.39-1.74,3.28.52,4.58A8.58,8.58,0,0,0,690.7,623.09Z" fill="#d8dae5"/>
      <path d="M751.35,669.76l11.19.39c4.34.14,6.87-.27,8.46-1.28,2-1.25,1.4-3-.39-4a11.54,11.54,0,0,0-7-1l-.3-1.45a14.35,14.35,0,0,1,9.06,1.48c2.92,1.69,3.53,4.28.64,6.11-2.18,1.38-5.05,1.82-10.25,1.66l-8.09-.24,8.58,5-1.73,1.1-11.66-6.73Z" fill="#d8dae5"/>
      <path d="M772.62,674.12c4.89-3.09,11.24-3.59,15.37-1.21s3.56,6.23-1.32,9.32-11.26,3.61-15.37,1.24S767.72,677.23,772.62,674.12Zm12.11,7c3.89-2.47,4.55-5.41,1.57-7.13s-7.84-1.2-11.73,1.26S770,680.68,773,682.4,780.83,683.58,784.73,681.11Z" fill="#d8dae5"/>
      <path d="M958.55,496.81l11.2.39c4.33.14,6.86-.27,8.46-1.28,2-1.25,1.4-3-.4-4a11.5,11.5,0,0,0-7-1l-.3-1.45a14.39,14.39,0,0,1,9,1.47c2.93,1.7,3.53,4.29.65,6.12-2.19,1.38-5,1.82-10.25,1.66l-8.09-.24,8.58,5-1.74,1.1L957,497.78Z" fill="#d8dae5"/>
      <path d="M988.63,499.21l-4.79-.55.53-1.34,6.86.69,1.55.89-16.13,10.21L974.73,508Z" fill="#d8dae5"/>
      <path d="M981.72,510.19l11.19.38c4.34.15,6.87-.27,8.47-1.28,2-1.24,1.4-3-.4-4a11.47,11.47,0,0,0-7-1l-.29-1.45a14.39,14.39,0,0,1,9.05,1.48c2.92,1.69,3.53,4.28.64,6.11-2.18,1.38-5.05,1.83-10.25,1.67l-8.09-.24,8.59,4.95-1.74,1.1-11.66-6.73Z" fill="#d8dae5"/>
      <path d="M996.2,518.55l11.2.39c4.33.14,6.87-.27,8.46-1.28,2-1.25,1.4-3-.39-4a11.47,11.47,0,0,0-7-1l-.3-1.45a14.3,14.3,0,0,1,9,1.47c2.93,1.69,3.54,4.29.65,6.12-2.18,1.38-5.05,1.82-10.25,1.66l-8.09-.24,8.58,5-1.73,1.1-11.66-6.73Z" fill="#d8dae5"/>
      <path d="M293.29,510.3l11.19.38c4.34.15,6.87-.27,8.47-1.28,2-1.24,1.4-3-.4-4a11.47,11.47,0,0,0-7-1l-.29-1.45a14.39,14.39,0,0,1,9,1.48c2.92,1.69,3.53,4.28.64,6.11-2.18,1.38-5.05,1.83-10.25,1.67l-8.09-.24,8.59,4.95-1.74,1.1-11.66-6.73Z" fill="#d8dae5"/>
      <path d="M308.51,517.92H311c-.26,1.5.45,3.05,2.52,4.24,2.36,1.36,5.18,1.49,7,.33s1.17-2.8-1.49-4.33l-1.8-1,1.69-1.07,1.8,1.07c2.24,1.32,5,1.65,6.8.49s1.29-2.78-.83-4a11.45,11.45,0,0,0-6.68-1.1l-.17-1.44a14.33,14.33,0,0,1,8.62,1.54c3.22,1.86,3.8,4.35,1.22,6a8.66,8.66,0,0,1-7.06.5c1.35,1.23,2.07,3.1-.25,4.57-2.7,1.71-7,1.58-10.53-.46C309.11,521.62,308.19,519.61,308.51,517.92Z" fill="#d8dae5"/>
      <path d="M478.74,617.43l11.2.39c4.33.14,6.87-.27,8.46-1.28,2-1.25,1.4-3-.39-4a11.47,11.47,0,0,0-7-1l-.3-1.45a14.3,14.3,0,0,1,9.05,1.47c2.93,1.69,3.54,4.29.65,6.12-2.18,1.38-5.05,1.82-10.25,1.66l-8.09-.24,8.58,5-1.73,1.1-11.66-6.73Z" fill="#d8dae5"/>
      <path d="M494.15,625.42l2.59-.13a4.48,4.48,0,0,0,2.52,4.19,7.72,7.72,0,0,0,7.58,0c2.06-1.3,1.8-3.16-.56-4.52a11.83,11.83,0,0,0-5-1.39l-.75-1.22,8.54-5.11L519,623l-1.73,1.1-8.12-4.69-5.59,3.33a11.67,11.67,0,0,1,4.69,1.41c3,1.76,3.75,4.38.56,6.4a11.34,11.34,0,0,1-11.31-.11C494.94,629,494,627.16,494.15,625.42Z" fill="#d8dae5"/>
      <path d="M570.58,670.38l11.19.39c4.34.14,6.87-.27,8.47-1.28,2-1.25,1.4-3-.4-4a11.45,11.45,0,0,0-7-1l-.3-1.45a14.32,14.32,0,0,1,9,1.47c2.93,1.69,3.53,4.29.64,6.12-2.18,1.38-5.05,1.82-10.25,1.66l-8.09-.24,8.59,5-1.74,1.1-11.66-6.73Z" fill="#d8dae5"/>
      <path d="M601.23,683.81a11.55,11.55,0,0,1-11.28-.06c-4.58-2.64-2.88-6,1.67-8.83,4.82-3,11.59-3.71,15.43-1.49,2.07,1.19,2.77,2.54,2.87,4l-2.48.29a3.66,3.66,0,0,0-2.1-3.25c-2.71-1.57-7.9-.87-11.77,1.58l-.21.13a11.44,11.44,0,0,1,7.23,1.2C603.67,679.14,604.42,681.79,601.23,683.81Zm-2-1.06c2.21-1.39,1.75-3.28-.51-4.58a8.6,8.6,0,0,0-7.22-.53c-1.94,1.83-2.33,3.74,0,5.1A8.08,8.08,0,0,0,599.19,682.75Z" fill="#d8dae5"/>
      <path d="M661.57,723.46l11.2.39c4.33.14,6.87-.27,8.46-1.28,2-1.25,1.4-3-.39-4a11.47,11.47,0,0,0-7-1l-.3-1.45a14.3,14.3,0,0,1,9,1.48c2.93,1.69,3.54,4.28.65,6.11-2.18,1.38-5.05,1.83-10.25,1.66l-8.09-.23,8.58,4.95-1.73,1.1-11.66-6.73Z" fill="#d8dae5"/>
      <path d="M698.32,729.11l-9.15-5.28,1.73-1.1,11.44,6.6-1.38.88-22,5.12-2.21-1.27Z" fill="#d8dae5"/>
      <path d="M753.67,776l11.19.39c4.34.15,6.87-.27,8.47-1.28,2-1.24,1.4-3-.4-4a11.47,11.47,0,0,0-7-1l-.29-1.45a14.39,14.39,0,0,1,9,1.48c2.92,1.69,3.53,4.28.64,6.11-2.18,1.38-5,1.83-10.25,1.67l-8.09-.24,8.59,5-1.74,1.1L752.14,777Z" fill="#d8dae5"/>
      <path d="M770.93,782.72c2-1.28,5.14-1.23,7.84-.44-1.21-1.55-1.35-3.13.51-4.31,2.67-1.69,7.07-1.08,10,.61s4.11,4.36,1.46,6c-2,1.25-4.72,1.11-7.07.49,1.38,1.59,1.62,3.46-.4,4.74-2.74,1.74-7.21,1.29-10.68-.71S768.2,784.45,770.93,782.72Zm10.52,5.94c1.95-1.24.61-3.37-1.11-4.42s-5.41-1.7-7.36-.47c-1.76,1.11-1.06,3,1.28,4.31S779.69,789.77,781.45,788.66Zm7.18-5.06c1.62-1,1.1-2.75-1-4s-5-1.44-6.58-.42c-1.87,1.19-.6,3,.9,4C783.68,784.12,786.8,784.76,788.63,783.6Z" fill="#d8dae5"/>
      <path d="M109.78,511.66l11.2.39c4.33.14,6.87-.27,8.46-1.28,2-1.25,1.4-3-.39-4a11.47,11.47,0,0,0-7-1l-.3-1.45a14.31,14.31,0,0,1,9,1.47c2.93,1.69,3.54,4.29.65,6.12-2.18,1.38-5,1.82-10.25,1.66l-8.09-.24,8.58,5-1.73,1.1-11.66-6.73Z" fill="#d8dae5"/>
      <path d="M143.69,523c-4.81,3.05-11.59,3.7-15.42,1.49-2.07-1.19-2.77-2.54-2.88-4l2.49-.29a3.66,3.66,0,0,0,2.1,3.25c2.71,1.57,7.9.87,11.77-1.58l.21-.13a11.44,11.44,0,0,1-7.23-1.2c-3.08-1.78-3.83-4.43-.64-6.45a11.58,11.58,0,0,1,11.28.07C150,516.84,148.25,520.15,143.69,523Zm.16-2.72c2-1.83,2.33-3.74,0-5.1a8.06,8.06,0,0,0-7.69,0c-2.21,1.39-1.75,3.28.51,4.58A8.58,8.58,0,0,0,143.85,520.31Z" fill="#d8dae5"/>
      <path d="M203.42,563.23H206c-.26,1.5.45,3,2.52,4.24,2.36,1.37,5.18,1.49,7,.33s1.16-2.79-1.49-4.33l-1.8-1,1.69-1.07,1.8,1.06c2.24,1.32,5,1.65,6.8.49s1.29-2.78-.83-4a11.45,11.45,0,0,0-6.68-1.1l-.18-1.44a14.43,14.43,0,0,1,8.63,1.54c3.22,1.86,3.8,4.36,1.21,6-2.06,1.31-4.81,1.2-7,.5,1.35,1.23,2.07,3.1-.25,4.57-2.7,1.71-7,1.58-10.53-.45C204,566.93,203.1,564.92,203.42,563.23Z" fill="#d8dae5"/>
      <path d="M223.89,568.29c4.88-3.09,11.23-3.6,15.36-1.21s3.56,6.23-1.32,9.32-11.26,3.61-15.36,1.24S219,571.39,223.89,568.29Zm12.1,7c3.9-2.47,4.55-5.41,1.57-7.13s-7.83-1.2-11.73,1.26-4.55,5.44-1.57,7.16S232.09,577.74,236,575.28Z" fill="#d8dae5"/>
      <path d="M294.67,616.72h2.52c-.25,1.5.46,3,2.52,4.24,2.36,1.37,5.18,1.49,7,.33s1.17-2.79-1.49-4.33l-1.79-1,1.69-1.07,1.79,1.06c2.24,1.32,5,1.65,6.8.49s1.29-2.78-.82-4a11.45,11.45,0,0,0-6.68-1.1l-.18-1.44a14.39,14.39,0,0,1,8.62,1.54c3.22,1.86,3.8,4.36,1.22,6a8.63,8.63,0,0,1-7.05.5c1.34,1.23,2.07,3.1-.26,4.57-2.7,1.71-7,1.58-10.52-.45C295.27,620.42,294.35,618.41,294.67,616.72Z" fill="#d8dae5"/>
      <path d="M323.93,619.81l-4.78-.54.52-1.35,6.86.69,1.55.9L312,629.71l-1.92-1.1Z" fill="#d8dae5"/>
    </g>
    <polygon points="497.81 458.37 512.85 458.37 516.63 456.19 663.08 456.58 666.18 458.37 675.64 458.37 696.26 458.37 700.04 456.19 739.59 456.19 772.92 436.94 814.71 412.82 698.92 345.97 654.91 345.97 651.54 344.02 567.13 344.02 497.81 458.37" fill="#000c47" opacity="0.15"/>
    <polygon points="864.6 776.04 956.32 776.04 1038.96 728.33 1177.74 728.33 1269.44 675.39 1159.63 611.99 973.1 611.99 864.6 776.04" fill="#000c47" opacity="0.15"/>
    <polygon points="947.25 638.76 864.61 591.05 781.97 638.76 864.6 686.47 947.25 638.76" fill="#f7f7f7"/>
    <polygon points="781.97 728.33 781.97 638.76 864.6 686.47 864.6 776.04 781.97 728.33" fill="#5999ff"/>
    <polygon points="873.68 675.38 873.68 511.3 956.31 559.01 956.31 723.1 873.68 675.38" fill="#5999ff"/>
    <polygon points="947.24 728.35 947.25 638.77 864.6 686.47 864.6 776.04 947.24 728.35" fill="#1a5dff"/>
    <polygon points="1038.95 675.38 1038.95 511.31 956.31 559.01 956.31 723.08 1038.95 675.38" fill="#1a5dff"/>
    <polygon points="947.25 638.76 864.61 591.05 781.97 638.76 864.6 686.47 947.25 638.76" fill="#91ccff"/>
    <polygon points="415.17 410.66 415.19 213.57 497.82 261.28 497.81 458.37 415.17 410.66" fill="#f1f2f7"/>
    <polygon points="580.45 410.68 580.46 213.57 497.82 261.28 497.81 458.37 580.45 410.68" fill="#dfe1eb"/>
    <polygon points="580.46 213.57 497.83 165.86 415.19 213.57 497.82 261.28 580.46 213.57" fill="#fff"/>
    <polygon points="1038.95 511.3 956.32 463.59 873.68 511.3 956.31 559.01 1038.95 511.3" fill="#91ccff"/>
    <path d="M960.46,509c20.6.28,24.45,4.95,32.08,4.56s13.23-6.66,22,.19-8.2,10.09-16.7,8c-7-1.71-12.84,7.42-14.4,11.13l6.41,4.15-8.74,4.79s-5.7.89-15.35,2.69-17.47,9.86-17.47,9.86l-19.15-11.06Z" fill="url(#Безымянный_градиент_74)"/>
    <path d="M922.91,593.78c-4.58-3.86-5.63-37.31-3-45.43s11.3-8.55,11.3-8.55l-2.77,13.29S930.75,600.39,922.91,593.78Z" fill="url(#Безымянный_градиент_55)"/>
    <path d="M941.82,603c-4.59-3.86-4.13-45.08-1.48-53.2l8,4.61S949.66,609.6,941.82,603Z" fill="url(#Безымянный_градиент_55-2)"/>
    <g>
      <path d="M914.43,592.49c1.35,1.28,1.14,4.16.24,5.17s-2.84.84-3.92,1.55c-3,1.92-9.63,3.39-11,2.46s-1.8-3.38,5.1-6a13.07,13.07,0,0,0,4.59-2.82Z" fill="url(#Безымянный_градиент_3)"/>
      <path d="M914.35,590.13a33.35,33.35,0,0,0,.46,3.38,1.19,1.19,0,0,1-.38,1.12,4.52,4.52,0,0,1-5,1s-1.28-.5-.69-2.17a25.13,25.13,0,0,0,.9-3.79Z" fill="#fff"/>
      <path d="M937,601.82c1.35,1.27,1.14,4.15.24,5.16s-2.32.17-3,1.3c-2.47,4.26-6.93,3.76-8.48,3.6-2.32-.24-2.44-2.17,1.39-5.79a59.36,59.36,0,0,0,4.45-4.42Z" fill="url(#Безымянный_градиент_3-2)"/>
      <path d="M952.3,497.51c4.45,10.85,5.51,16.31-3.6,26.83s-22.21,20.83-23.92,23.94-3.73,9.88-9.4,41.8c-.35,2-6.36,2.42-6.35-1.22,0-6.26,1.09-42.11,2.85-51s20-26.39,20-26.39Z" fill="#fff"/>
      <path d="M936.89,599.46a33.63,33.63,0,0,0,.45,3.37A1.17,1.17,0,0,1,937,604a4.53,4.53,0,0,1-5,1s-1.27-.51-.69-2.18a25.13,25.13,0,0,0,.9-3.79Z" fill="#fff"/>
      <path d="M929.33,491c-5.51,4.22-7.77,5.86-7.77,5.86l-5.37-2.93,7.68-11,2.56-2.08,3.48,4.95Z" fill="#ebb0b0"/>
      <path d="M965.48,505.06c4.45,10.85,5.51,16.31-3.6,26.83s-19.72,16.57-21.43,19.68S937.08,584.21,938,599c.12,2-6.41,3.61-6.89,0-.59-4.47-4.55-45.55-2.79-54.45S945.09,519,945.09,519Z" fill="#fff"/>
      <path d="M931.29,473l.16,19.19s-.72-2-2.12-1.21c0,0,.61-7.44-5.46-8.11C923.87,482.84,929.41,474.06,931.29,473Z" fill="#fff"/>
      <path d="M968.81,512.42c-1.65,9.47-13.37,14.79-28.27,6.49s-7.87-11.47-7.62-19.4,1.86-10.75-1.53-22.44,17.09-5.38,25.72,1.84S970.34,503.68,968.81,512.42Z" fill="#fff"/>
      <path d="M958.59,479.14c8.63,7.21,12.68,27.65,11.16,36.39-1.31,7.51-10.64,16.07-21.19,13.63.24-1.45,1.18-10.32,1.25-13.37.28-12.9-6.55-20.28-4.75-36,0,0,7.63-3.44.9-6.57s-9.75-3.11-10.6-.57,2.71,21.44,2.22,35.23c-.18,5-2.18,12.06-2.37,14.51-9.11-6.43-3.75-15.88-3.54-22.91.25-7.94-1-10.35-1.23-22.52C930.23,464.45,950,471.92,958.59,479.14Z" fill="#001370"/>
      <path d="M941.53,465.45c3,6.31,5.09,7.86,5.73,9.05s-2.43,2.6-4.86,2.78l-1.55,4.21-2.78-6.36s-1.52-.64-1.17-2-.47-2.54-.92-3.42S941.53,465.45,941.53,465.45Z" fill="#ebb0b0"/>
      <path d="M941.65,464.3c-.14,4.5-3.79,6.41-6.81,7.1s-9.81-8.79-8.82-13,7.63-8.34,11.31-5.23S941.65,464.3,941.65,464.3Z" fill="#ebb0b0"/>
      <path d="M931,499.9l.13,0,4.93-1.27a.52.52,0,0,0,.38-.63.53.53,0,0,0-.64-.38l-4.93,1.27a.52.52,0,0,0,.13,1Z" fill="#fff"/>
      <path d="M954.17,479.93c5.34,1.43,9,9.38,10.6,16.88s-5.9,5.66-8.48,2.92S946.93,478,954.17,479.93Z" fill="#fff"/>
      <path d="M930.64,498.26c1.9-.42,2.12.61,3.78,2.89h0l16.5,6.41s2.63-21,3.76-24.19l7.86,13.43c-2.77,11.89-5.79,16.77-8.16,19.1-1.9,1.87-16.86-7.26-22.7-10.95h0s-1.87.38-5-2.14S928.52,498.74,930.64,498.26Z" fill="#ebb0b0"/>
      <path d="M942.4,464.43c-.57,3.05,2.56,1.33,3.27,3.08s-3.95,2.23-5.77,0c-1-1.26-1.9-.78-.77-2.54s-1.4-2.64-2.46-1.4-2.32-.09-2.82-1.05-3.92,1.26-6.44,1.69-5.93-.44-5.4-3.51,1.9-1.4,2.44-2.56-2.12-1.15-.58-2.79,3.29.3,3.79-1,2.75-1.56,3.65-2.88,2.78.5,3.37,0,3.41-.48,4.92,3.41S941,457.11,942,459,942.4,464.43,942.4,464.43Z" fill="url(#Безымянный_градиент_3-3)"/>
      <polygon points="929.87 501.23 914.95 488.93 923.54 504.58 938.39 517.66 929.87 501.23" fill="#ff4778"/>
      <path d="M917,492.7c-3.89,5.23-2.13,7.6-1,9.15s12.14,8.27,13.7,11.06,5.35,2.06,6.66,1.36,2.13-3.16,1.24-5.1c-1-2.28-4.59-.07-4.59-.07l-13-10.94Z" fill="#ebb0b0"/>
      <path d="M952.67,494.65c2.41-1.95,8.74,1.18,9.25,4.73l1.56-1.87-4.21-12-4.1-3.68-2.07,1.54Z" fill="#fff"/>
    </g>
    <g>
      <path d="M854.22,800.36c9.5,1.37,13.75-5,15.4-5.12s30.11-.33,30.11-.33S877.82,798,876,798.56s-6.21,9.29-4.67,9.58,6.19-6.83,8.54-7.06,40.46-.78,41.82-.08,7.11,6.91,14.29,8.16c12.71,2.22,14.89-8,64.22-4.51s22.51-21.93-13.36-21.93-69.41-2.16-73.23-1.81-4.1,6.51-4.1,6.51l-44.29,5.33Z" fill="#000c47" opacity="0.15"/>
      <g>
        <path d="M824.52,704.48c-.55-1.62-2.6-3.1-3.87-3.89a2.94,2.94,0,0,1,.92-2.1c1.32-1.22-1.4-4.38-1.4-4.38l-1.1,1.26c-3.87,4.88-3.27,9.43,1.49,12.57S825.34,706.88,824.52,704.48Z" fill="#ebb0b0"/>
        <path d="M876.2,798.14c.1,2.39-.36,3.28-.82,3.59s-.47.39-.55.79a18.83,18.83,0,0,1-1.07,2.91c-1.67,3.44-4.69,3.53-4,.71s1-2.9,1.17-4.88.36-4,2.16-4.83A2,2,0,0,1,876.2,798.14Z" fill="#001370"/>
        <path d="M847.16,669.73c1,3.2-3.4,9.11-6.14,13-2.32,3.31-19.7,16.71-19.7,16.71L819,694.39l17-17.71c7-19.72,7.07-19.65,9-23.09C848.19,647.69,846.13,666.52,847.16,669.73Z" fill="#ff4778"/>
        <path d="M857.1,796.16c-2.55,2.13-3.08,1.92-3.41,3.4s3.75.59,5.67-.13a6.16,6.16,0,0,0,2.38-1.64c.8-1,1.6-.52,3.11-1s1.69-2,1-4.28-5,0-6,.7A27.84,27.84,0,0,0,857.1,796.16Z" fill="#001370"/>
        <path d="M860.94,792.65c-.43.67,0,1,.57,1.08s2.71-.5,3.12-1.44,1.07-29.24,0-40,.38-43.12.78-51.06-13.53-9.74-13.82,4.15,2.86,45.11,4.69,51.78,4.7,28.92,5,31.55C861.41,789.89,861.58,791.66,860.94,792.65Z" fill="#ebb0b0"/>
        <path d="M872.13,797.47c-.08.85-.15,1.81,1.15,2.06a2.18,2.18,0,0,0,2.12-2.79c-.72-2.42,2-28.76.89-39.5s-3.25-43.12-2.85-51.06-13.77-9.74-14.07,4.15,6.53,46.3,8.4,53,4,27.11,4.27,29.74A27.43,27.43,0,0,1,872.13,797.47Z" fill="#ebb0b0"/>
        <path d="M844,694.61c-1.37,37.17,3,43,5,53.37.8,4.25,13.79,10.89,20.67,10.17s8-3.12,7.74-7c-.62-9.36-.8-13.25-2-54Z" fill="#001370"/>
        <path d="M871,703.1c0,6.85-3,16.51-17.3,10.47C842.78,709,841,705.25,841,696.28c0-16.91.87-44.18,8.27-48.26,6.67-3.67,21.61,3.06,26.85,14.66,4.56,10.09,1.77,36.26,1.5,45.08S871,703.1,871,703.1Z" fill="#fff"/>
        <path d="M851.85,723.28s.33-5.83-2.56-9.71l-14.35,1.69Z" fill="#d8dae5"/>
        <path d="M869.66,656a9.5,9.5,0,0,0-1.36-1.37h0l-.33-.27c-1-.88-3.85-3.91-5.36-10.36,0,0-5.38-.72-6.09,1.72-.37,1.24-1.71,2.15-2.94,2.75a6.19,6.19,0,0,0-2.22.84h0c-1.66,1.07-2.45,3-2.07,5.84.83,6.18,13.05,12.08,17.74,9.59S871.19,658.05,869.66,656Z" fill="#ebb0b0"/>
        <path d="M867,664.7c4.69-2.5,4.18-6.65,2.65-8.75a9.5,9.5,0,0,0-1.36-1.37h0l-.33-.27a17.23,17.23,0,0,1-4.18-6.53h0s-1.52,3.53-3.83,4c-2.05.42-6-.12-6.43-3.36a6.18,6.18,0,0,0-2.17.83h0c-1.66,1.07-2.45,3-2.07,5.84C850.1,661.29,862.32,667.19,867,664.7Z" fill="#ff4778"/>
        <path d="M849.5,638.33c-1.13,9.56,2,11.87,4.94,13s9.62-2.78,8.28-13S850.42,630.6,849.5,638.33Z" fill="#ebb0b0"/>
        <path d="M849.29,640.93c-.65,0-1.92-.6-1.51-.87s.06-.23.27-1-2.27-.52-1.79-.79-.27-.27-.4-1.45-.47-2,.2-1.86,1-1.28,1.08-1.59-1.32-.47-1-1.42.95-1.25,1.25-2,.71-1.66.71-1.66a2.76,2.76,0,0,0,1.45-1.79c.55-1.48,1.9-3.31,2.57-3.31s1.76,1.49,3.31,1.29,1.54-2.62,2.5-2,.51,1.42,2.08,1.21,2.36-1.86,2.86-1.32.74,1.67,1.42,1.33.91-.49,1.15-.21-.41.72,0,1.06.06.4.53.87,0-.51,1-.23a10.12,10.12,0,0,1,3.42,1.75c.31.45,1.39.62,1,1.67s.18,4,1.26,4.27c4,.95.63,2.7,0,3.11s.06,3.73,0,4.34.33,1.77-.43,1.51-.94,1-.94,1-.14,1-.14,1.23.21-.18-.87.09-2.1-.27-2,.74,1.35,1.22.81,1.89a2.38,2.38,0,0,1-2.44.45c1.26.68-.56,1.32-2.7-.23-.6-.44-.18-.44-.6-.44s-1.26-1.56-1.26-1.56l.08-3.53-5.06-6.66h-4l-2.85,1.65a7.53,7.53,0,0,0-.82,1.81C849.26,641.4,849.29,640.93,849.29,640.93Z" fill="#ff4778"/>
        <path d="M861.55,637.12c-3.5-5.73-7.62-7.32-11.32-1.33l-.73,2.54c2.68-3.93,6.49-2.39,9.56,2.46a1.38,1.38,0,0,0,1.46.62,1.17,1.17,0,0,1,1.54.85,2.77,2.77,0,0,1-.3,1.65,2.16,2.16,0,0,0,.07,1.92l.14.27S864.08,641.26,861.55,637.12Z" fill="#001370"/>
        <path d="M851.92,710c-1.46,1.33-2.3,3.85-4.83,4.43s-4,1-2.94,2.77,6.79.58,8-.23a33.32,33.32,0,0,0,3.67-3.48l1.2-4.39-4.24.08Z" fill="#ebb0b0"/>
        <path d="M875.37,666.32c1.92,4.27,1.19,6.66,1.19,10s-3.51,18.21-5.91,21.46-14.83,15.64-14.83,15.64.68-1.4-1.59-3.44a1.57,1.57,0,0,0-2.06-.29l12.72-18.4s3.45-20.82,4.71-25S874.86,665.18,875.37,666.32Z" fill="#ff4778"/>
        <path d="M852.14,709.88c-1.14.36-2.69-.5-3.72,0s.59,1.56,2,1.62S852.14,709.88,852.14,709.88Z" fill="#ebb0b0"/>
        <path d="M818.56,700.72c-3.86,3.23-5.24,13.24-2,23.37,4.2,13.23-5.21,15.74-5.21,15.74L842,757.3a15.43,15.43,0,0,0,4.26-15c-2.29-9.35-.48-21.78,0-24.77a6.92,6.92,0,0,1,2.66-4.1s-17.29-7.88-26-12.44C820.61,699.79,819.82,699.66,818.56,700.72Z" fill="#fff"/>
      </g>
    </g>
    <path d="M401.47,816.73c9-1.31-.18,5.37,8.42,5.16s41.25-6.13,57.46-13.3,26.94,6.31,39.67,4,38.37,12,12.35,16.6-38.35,3.44-54.2,2.14-43.41-2.39-43.41-2.39-22.14-1.7-26.54-2.84l-4.4-1.15Z" fill="#000c47" opacity="0.15"/>
    <g>
      <path d="M417.3,824.17c.05,1.91-.38,2.87.24,3.8a4.07,4.07,0,0,0,4.22.93c1.46-.7,2.35-1.23,2.74-2s1-.74,2.15-1,6.76-3.67,6.35-4.85-2.61-1.54-6.11-.22-8.61,2.72-8.61,2.72Z" fill="url(#Безымянный_градиент_3-4)"/>
      <path d="M389.82,820.08c.06,3.28,0,3.79,1,4.83s4.39-.46,4.64-1.29.72-.07,1.9-.82,6-3.29,6.34-4.74-2.37-1.67-4.78-.87a20.42,20.42,0,0,1-5.14.76Z" fill="url(#Безымянный_градиент_3-5)"/>
      <path d="M378.84,725.42c2.9,26.67,5.79,39.08,6,48.38s2.9,37.43,3.93,44.25,7.75,3.1,7.7,0,3.26-39.29,3.46-47.56,0-47.14,0-47.14Z" fill="#001370"/>
      <path d="M389.44,744.28c14.68,29.33,17.24,27.68,21.23,40.5s4.82,32.08,5.44,37.54,7.24,4.47,7.65,0,1.45-40.73,0-49.27-18.64-49.7-18.64-49.7L391.87,731Z" fill="#001370"/>
      <path d="M437.44,710.13c2.35,1,3-.53,6.86,1.36,2.34,1.13,1.65,4.34,2.91,5.45s4.15,1,4,2.47c-.11.77-1,.56-5.31-1a19.36,19.36,0,0,1-4.41-.4c-1.8-.47-1.17-2.36-1.67-2.93s-4.35-1.72-4.35-1.72Z" fill="#ebb0b0"/>
      <path d="M391.9,672.73c1.32-2.13,1.86-5.31,1.19-7s-2.69-10.29,4-12.75,11.92,3.25,10.79,9.86-1.81,10.28-3.57,10.52-2.38-.15-2.77,1.25-7.88,0-7.88,0l-1.76-.57Z" fill="#ebb0b0"/>
      <path d="M438.13,708.86c-23-10.51-39.09-29.24-39.09-29.24l-14.54,3.2s23.47,27.46,48.79,31.77C439,715.56,439.93,709.68,438.13,708.86Z" fill="#1c59d1"/>
      <path d="M390.31,673.17c14.64,8.35,15.62,7.49,19.77,19.84,3.12,9.26-3.31,33.38,2.55,45.92,2.07,4.42-1.31,6.88-5.24,6.06-5.06-1.06-6.42-12-6.42-12s3.59,26.45-5,25.08-15-10-17.57-18c-1.33-4.15-2.29-38-1.87-40.37C379.23,684.51,385.56,670.45,390.31,673.17Z" fill="#1a5dff"/>
      <path d="M410.22,716.81a45.29,45.29,0,0,1-.52,5,13.7,13.7,0,0,1-2.43,2.68c-1.69,1.49-4.19,1-4,2.61s2,.12,5.73.7c3.16.68,3.81-.24,3.81-.24l.14-5.14C413.05,717.87,410.22,716.81,410.22,716.81Z" fill="#ebb0b0"/>
      <path d="M405.09,705.41c3.06,8.55,10.68,15.16,10.68,15.16s-4.76-.17-5.71,3.13c-.76,2.6-.46,3.8,3.2,4.43,5.61,1,11.73-1.07,13.17-4.14,3.1-6.61-16.74-35.5-19.46-38.75C403.36,680.94,402.2,697.35,405.09,705.41Z" fill="#1a5dff"/>
      <path d="M391.9,672.73a14.17,14.17,0,0,0-2.66,2.89c-.28.53,7.32,3.32,12.3,4v-5S391.63,674.27,391.9,672.73Z" fill="#ff4778"/>
      <path d="M405.29,649.51c6.93.49,6,7.8,4.25,10.82s-1.84,2-4.25,3.52c0,0-.48-.23-1.14,4l-1.3.35c-.43.12.41-1.23-.21-1.78s-2.69.79-1.9,2.69.8,1.34.8,1.34-1.66,1.9-2.62,1.55-5.56-.63-5.79-2.31-2.17-4-1.83-8.53,3.34-8.77,7.75-9.52S403.65,649.4,405.29,649.51Z" fill="#001370"/>
    </g>
    <g>
      <path d="M583.09,757.3c-14.22-11.83-37.69-25.21-31.82-11s9.36,22,9.36,22l-14.93,2.92c-6.6-.84-22.6,5.1-33.61,7.42s-9.59-.38-15.81.1l10.54,5.93H546.3l14.33,17.59-1.21,3.9v1.62h7.7c1.18,0,3.74-5.52,1.84-10.4-.76-1.94-2.08-3.43-5.1-7.85,0,0,27.17.47,34.51,0,8.85-.57,34.28-6,27.62-13.46C609.92,758.2,595.24,767.42,583.09,757.3Z" fill="#000c47" opacity="0.15"/>
      <path d="M554.25,798c1.84.85,3.14,2.85,2.86,1.22,0,0,2.59-3.32,2.53-3.45s-1.7-1.74-1.7-1.74l-4.29.85Z" fill="#fff"/>
      <path d="M540.93,744.41c-14.69,13.11-17.32,27.32-12,35.62s18.42,13.2,25.36,17.94c0,0,.66-4.15,3.69-4,0,0-13.35-14.43-13.49-14.79-1.54-4.1,5.55-17.79,6.69-22.53S540.93,744.41,540.93,744.41Z" fill="#001370"/>
      <path d="M494.49,780c-1.09,1.89,5.14,4.63,8.08,5.3,1.73.39,4,2.76,5.74,2.26,4.34-1.26,2.37-4.56,1.71-5.9a3.52,3.52,0,0,0-3-2.14,36.44,36.44,0,0,1-6-.11C499.61,779.09,496,777.48,494.49,780Z" fill="#001370"/>
      <path d="M503.73,778.76c0,1.79.29,4,3.22,4.31,5.28.65,1.87-5.51,1.87-5.51Z" fill="#fff"/>
      <path d="M490.41,721.26a11.57,11.57,0,0,1-4.22-.73c-1.87-.81-2.95-1.25-4.82.2-1.22.94-2,2.95-.68,2.95s1.39-.55,2-1a1.68,1.68,0,0,1,1.94.11c.34.45-1,1.57-.8,2,.41.87,2.13-1,4.14-1.55a5.47,5.47,0,0,1,2.69,0C490.61,723,490.41,721.26,490.41,721.26Z" fill="#ebb0b0"/>
      <path d="M529,748.54c-15.79-9.09-28.94-19.16-35.29-13.44s6.27,38,8.77,43.13,8.27,3.25,7.39-.42-2.5-22.87-2.5-22.87,13,10.58,25.39,10c9.05-.45,12.05-9.67,14.24-12.84,6.75-9.78,5.3-9.84,5.3-9.84Z" fill="#001370"/>
      <path d="M488.81,753.59c-3.77-.68-3.91.17-3.49.49s1.43.36,1.42.75-.84.12-2.46,2.27,2,6,3.46,5.62-.14-4.13,1.7-4.62a6.16,6.16,0,0,0,3-2.17l-.95-1.83Z" fill="#ebb0b0"/>
      <path d="M492,752.88c-1.78,1.34-.6,3.87.6,3.89s22-10.83,26.85-15.65c8.36-8.35,14.27-24.13,7.21-28.28-10.3-6.07-7.71,3.47-12.48,19.18C511.14,741.83,492,752.88,492,752.88Z" fill="#fff"/>
      <path d="M490.13,720.87c-.61,0-.81,2.81.22,3s36.21-3.49,36.21-3.49l4.56-16.19-16,9.68Z" fill="#fff"/>
      <path d="M521,710.55c-2.78,14.24,6.31,18.61-.73,33.86-3.91,8.46,5.52,19.63,16.25,19.76,8,.09,22.3-8.14,22.21-11.83-.62-27.37-8.26-42.33-16.43-48.87C533.48,696.44,522.47,702.76,521,710.55Z" fill="#fff"/>
      <path d="M532.31,701.44c.06-.81-3.29-.33-5.22-1.77a34.29,34.29,0,0,1-4.57-4.75l-3.16,9s3.87,1.75,3.3,2.57C519.36,711.21,532.25,702.25,532.31,701.44Z" fill="#ebb0b0"/>
      <path d="M555.61,796.11a3.94,3.94,0,0,0,0,4.31c1,1.51,2.44,2.88,2.56,3.55,0,0-.5-.88-2.5,1.14-.56.58,1.64,2.51,3.41,2.64s3.47-1.8,4.41-3-.08-6.11-1-7.72a7.68,7.68,0,0,0-4-2.28A3,3,0,0,0,555.61,796.11Z" fill="url(#Безымянный_градиент_40)"/>
      <path d="M558.31,799.07c0,1.64,3.41,5.31,2.38,6.72s-2.49,1.92-3.28,1.42a4.36,4.36,0,0,0,1.67.54c1.77.13,3.47-1.8,4.41-3s-.08-6.11-1-7.72C559.08,796.11,558.31,797.43,558.31,799.07Z" fill="#001370"/>
      <path d="M519.36,703.94c-1-.55-1.69,2-3.06,2.3s-10.11-5.07-10.65-10.11,7.8-6.94,16.87-1.21Z" fill="#ebb0b0"/>
      <path d="M504.9,698.83c2.62,2.07,7.63,1.43,8.39,1.59s-.68-.63-.24-1.22,1.81-.73,2.44,1,4.33.93,5.46.8,4.39-2,4.88-3.35-6.06-5.67-8.21-9.39-3.93-5.42-6.57-2.53-5.31-1.4-7.32,1.64.4,4.71-2.2,6.47S503.84,698,504.9,698.83Z" fill="#001370"/>
    </g>
    <g>
      <path d="M545.28,253.54c-.25-2.67.94-4.12.82-5.5s-.94.44-1.26,1.13-.28-2.41-1.35-4-3.54.34-3.29,3a18.57,18.57,0,0,0,1.09,5,8.19,8.19,0,0,1,.41,2Z" fill="#7a5068"/>
      <path d="M609.66,320.36c-.27,6.29-3.55,52-3.63,57.19-.12,8.53,2,36.14,2,36.14-.48,1.57-3.21,3.17-5,1.64,0,0-11.66-36.7-11.26-40.42.69-6.31-3.41-49.42-3.41-49.42l6.35-8.94Z" fill="#fff"/>
      <path d="M567.13,241.58,565,238.31s-2.81-4.87-6.11-2.95-2.29,7.47,0,6.62c3-1.07,4.1.75,4.1.75l1.26,2.08C567,249.25,567.13,241.58,567.13,241.58Z" fill="#7a5068"/>
      <path d="M576.14,320.36c-5.41,18.55,3.1,46.9,4.42,67.59.32,4.94,8.22,40.88,8.22,40.88s3.89,3,4.52-2.6c-1.55-7.93-.94-31.46-.35-38.35,2-23.2,8.45-61.29,8.45-61.29Z" fill="#fff"/>
      <path d="M608.41,314.28c-8.61-12.69-3.19-8.7-7.23-26.62-5.31-23.5-15.56-16.78-15.56-16.78-2.7,2.4.64,1.11-4.63,5.36-1.56.66-4.66,2.44-6.94,2.72-5.16.64-9.21.94-5,10.24,2.59,5.67,2.83,14.42,1.66,24.28-1.92,16.23.16,16.23,3.93,18.11C586.84,337.65,616.66,326.44,608.41,314.28Z" fill="#ff4778"/>
      <path d="M574.05,279c2.33,4.62,3.4,49.91-3.17,16.59,0,0-21.75,1.64-23.38-3.75-2.22-7.36-6.51-37.3-6.51-37.3l4.88-1.3s9.13,26.88,10.89,29.06S574.05,279,574.05,279Z" fill="#fff"/>
      <path d="M584.3,275.48c4.94-4.09,13.9,5.67,17.37,14.46,0,0-.31-13.06-3.95-18.42s-17.92-14.21-18.93-15.62-11.66-15.35-11.66-15.35l-4.43,4.1,9.75,19.23Z" fill="#fff"/>
      <path d="M586.69,255.9c-10.47,4.47-11.68,7.63-11.31,9.89s2.67,2.34,3.45,4.84a7.76,7.76,0,0,1-.26,6.17c-.64,1.74,3.2,1.49,5.59-.15s3.24-1.93,2.21-5.91,3.13-4.75,3.52-9.56S586.69,255.9,586.69,255.9Z" fill="#7a5068"/>
      <path d="M585.54,255.24c-2.6.7-.86,8.44-1.28,8.69,0,0,2.34.05,1.17,1.72s-2.34.46-2.34.46-.3,2.13,1.21,3,1.91.65,1.91.65a8.37,8.37,0,0,0,6.51-2.61C596,263.56,591.27,253.7,585.54,255.24Z" fill="#001370"/>
      <path d="M592.46,263.39c-1.12.29-.75,2.38-.33,2.71s3.94,2.09,3.94,5.86-2.73,3.31-3,9.34,15.9,10.29,14.14,15.31-8.13,1.68-9,6.54c-.4,2.17.4,4.76,9.69,2.75s10.21-10.78,3.85-19.15-2.93-12.81-4.52-16.95S597.78,262,592.46,263.39Z" fill="#001370"/>
      <path d="M555.08,225.12a9.8,9.8,0,1,0,9.8,9.79A9.79,9.79,0,0,0,555.08,225.12Zm0,17.3a7.51,7.51,0,1,1,7.5-7.51A7.51,7.51,0,0,1,555.08,242.42Z" fill="#ff4778"/>
      <path d="M565.86,239.64c-.65-2.33-1.23-5.67-1.74-5.62-2.22.2,0,4.46-.56,5.8s.9.53.9.53Z" fill="#7a5068"/>
      <path d="M593.16,425.21c-1.12-.78-3.47-.73-5.81,2.47-1.69,2.3-4.67,9.66-7.5,11.38-2,1.18-3,3.07,0,3,3.54-.07,15.3-11.34,14.84-13.15,0-.1-.05-.19-.07-.28C594.16,426.93,593.75,425.63,593.16,425.21Z" fill="#4f5fe4"/>
      <path d="M579.85,442.07a6.7,6.7,0,0,0,5.42-2.17c3.76-3.64,8.38-7.76,8.74-8.32.63-1,1.1-1.85.68-2.66s-2.45-.78-4.18.95c-.54.54-4.38,6.61-7.75,10.53A4.58,4.58,0,0,1,579.85,442.07Z" fill="#2c369e"/>
      <path d="M607.56,413c-1.13-.45-2.59-.23-4.28,1.71-1.89,2.16-2.47,10.49-5.9,11.84-2.36.94-3.32,2.86.6,3.38,4.69.63,12.51-10.86,11.55-13C609.48,416.85,609.05,413.61,607.56,413Z" fill="#4f5fe4"/>
      <path d="M598,429.94s3.26.33,5.32-1.37a19.31,19.31,0,0,0,5.08-7c.6-1.72,1.66-3.32,1.15-4.57s-2.2-1.62-3.92.22c-1.48,1.59-.93,7.21-4.64,10.93A6.78,6.78,0,0,1,598,429.94Z" fill="#2c369e"/>
    </g>
    <g>
      <path d="M508,190.43S528.39,213.68,546.8,224a7.23,7.23,0,0,1,3.63,3.14c.66,1.12,1.58,2.54,1.7.35.09-1.88,1.45-1.29,2.85-.43s2,1.5,2.86,1.33c1.32-.26,1.16-1.22-3.22-3.88s-5-2.34-6.35-3.61c-1.06-1-16.46-16.21-16.46-16.21l-17.38-20.24S508.35,186.57,508,190.43Z" fill="#ebb0b0"/>
      <path d="M512.38,282.78l-.59,3.2a11.35,11.35,0,0,1-1,2.54,1.38,1.38,0,0,0-.32,1.12l4.39,4.29,1.35-2s-1.31-2.08-1.19-2.77a21.18,21.18,0,0,1,.66-2.31l1.22-3.71Z" fill="#fff"/>
      <path d="M509.74,194.42a71.39,71.39,0,0,1,6.93,5.19s8.72-2.39,5.13-6.58c-.26-.31-6.16-8.37-6.16-8.37Z" fill="#ff4778"/>
      <path d="M513.52,296.48c-2.8-1.31-5.41-3.73-4.12-5.77.47-.73,1.52-2.32,1.52-2.32.72,2.33,5,3.81,5.31,3.52,0,0,10.35,6.81,10.08,8.18a2.71,2.71,0,0,1-.29.56C525.12,301.76,516.05,297.66,513.52,296.48Z" fill="#001370"/>
      <path d="M504.48,306.46s-.89,4.14-1.16,4.88,8.08,5.23,5.75-2.51a17.78,17.78,0,0,1,0-4Z" fill="#fff"/>
      <path d="M507.22,315.86c-2.84-1-5-2.36-4.34-4.68a26,26,0,0,1,1.14-2.62c.5,1.76,5.12,3.19,5.45,2.35,0,0,11.12,6.14,11.29,7.58a2.46,2.46,0,0,1-.11.64C520.09,320.49,510,316.85,507.22,315.86Z" fill="#001370"/>
      <path d="M491.63,215.57c19.29,4.48,46.8,15.26,46.81,26.54,0,7.5-22.26,45.58-22.26,45.58s-3.94-.36-4.87-1.83c0-3.47,18-38.57,12.67-41.52-10.41-5.74-35.2-8.09-35.2-8.09Z" fill="url(#Безымянный_градиент_34)"/>
      <path d="M472.72,229.15c.07,12.25,33.13,23.74,34,28.54,1.4,7.84-2.22,48.77-2.22,48.77.68,1.37,4.56,1.74,4.57.45,0,0,10.68-51.91,9.75-55.28-1.59-5.71-15.93-14.82-21.17-22.64-1.76-2.62-6.67-10.46-6.67-10.46S472.61,209.1,472.72,229.15Z" fill="#1a5dff"/>
      <path d="M477.06,236.25s-11.54.94-8.61-22.49c2.44-19.49,10.77-27.13,28.28-36.88,16.41-9.13,20.42,3.44,19.3,10.61-.11.73-5.16,9.22-8.53,19.52-1.68,5.15-3.47,11.05-3,16.06.6,5.83-24.33,12.37-24.33,12.37l-1.71-11.67Z" fill="#ff4778"/>
      <path d="M530.65,181.49c-4.87,9.44-6.49,9.5-8.57,9s-2.07-1.87-4.35-2.76-3,1.19-5.39,1.89c-1.67.49-2-4.54-.26-6.66s2.24-4.45,5.88-3.22,4.4-1,8.91-1.07S530.65,181.49,530.65,181.49Z" fill="#ebb0b0"/>
      <path d="M531.39,176.29c4,4.81-.55,5.76-2.55,5.41a18.27,18.27,0,0,0-6.44.48c-2.6-3.75-4.47.58-3.53,1.4,1.43,1.22-5.14-1.39-7.49,4.09s-7.08,3.52-8.8-1.56c-1.55-4.6-3.56-9.9-8.11-7.67S481.42,186.77,478,190.8c-5.55,6.59-8.31,15.83-8.31,15.83-.59-3.52-4.85,1.29-6.26-3.45-2.19-7.33,4-16.43,12.16-17.62,6.92-1,8.47-4.43,12.43-12s17.69,1.17,22.48-.66C525,167.38,526,169.71,531.39,176.29Z" fill="#001370"/>
      <path d="M492.51,203.67c4.46,14.43,5.45,21,18.87,25S531.27,230.83,534,234s1.86.15,1.63-.38-2.19-4.2-3.91-5.33a6.41,6.41,0,0,0-4.47-1.17c-1.82.07-19.4-2-21.74-9.55-1.64-5.29-3.75-16.38-3.75-16.38l-6.13-2.46Z" fill="#ebb0b0"/>
      <path d="M499.11,180.41c2.66,5.48,2.66,20.78,2.66,20.78s-7.71-1.28-9.26,2.48c0,0-3.58-8.4-2.93-13.08S497.6,177.28,499.11,180.41Z" fill="#ff4778"/>
    </g>
    <path d="M384.72,457.91c-1.35.83,11.8,6.52,13.53,6.6s-.92-3.67,0-4.33S465.68,463,465.68,463l-3.05-12.18s-67.29,4.4-71.65,5.46S384.72,457.91,384.72,457.91Z" fill="url(#Безымянный_градиент_50)"/>
    <g>
      <path d="M451.45,308.27a2.26,2.26,0,0,0-1.42-2.18c-.78-.18-1.4.5-1.38,1.52l1.54,123.27,2.82,1.63Z" fill="#d8dae5"/>
      <path d="M480,324.68a2.25,2.25,0,0,0-1.43-2.18c-.77-.18-1.39.5-1.38,1.52l1.55,123.32,2.82,1.63Z" fill="#d8dae5"/>
      <path d="M479.2,346.24a1.14,1.14,0,0,1-.72-.16L450,329.67a2.47,2.47,0,0,1-1-2.49c.18-.94.94-1.36,1.69-.92l28.51,16.41a2.47,2.47,0,0,1,1,2.49A1.21,1.21,0,0,1,479.2,346.24Z" fill="#d8dae5"/>
      <path d="M479.53,372.05a1.26,1.26,0,0,1-.73-.17l-28.51-16.41a2.49,2.49,0,0,1-1-2.49c.18-.94.94-1.35,1.7-.92l28.5,16.41a2.48,2.48,0,0,1,1,2.49A1.24,1.24,0,0,1,479.53,372.05Z" fill="#d8dae5"/>
      <path d="M479.85,397.69a1.12,1.12,0,0,1-.73-.17l-28.51-16.4a2.51,2.51,0,0,1-1-2.5c.18-.94.94-1.35,1.7-.92l28.5,16.41a2.49,2.49,0,0,1,1,2.49A1.23,1.23,0,0,1,479.85,397.69Z" fill="#d8dae5"/>
      <path d="M480.17,423.33a1.18,1.18,0,0,1-.73-.16l-28.5-16.41a2.48,2.48,0,0,1-1-2.49c.19-.94,1-1.36,1.7-.92l28.51,16.41a2.49,2.49,0,0,1,1,2.49A1.22,1.22,0,0,1,480.17,423.33Z" fill="#d8dae5"/>
    </g>
    <g>
      <path d="M409.48,452.47a1.61,1.61,0,0,1-1.55-2l39.52-143.62a1.61,1.61,0,0,1,3.11.86L411,451.29A1.62,1.62,0,0,1,409.48,452.47Z" fill="#fff"/>
      <path d="M438.58,469.27a2.1,2.1,0,0,1-.43,0,1.61,1.61,0,0,1-1.12-2l39.53-143.61a1.61,1.61,0,1,1,3.1.85L440.13,468.09A1.6,1.6,0,0,1,438.58,469.27Z" fill="#fff"/>
      <path d="M473.48,342.46a1.55,1.55,0,0,1-.8-.21l-29.1-16.8a1.61,1.61,0,0,1,1.6-2.79l29.11,16.8a1.6,1.6,0,0,1,.58,2.2A1.57,1.57,0,0,1,473.48,342.46Z" fill="#fff"/>
      <path d="M467.52,364.12a1.56,1.56,0,0,1-.8-.22l-29.1-16.8a1.61,1.61,0,0,1,1.61-2.79l29.1,16.8a1.61,1.61,0,0,1-.81,3Z" fill="#fff"/>
      <path d="M461.6,385.63a1.65,1.65,0,0,1-.8-.21l-29.11-16.8a1.61,1.61,0,0,1,1.61-2.79l29.1,16.8a1.61,1.61,0,0,1-.8,3Z" fill="#fff"/>
      <path d="M455.68,407.15a1.69,1.69,0,0,1-.81-.21l-29.1-16.8a1.61,1.61,0,0,1,1.61-2.79l29.1,16.8a1.61,1.61,0,0,1-.8,3Z" fill="#fff"/>
      <path d="M449.75,428.67a1.65,1.65,0,0,1-.8-.21l-29.1-16.81a1.61,1.61,0,1,1,1.61-2.78l29.1,16.8a1.61,1.61,0,0,1-.81,3Z" fill="#fff"/>
      <path d="M443.83,450.19a1.56,1.56,0,0,1-.8-.22l-29.1-16.8a1.6,1.6,0,1,1,1.6-2.78l29.11,16.8a1.61,1.61,0,0,1-.81,3Z" fill="#fff"/>
    </g>
    <g>
      <path d="M395.07,459.89c3.17,2.65,3.82,2.39,4.23,4.22s-4.66.74-7.05-.15a7.77,7.77,0,0,1-2.95-2c-1-1.3-2-.65-3.86-1.3s-2.11-2.47-1.29-5.32,6.27-.05,7.45.86A35.9,35.9,0,0,1,395.07,459.89Z" fill="#000070"/>
      <path d="M393.72,311.86c1.57-3.39,3.16-1.16,4-5.32s-.82-9.64-6.84-13.61-9.84.79-10.5,7.8a18.43,18.43,0,0,0,3.42,12.15l5.65,1.94Z" fill="#ebb0b0"/>
      <path d="M427.79,419c.91,3.07,1.4,4,2,4.79s4.79-.3,5.15-1,1.26.06,1.66.36,8.28-.83,8.29-1.77c0-3.67-2.15-.5-7.35-2.36-9.05-3.23-6-4.66-6-4.66Z" fill="#000070"/>
      <path d="M434.07,417.28c-5.85-37.21-3.67-40.95-9-44.23s-24.32-13-24.32-13l-5.61,17.76s21.46,10.07,22.2,12.15c2.38,6.61,2.61,8.84,4.92,15.33,2.87,8.06,4.5,12.22,5.33,14.54S434.54,420.23,434.07,417.28Z" fill="#001370"/>
      <path d="M445.4,330.19c2.83.21,4.1,1.58,5.42,1.7A2.6,2.6,0,0,0,453,330.8s-3.5-1.58-3.6-3.07,1.53-.91,2.14-.79a32.71,32.71,0,0,1,4.11,1.82,6,6,0,0,0-1.24-5.45c-2.18-2.43-5.82-2.29-11.08.75S445.4,330.19,445.4,330.19Z" fill="#ebb0b0"/>
      <path d="M401.39,379.93c-2.24,15.84-4.66,23.39-5.85,35.48s-2.74,31.06-4.19,38c-1,4.66-7.34,4.18-6.94,0,.39-4-.81-31.49-1.72-38.76s-2.31-38.59-2.31-38.59L400.79,360Z" fill="#001370"/>
      <path d="M361.17,358.9s7.48-29.23,14.72-34.62l4.74-4.27c2.92-4.62,3.17-7.13,3.17-7.13,4.9,1.26,9.92-1,9.92-1s-1,2.87.08,4.09h0c7.12,1.4,18.26,9.15,23.16,10.2,5.64,1.2,15.44-.19,26.34-2.09,1.51-.27,3.24,5.65,1.87,6.34-11.74,5.84-16.55,9.09-26.49,7.31s-12.51-1.06-14.79,2.26,1.75,15.84,6,23.31c3.72,6.51-7.36,7.3-11.71,8.88s-6.21,16.31-15.69,17.76c-4.26.66-7.2-21.41-9.45-33.11l-4.54,7.77Z" fill="#1a5dff"/>
      <rect x="334.92" y="360.94" width="87.18" height="20.78" rx="10.39" transform="translate(-134.95 239) rotate(-30)" fill="#f1f2f7"/>
      <path d="M397,299.84c-2.32.62-2.5,2.49-3.34,4.72s-2.89,1.39-4.49-.55-.91-2.95-1.95-4.17-2.08-1.62-1.29-2.86,2.49-.16,3.67-1.24,2.95-1.65,3.44-1.2l1.69,1.7s.86-1.94-2-4.32a8.78,8.78,0,0,0-10.54-.32,18.71,18.71,0,0,0-5.57,8c-2.18,5.6,4.57,10.63,6.09,11.43,1.19.63,2.69-1.42,3.23-3.7s.22-2-1.09-2.77-1.92-3.15-.52-3.68,2-.34,2.75.9,2.08,7,3.17,7.93,3.48-1.69,5.33-1.78c.72,0,1-.06,1.19,0a.38.38,0,0,1,.29.58l-.21.36C400.6,308.35,399.61,299.12,397,299.84Z" fill="#000070"/>
      <ellipse cx="347.7" cy="389.11" rx="6.6" ry="8.06" transform="translate(-147.97 225.98) rotate(-30)" fill="#f6f7fb"/>
      <path d="M370.92,363.71c4,.38,10.64,9.35,13.11,9.52s-3.62,3.69-3.62,3.69l-15.71-9.54S369.12,363.54,370.92,363.71Z" fill="url(#Безымянный_градиент_50-2)"/>
      <path d="M378.82,372.36c4.07,1.51,7.9-1.38,8.5-.2s-3.34,2.16-3.05,2.63,2.58.53,5.56.79,1.47,5.09-3.4,5.49-6.51-1.85-9.55-2.31S378.82,372.36,378.82,372.36Z" fill="#ebb0b0"/>
      <path d="M362.27,354.88c-6.54,16.22-5.48,21.54,5.82,23.62,6.9,1.28,9.27,1.53,9.27,1.53a31.45,31.45,0,0,1,1.46-7.67s-7.62-5.06-9.82-7.5C367,362.69,362.27,354.88,362.27,354.88Z" fill="url(#Безымянный_градиент_17)"/>
      <path d="M416.26,349.53a10.4,10.4,0,0,0-14.2-3.8L375.2,361.24c8.36-3,15.4,2.76,23.77,3.27s16.94-4.11,17-4.14A10.42,10.42,0,0,0,416.26,349.53Z" fill="url(#Безымянный_градиент_50-3)"/>
    </g>
    <g>
      <polygon points="418.49 620.07 418.49 556.09 337.84 509.53 337.84 571.77 410.58 613.77 418.49 644.34 418.49 620.07" fill="#d8dae5"/>
      <polygon points="418.49 556.09 418.49 572.11 337.84 525.55 337.84 509.53 418.49 556.09" fill="#88869c"/>
      <polygon points="358.56 542.62 358.56 578.28 350.37 573.55 350.37 537.89 358.56 542.62" fill="#ff4778"/>
      <polygon points="371.42 572.31 371.42 585.7 363.23 580.98 363.23 567.58 371.42 572.31" fill="#001370"/>
      <polygon points="397.92 593.24 397.92 601 389.74 596.28 389.74 588.51 397.92 593.24" fill="#001370"/>
      <polygon points="384.47 566.24 384.47 593.24 376.29 588.51 376.29 561.52 384.47 566.24" fill="#fff"/>
    </g>
    <g>
      <polygon points="1079.5 498.68 1079.5 434.69 1160.15 388.13 1160.15 450.37 1087.4 492.37 1079.5 522.94 1079.5 498.68" fill="#f1f2f7"/>
      <polygon points="1079.5 434.69 1079.5 450.71 1160.15 404.15 1160.15 388.13 1079.5 434.69" fill="#d8dae5"/>
      <g>
        <path d="M1149.16,450a2.35,2.35,0,0,0,1.06-1.84c0-.68-.47-1-1.06-.62-3,1.72-3.91.23-5.2-1.83-1.49-2.4-3.36-5.37-9.31-1.93-4.46,2.57-6.74,1.21-9.37-.37s-5.8-3.48-11.66-.1c-4.42,2.56-6.46,6.14-8.43,9.61-2.38,4.18-4.84,8.5-12.07,12.68a2.33,2.33,0,0,0-1.06,1.84c0,.68.47,1,1.06.62,8.13-4.69,11.16-10,13.59-14.3,1.89-3.32,3.39-5.95,6.91-8,5-2.86,7.48-1.36,10.14.24s5.53,3.32,10.89.22c4.67-2.69,5.95-.65,7.43,1.72C1143.41,450.08,1144.91,452.48,1149.16,450Z" fill="#001370"/>
        <path d="M1120,459.62h0c5.2-3,8.33-8.65,12-15.17,3.34-6,7.11-12.79,13.4-19a2.09,2.09,0,0,0,.64-1.94c-.2-.52-.82-.5-1.37.05-6.76,6.72-10.72,13.84-14.21,20.13s-6.14,11-10.42,13.51h0c-6.84,3.95-9.86,1.07-13-2-2.9-2.77-5.89-5.63-11.79-3.16a2.32,2.32,0,0,0-1.2,1.75c-.08.72.33,1.1.91.85,5-2.1,7.62.39,10.38,3C1108.43,460.71,1112.07,464.18,1120,459.62Z" fill="#ff4778"/>
      </g>
    </g>
    <g>
      <polygon points="221.68 360.78 221.68 298.08 141.04 344.64 141.04 406.88 213.78 364.88 221.68 385.04 221.68 360.78" fill="#f1f2f7"/>
      <polygon points="141.04 344.64 141.04 360.66 221.68 314.1 221.68 298.08 141.04 344.64" fill="#d8dae5"/>
      <polygon points="153.73 362.55 153.73 389.26 209.49 357.07 209.49 329.37 153.73 362.55" fill="#fff"/>
      <polygon points="163.48 368.45 155.35 373.15 155.35 363.76 163.48 359.06 163.48 368.45" fill="#ff4778"/>
      <polygon points="207.93 342.79 199.8 347.49 199.8 338.09 207.93 333.4 207.93 342.79" fill="#001370"/>
      <polygon points="207.93 355.12 199.8 359.81 199.8 350.42 207.93 345.72 207.93 355.12" fill="#001370"/>
    </g>
    <g>
      <polygon points="619.72 238.22 619.72 174.24 700.37 220.8 700.37 283.04 628.41 241.49 619.72 262.48 619.72 238.22" fill="#f1f2f7"/>
      <polygon points="700.37 220.8 700.37 236.81 619.72 190.25 619.72 174.24 700.37 220.8" fill="#d8dae5"/>
      <g>
        <g>
          <path d="M665.7,251.85c-5.27-2.93-9.63-10.29-9.73-16.43a9.89,9.89,0,0,1,.48-3.38l-5.18-4.86a15.65,15.65,0,0,0-.72,5.22c.16,9.64,7,21.18,15.26,25.77,4.81,2.68,9.05,2.41,11.72-.19l-4.29-6.31C671.54,253.38,668.81,253.58,665.7,251.85Z" fill="#fff"/>
          <path d="M651.27,227.18l5.18,4.86c1.23-3.62,4.72-4.77,8.89-2.45a17.1,17.1,0,0,1,4.77,4.1l2.41-4.23a26.82,26.82,0,0,0-7.28-6.2C658.67,219.62,653.17,221.45,651.27,227.18Z" fill="#001370"/>
          <path d="M673.24,251.67l4.29,6.31a10.85,10.85,0,0,0,2.91-7.16l-5.4-3.68A7,7,0,0,1,673.24,251.67Z" fill="#ff4778"/>
        </g>
        <path d="M672.52,229.46l-2.41,4.23a23.63,23.63,0,0,1,2.62,4l4.06-1.81A36.23,36.23,0,0,0,672.52,229.46Z" fill="#001370"/>
        <path d="M675,247.14l5.4,3.68a17.35,17.35,0,0,0,.06-1.79,30.11,30.11,0,0,0-3.71-13.19l-4.06,1.81a19.1,19.1,0,0,1,2.34,8.37A10.26,10.26,0,0,1,675,247.14Z" fill="#001370"/>
      </g>
      <polygon points="641.08 216.51 636.51 213.87 636.51 208.59 641.08 211.23 641.08 216.51" fill="#001370"/>
      <polygon points="641.08 224.43 636.51 221.79 636.51 216.51 641.08 219.15 641.08 224.43" fill="url(#Безымянный_градиент_46)"/>
      <polygon points="641.08 232.35 636.51 229.71 636.51 224.43 641.08 227.07 641.08 232.35" fill="#ff4778"/>
    </g>
    <g>
      <polygon points="1064.56 702.9 1064.75 705.16 1062.05 708.08 1059.46 706.59 1059.48 705.42 1059.15 702.9 1064.56 702.9" fill="#fff"/>
      <path d="M1089.83,714.74l.27,2.27-2.85,2.37-2.21-1.2c-.15-.09-1.21-3.7-1.21-3.7Z" fill="#fff"/>
      <path d="M1042.32,525.77l-5.65-9.66a35.94,35.94,0,0,0-5.09-7.54c-4.66-4.83-8.65-1.82-8.13-.79,1.68,3.34,4.87,9.19,7.63,12.37,3.49,4,6.8,11.62,6.8,11.62Z" fill="#ebb0b0"/>
      <path d="M1097.18,609.57c-3.11,27.71-6.54,35.17-9.84,55.3-1.77,10.82.17,25.89,2.74,49.73.22,2-7.57,1.95-8.14,0-5.28-18-11.9-41.58-13.15-50.63-1.58-11.51-.4-34-.4-34l7.08-25Z" fill="#001370"/>
      <path d="M1066.33,600.68c-11.51,25.39-16.28,39.1-16.79,50.05-.47,9.83,1.84,28.64,8.41,52.06.47,1.68,6.94,1.74,7,0,.6-25.35-.5-41.44,3.47-51.49,3.35-8.5,10.64-20.49,10.64-20.49l8.29-22.94Z" fill="#001370"/>
      <path d="M1072.19,557.11l-16-12.59-13.85-18.75-4.93,6.65s5.52,15.46,10,22.21c3,4.57,20,18.78,20,18.78Z" fill="#ff4778"/>
      <path d="M1080.82,616c-12.43,0-14.73-4.35-14.73-4.35l.21-32.91s3-16,2.87-16.09,4.32-4.51,4.18-2.55-.23,3.89,3.09,4.22,8.17-2.76,8.17-2.76l-1.32,5.19Z" fill="#fff"/>
      <polygon points="1042.32 525.77 1045.45 530.01 1039.23 537.31 1037.39 532.42 1042.32 525.77" fill="#001370"/>
      <path d="M1073.33,561.74c-1.5,2.6-3.47,17.25-3.54,22.08a230.94,230.94,0,0,1-1.87,25.21c-.66,4.44-9.92,27.5-9.92,27.5s-5.87-2.74-5.87-6.84c0-5,11.71-19.5,10.48-47.83-.33-7.47,3.17-18.28,4.79-21a16,16,0,0,1,3.29-4l2.54.49Z" fill="#ff4778"/>
      <path d="M1080,565.5s.3,69.34-2.1,77.33c0,0,23.16-4,25-10,6.33-21.11,0-60.31-8-67-7.27-6.07-9.06-7.19-9.06-7.19l-2.18,6.48Z" fill="#ff4778"/>
      <path d="M1075.81,558.3a28.59,28.59,0,0,0-3,4.78s-3.24-1.31-4.64-1.25c0,0,3-5.57,5.43-6.43S1075.81,558.3,1075.81,558.3Z" fill="#001370"/>
      <path d="M1084.87,557.5c-7.9-2.88,5.23-12.54-3.76-15.93s-13.81,11-12.82,13.56,5.33,1.06,5.67,3.49c0,.37.51,1.76.54,2.11.14,2.09.71,2.74,2.8,2.93h0a11,11,0,0,0,5-.69l2.32-.89Z" fill="#ebb0b0"/>
      <path d="M1089.92,559.87c-.81,3.17-1.11,4.36-4.19,7.68,0,0-5.19-2.11-5.78-2a29.82,29.82,0,0,0,3.66-4.84,8,8,0,0,0,1.26-3.16Z" fill="#001370"/>
      <path d="M1097.64,615.59l2,7.82s-3.75,2.38-14.49,4.52l-1.39-8.11S1093.84,617.78,1097.64,615.59Z" fill="#001370"/>
      <polygon points="1058.54 612.47 1060.26 615.96 1056.05 622.38 1053.92 617.7 1058.54 612.47" fill="#001370"/>
      <path d="M1072.19,544.42c2.4-2.3.88.32,1.14,1.06s3.45,0,4.5,1-1.35,4.6-.56,4.91,3.94-1.43,4,0-2.25,2-2.25,2,.35,3.09,2.63,2.32a7.6,7.6,0,0,0,5-4.48c1.08-2.51,1.54-7.09-2.46-9.68a10.29,10.29,0,0,0-9.25-1.18C1072.89,540.94,1072.19,544.42,1072.19,544.42Z" fill="#001370"/>
      <path d="M1030,517.16c-3.78-1-4.51-1.26-5.09-.34s6.18,3.32,6.18,3.32Z" fill="#ebb0b0"/>
      <path d="M1060,710.62c2.88-.54,5.36-.86,5.06-3.19-.08-.7-.3-2.27-.3-2.27-1.17.86-5.07,1.12-5.27.26,0,0-14.08,4.57-14.46,5.93a3.33,3.33,0,0,0,0,.63C1045.37,713.38,1057.13,711.16,1060,710.62Z" fill="#001370"/>
      <path d="M1084.51,724.71c1-.37,6.21-2.79,5.92-5.12-.09-.7-.36-2.86-.36-2.86-.75,1.63-4.82,1.56-5,1.45,0,0-7,4.28-7.42,5.64a2.66,2.66,0,0,0,0,.63C1078,725.85,1081.78,725.67,1084.51,724.71Z" fill="#001370"/>
      <path d="M1060.21,600s21.2-20,28.75-27.07c3.64-3.4,16,4.92,8.16,15.79-5.47,7.6-24.62,17.19-29.82,19.68-1.06.51-10.28-.12-13.38,0v-6.8Z" fill="#ff4778"/>
      <path d="M1025.81,606.59l6.21-1.11a14.25,14.25,0,0,1-1.57-2.25c-.48-1,.1-2.1.87-.93s3.48,2.68,3.48,2.68l19.12-3.43v6.8c-7-.14-16.89-1-18.69-.43C1025.28,611.28,1025.81,606.59,1025.81,606.59Z" fill="#ebb0b0"/>
      <polygon points="1059.08 600.25 1059.08 608.43 1053.02 608.33 1053.02 601.55 1059.08 600.25" fill="#001370"/>
    </g>
    <path d="M275.32,458.37c1.39,1.07.36,2.43,1.5,2.81s.57-2.54.57-2.54Z" fill="#7a5068"/>
    <path d="M299,502.46l13.76-8.81-17.7-10.22-3.8,2.2L278.92,468l-6.78,3.85,5.25,4.77,10,11.62C273.47,484.72,252,481.7,252,481.7l-6.29,11.43s36.15,2,39.19,8.13-2.77,25-2.77,25l3.52,11.4,10,6.72c2,.72,6.54.63,7-.28s-8-9.57-7.55-9.57S298.26,514.86,299,502.46Z" fill="url(#Безымянный_градиент_50-4)"/>
    <g>
      <g>
        <path d="M273.82,458.29l-.93,2.83s4.9,3.66,6.51,3.18,4-2,3.34-3.22a7.46,7.46,0,0,0-3.56-3.27C277.88,457.47,273.82,458.29,273.82,458.29Z" fill="#7a5068"/>
        <path d="M240.11,426.54c3.2,9.79,8.62,19.45,10.32,21.48,2.78,3.33,23.39,10.27,23.39,10.27l-.64,3.06s-22.69-3.48-29.47-7.48c-8.82-5.21-14.68-16.79-14.68-16.79Z" fill="#7a5068"/>
        <path d="M288.11,542.19c-2.86-1.38-4.73-1.5-5.13-3.06a3.89,3.89,0,0,1,.79-3l6.15,1s9.63,4.39,11.12,5.39c.82.54.08,2.34-3.16,2.44C295.77,545,292.6,544.35,288.11,542.19Z" fill="#000070"/>
        <path d="M288,536.12c1.23.88,2.44,1.21,2.54,1.6.45,1.95-5.3,3.35-6.84,1l-.52-1.5Z" fill="#fff"/>
        <path d="M289.88,529c-3.72,2.41-15.78,2.34-17.66,1.66C271.13,530.25,271,528,271,527a2.45,2.45,0,0,1,.86-2s3.17-.17,4.22-.08c1.62.14,11.73.81,13.68,1.37C291.29,526.79,290.44,528.62,289.88,529Z" fill="#000070"/>
        <path d="M275.34,524.33a14.8,14.8,0,0,0,2.19,1.06c1.91,1-6,2.69-6.2,1.2a21.58,21.58,0,0,1,0-3Z" fill="#fff"/>
        <path d="M268.76,462.54c14,5.92,6.61,54,7.28,61.36,0,0-4,2.25-5.53.39l-6.9-46-32.74,18.58-16.82-13.11S261.64,459.52,268.76,462.54Z" fill="#000070"/>
        <path d="M223.43,475s25.73,3.61,34.82,13.43c3.77,4.08,28.06,40.08,30,46.68.72,2.43-4.95,3.64-6.42,1.52-2.87-4.15-29.36-39.36-32.64-39.23-21.3.81-31.09-1.42-36.27-5.07-5.82-4.11-6.7-5.72-6.7-5.72L220,476.45Z" fill="#000070"/>
        <path d="M231.71,421.92c9.87,2,12.33,11,14.78,18.18,1.13,3.31-9,8-9,8Z" fill="#fff"/>
        <path d="M200.82,440.29c-.09-7.33,3.77-9.34,4.79-9.94,12.71-7.42,22.7-11.64,30.77-7,8.58,4.92,2.89,28.74,6.9,46.7,3.16,14.17-19.68,23.82-32.19,20.94C191.13,486.4,201,456.69,200.82,440.29Z" fill="#fff"/>
        <path d="M212.44,426.38c-2.41,1.83,2.69,5.5,7.32,5.22s7-3.09,6.45-4.72a5.85,5.85,0,0,0-4-3.82C219.77,422.24,212.44,426.38,212.44,426.38Z" fill="#ff4778"/>
        <path d="M226.75,407.27c4.35,10.88.46,14.68-2.07,15.54-1.6.54-1.23,1.66-.74,2.42a2,2,0,0,1-.1,2.38c-.78.92-2.4,1.85-5.78,1.6-3.65-.26-5.46-2.83-4-3.5a4.89,4.89,0,0,0,1.57-3.22c.07-1.3-6.21-14.95-.48-16.73S226.75,407.27,226.75,407.27Z" fill="#7a5068"/>
        <path d="M226.19,404.22a2.93,2.93,0,0,0-1.58.4,2.94,2.94,0,0,0-4.72-.67,2.93,2.93,0,0,0-2.15-1.06,3,3,0,0,0-2.69,1.53,3.11,3.11,0,0,0-1-.21,3,3,0,0,0-3,2.84v.08a2.94,2.94,0,0,0-.76,5.51,2.87,2.87,0,0,0-.69,1.79,2.94,2.94,0,0,0,2.83,3h.06a3.05,3.05,0,0,0-.14.8,2.94,2.94,0,0,0,5.88.22,3,3,0,0,1,.14-3.89,2.9,2.9,0,0,0-1-2.32,2.61,2.61,0,0,0,.08-.57,2.93,2.93,0,0,0,2.22-.9,2.94,2.94,0,0,0,5.08-1,2.81,2.81,0,0,0,1.26.33,2.94,2.94,0,1,0,.21-5.88Z" fill="#000070"/>
        <path d="M213.64,446.94c-4.33,9.34-7,20.1-7.1,22.74-.23,4.33,10.13,23.45,10.13,23.45l-2.56,1.8s-14.24-18-16.47-25.55c-2.91-9.82.69-22.28.69-22.28Z" fill="#7a5068"/>
        <path d="M198.72,495.2a.45.45,0,0,1,.58.26.46.46,0,0,1-.23.6.47.47,0,0,1-.35-.86Z" fill="#685952"/>
        <path d="M201.64,435a80.82,80.82,0,0,0-4.13,15.44s2.73,5.36,14.35,4.65c0,0,2.9-1.92,2.91-8.81S203.37,430.32,201.64,435Z" fill="#fff"/>
        <path d="M216.67,493.13c5,1.37,10.64,4.77,5,3.65,0,0,2,1.21,2.07,3,0,2.23-4.47,1.87-6.93-.85s-2.77-4.07-2.77-4.07Z" fill="#7a5068"/>
      </g>
      <path d="M253.27,469.91l11.39,6.57a2.58,2.58,0,0,0,2.63,0l18.45-10.64a.84.84,0,0,0,0-1.45l-11.39-6.58a2.65,2.65,0,0,0-2.64,0l-18.44,10.65A.84.84,0,0,0,253.27,469.91Z" fill="#fff"/>
      <path d="M266.92,475.93l4.79-6.72a4.91,4.91,0,0,1,1.54-1.4L291.94,457a.47.47,0,0,1,.47,0,1.86,1.86,0,0,1,.25.22c0,.11-.17.18-.25.3l-4.8,6.72a4.88,4.88,0,0,1-1.54,1.39l-18.69,10.79c-.08.05.07.24,0,.21a3.52,3.52,0,0,1-.4-.24A.34.34,0,0,1,266.92,475.93Z" fill="#d8dae5"/>
      <path d="M267.28,476.14l4.8-6.72a4.88,4.88,0,0,1,1.53-1.4l18.7-10.79a.35.35,0,0,1,.46.51L288,464.46a5,5,0,0,1-1.54,1.39l-18.7,10.8A.35.35,0,0,1,267.28,476.14Z" fill="#fff"/>
      <polygon points="261.49 465.12 268.24 461.22 272.14 463.47 265.38 467.37 261.49 465.12" fill="#d8dae5"/>
    </g>
  </g>
</svg>
