<?xml version="1.0" encoding="utf-8"?>
<!-- Generator: Adobe Illustrator 26.0.1, SVG Export Plug-In . SVG Version: 6.00 Build 0)  -->
<svg version="1.1" id="Layer_1" xmlns="http://www.w3.org/2000/svg" xmlns:xlink="http://www.w3.org/1999/xlink" x="0px" y="0px"
	 viewBox="0 0 1300 1000" style="enable-background:new 0 0 1300 1000;" xml:space="preserve">
<style type="text/css">
	.st0{fill:#1A5DFF;}
	.st1{fill:#FF4778;}
	.st2{opacity:0.2;fill:#F0F5FA;enable-background:new    ;}
	.st3{fill:#F0F5FA;}
	.st4{opacity:0.15;fill:#F5D5D5;enable-background:new    ;}
	.st5{opacity:0.15;}
	.st6{fill:#EBB0B0;}
	.st7{fill:#D63A63;}
	.st8{fill:#001370;}
	.st9{fill:url(#SVGID_1_);}
	.st10{fill:#F1F2F7;}
	.st11{fill:#D8DAE5;}
	.st12{opacity:0.15;fill:#000C47;enable-background:new    ;}
	.st13{fill:#FFFFFF;}
	.st14{opacity:0.3;}
	.st15{fill:#C3C5E6;}
	.st16{fill:#DFE1EB;}
	.st17{fill:#D5B1E3;}
	.st18{fill:#EDEDF5;}
	.st19{fill:#FF5482;}
	.st20{fill:url(#SVGID_00000151534841463369626970000012744027876174549912_);}
	.st21{fill:url(#SVGID_00000083080895673655915810000009250254993521342891_);}
	.st22{fill:url(#SVGID_00000172427143469541436110000002675198282837966979_);}
	.st23{fill:#91CCFF;}
	.st24{fill:#5999FF;}
	.st25{opacity:0.5;}
	.st26{fill:url(#SVGID_00000034808456718910341570000015570122834584996027_);}
	.st27{fill:#F6F6FA;}
	.st28{fill:#7A5068;}
	.st29{fill:#000070;}
	.st30{fill:#D5DBE4;}
	.st31{fill:#685952;}
</style>
<g>
	<g id="Layer1">
		<path class="st0" d="M150.1,412.4c-89.4,40.6-78.5,118.7-28.6,148.2s43.2,92.7,24.7,135c-21.2,48.5-30.3,98.2,17.5,131.5
			s160.6,41.8,240.4,3.6s174.5-52.3,254.3-27.8s132.2,101.3,234.7,105.3s173.8-49,173.8-49L223.1,372.1L150.1,412.4z"/>
		<polygon class="st1" points="1159.8,806.1 1076.1,853.2 893.5,747.8 975.4,699.6 		"/>
		<g>
			<path class="st2" d="M545.6,655.9c-7.9-2.6-14.3-7.9-28.6-7.9c-15.6,0-27.3,8.2-27.3,17.2c0,13.3,29.4,15.2,36.9,18.6
				s13.1,10,27.4,10c15.7,0,30.5-7.1,30.5-16.1C584.5,660.9,553.5,658.5,545.6,655.9z"/>
			<path class="st2" d="M540.6,660.4c-4.6-1.5-9-7-17.4-7c-9.2,0-16.6,4.3-16.6,9.5c0,11,15.9,8.4,20.3,10.4s8.6,6.9,17,6.9
				c9.2,0,16.6-4.3,16.6-9.5C560.5,660.9,545.2,661.9,540.6,660.4z"/>
			<path class="st3" d="M533.7,663.6c0,2.7-3.9,5-8.7,5s-8.7-2.2-8.7-5s3.9-5,8.7-5S533.7,660.8,533.7,663.6z"/>
			<path class="st3" d="M550.5,670.1c0,2.7-3.8,4.8-8.4,4.8s-8.4-2.2-8.4-4.8s3.8-4.8,8.4-4.8S550.5,667.4,550.5,670.1z"/>
		</g>
		<g>
			<path class="st4" d="M855.9,800.9c4.4,5.8,12,20,11.6,21.8s1.3,2.6,1.7,1s2.4-0.1,3.9,2.5s6-0.9,3.1-3.1s-5.2-2.4-7-6.3
				s-6.3-13.6-8.6-17.6S855.9,800.9,855.9,800.9z"/>
			<g class="st5">
				<path class="st6" d="M829.7,825.2c0,0,13.9,24.2,22.2,31.2c6.7,5.7,27.6,16.8,39.3,26.3c2,1.6,3.2,7.7,6.5,8s0.3-5.2-0.2-8.7
					s-1.3-2.2-4.8-4.4c-3.1-1.9-28.8-23.4-31.7-27.2S846.5,823,846.5,823L829.7,825.2z"/>
				<path class="st6" d="M840.5,822.7c0,0,20.2,21.2,31.8,28.7c7.4,4.7,33.9,0.7,36.3,1.2s5.4,6.8,8.8,6.6s-2.5-4.9-3.7-8.2
					s-3.2-2.1-6.8-2.3s-24.8-3.7-28.3-6.9s-22-24.2-22-24.2L840.5,822.7z"/>
				<path class="st7" d="M856,814.8c4.8,4.7,8.8,10.1,12.2,15.9l-9.8,9.1l-4.5-3.4l2.3,5.3l-12.8,4.9c-5.6-4.3-15.9-24.6-15.9-24.6
					C853.9,823,856,814.8,856,814.8z"/>
				<path class="st6" d="M827.9,823c-3.3-6.7-9.6-16.9-8.9-16.9s30.1,14.5,30.1,14.5L827.9,823z"/>
			</g>
			<path class="st6" d="M781.6,765.1c0.5-3.8-0.4-3.9-0.7-3.5s-0.3,1.5-0.7,1.5s-0.2-0.8-2.4-2.3s-7.4-3.7-7.2,0.7
				c0.1,1.5,5.5,2.9,6.1,4.7c0.5,1.2,1.5,2.2,2.8,2.7l1.8-1C781.2,767.8,781.5,765.6,781.6,765.1z"/>
			<path class="st6" d="M817,790.2c-2.8,14.2,6.3,26.4,21.9,32.6s19.5-5.3,17.1-8.1c-19.5-21.6-9.1-21.1-17.6-31.7
				C831.2,774.4,818.5,782.5,817,790.2z"/>
			<path class="st6" d="M828.4,781.1c0-0.8-3.3-0.3-5.2-1.8c-1.7-1.4-3.2-3-4.6-4.8l-3.2,9c0,0,3.9,1.8,3.3,2.6
				C815.4,790.9,828.3,781.9,828.4,781.1z"/>
			<path class="st6" d="M815.4,783.6c-2.5-1.1-5-1.9-7.7-2.5c-1.4-0.3-5.6-4.1-4.5-9.1c1.3-6.1,9.4-11.2,15.4,2.6L815.4,783.6z"/>
			<path class="st8" d="M805,769.5c0.8,3.2,5.1,5.9,5.6,6.5s-0.1-0.9,0.6-1.1s1.9,0.5,1.3,2.3s2.8,3.4,3.8,4s4.7,1.1,5.9,0.4
				s-1.2-8.2-0.6-12.5s0.3-6.7-3.6-6.1s-3.3-4.4-6.8-3.3s-2.6,3.9-5.8,3.7S804.7,768.2,805,769.5z"/>
			<path class="st6" d="M782.3,767c-1.5-1.7-3.9-0.4-3.8,0.8s12,21.4,17.1,25.9c8.8,7.9,24.9,12.9,28.6,5.6
				c5.5-10.6-3.9-7.5-19.8-11.4C794.4,785.5,782.3,767,782.3,767z"/>
			<path class="st6" d="M855.9,800.4c1.4,1.7,3.9,0.4,3.8-0.8s-2.6-6-7.7-10.6c-8.8-7.9-24.9-12.9-28.6-5.6
				c-5.5,10.6-1,4.7,14.9,8.5C844.7,793.6,850.7,796.5,855.9,800.4z"/>
			<path class="st7" d="M856,814.8c-2.9,4-10,7.1-19.4,7c0,0,8.9,5.7,17.1,4.3c6.2-1,6.3-4.2,5.2-6.7
				C858.2,817.8,857.2,816.2,856,814.8z"/>
		</g>
		<g>
			
				<linearGradient id="SVGID_1_" gradientUnits="userSpaceOnUse" x1="793.498" y1="502.8412" x2="709.498" y2="365.8412" gradientTransform="matrix(1 0 0 -1 0 1000)">
				<stop  offset="0" style="stop-color:#FFFFFF"/>
				<stop  offset="0.31" style="stop-color:#F8F9FA"/>
				<stop  offset="0.76" style="stop-color:#E5E6EE"/>
				<stop  offset="1" style="stop-color:#D8DAE5"/>
				<stop  offset="1" style="stop-color:#EFEFF3"/>
			</linearGradient>
			<path class="st9" d="M443.3,382V154.7c85.9,49.6,101.1,157.2,180.6,203.1s108.9,25.6,180.6,67.1s95.1,168,180.6,203.4
				c129.3,53.6,89.2,90.3,182.6,172L443.3,382z"/>
			<path class="st10" d="M1067.9,580.6c-85.6-35.5-108.9-162-180.6-203.4S786.1,356,706.6,310.1S611.8,156.5,525.9,107l-82.6,47.7
				c85.9,49.6,101.1,157.2,180.6,203.1s108.9,25.6,180.6,67.1s95.1,168,180.6,203.4c129.3,53.6,89.2,90.3,182.6,172l82.6-47.7
				C1157.1,670.8,1197.2,634.2,1067.9,580.6z"/>
			<path class="st11" d="M985.2,628.3c-85.6-35.5-108.9-162-180.7-203.4s-101.1-21.1-180.6-67.1c-77.7-44.8-94-148.5-174.7-199.5
				l-5.9-3.6v3.4c85.9,49.6,101.1,155.7,180.6,201.6s108.9,25.6,180.6,67.1s95.1,168,180.6,203.4c119.3,49.5,96.4,87.1,165.2,156.4
				l10.3,9.5l7.2,4.1C1074.4,718.5,1114.6,681.9,985.2,628.3z"/>
			<path class="st12" d="M1024.6,646.8c-12.8-6.8-26-13-39.4-18.5c-42.1-17.5-69.2-57-94.3-97.6c-22.3-1.8-45.2-4.8-81.4-25.7
				c-32.2-18.6-56.1-61.5-78-108.7c17.2-38.6,4.8-55.3-34.2-85.8s-123.2-90.1-170.2-66.7c-22,12-46.2,19-78.9,0.1l-5-2.9V382
				l258,149l73.8,42.6l129,74.5l-10.6,99.8h150.7l17-9l0,0L1024.6,646.8z"/>
		</g>
		<g>
			<path class="st13" d="M712.9,553.1C633.3,507.2,604,312.4,532.2,270.9s-100.4,67.4-180.6,21l-117.9-68v142.9l118,68.1
				l541.9,312.9V608.3C807.7,558.8,792.4,599,712.9,553.1z"/>
			<path class="st1" d="M794.7,504.9C715.2,459,685.9,264.2,614.1,222.8s-100.4,67.4-180.6,21.1L351.6,292
				c80.2,46.3,108.9-62.5,180.6-21s101.1,236.2,180.6,282.1s94.8,5.7,180.7,55.2l81.8-48.2C889.5,510.6,874.3,550.8,794.7,504.9z"/>
			<path class="st7" d="M893.5,608.3c-85.9-49.6-101.1-9.3-180.7-55.2S604,312.4,532.2,270.9c-68.8-39.7-98,58.6-171,26l-9.7-5v6.2
				c80.2,46.3,108.9-62.5,180.6-21s101.2,236.3,180.7,282.2s94.8,5.7,180.7,55.2V608.3z"/>
			<g class="st14">
				<path class="st15" d="M712.9,644.5c-0.6,0-1-0.4-1-1v-66c0-0.6,0.4-1,1-1s1,0.4,1,1v66C713.9,644,713.4,644.5,712.9,644.5z"/>
				<path class="st15" d="M532.2,540.2c-0.6,0-1-0.4-1-1V295.4c0-0.6,0.4-1,1-1s1,0.4,1,1v243.8
					C533.2,539.7,532.8,540.2,532.2,540.2z"/>
				<path class="st15" d="M803.2,696.6c-0.6,0-1-0.4-1-1V604c0-0.6,0.4-1,1-1s1,0.4,1,1v91.7C804.2,696.2,803.7,696.6,803.2,696.6z"
					/>
				<path class="st15" d="M622.5,592.3c-0.6,0-1-0.4-1-1v-150c0-0.6,0.4-1,1-1s1,0.4,1,1v150C623.5,591.9,623.1,592.3,622.5,592.3z"
					/>
				<path class="st15" d="M441.9,488c-0.6,0-1-0.4-1-1V310.4c0-0.6,0.4-1,1-1s1,0.4,1,1V487C442.9,487.6,442.5,488,441.9,488z"/>
				<path class="st15" d="M354,437.3c-0.6,0-1-0.4-1-1V315.5c0-0.6,0.4-1,1-1s1,0.4,1,1v120.8C355,436.8,354.6,437.3,354,437.3z"/>
			</g>
			<polygon class="st16" points="975.4,560.2 975.4,699.6 893.5,747.8 893.5,608.3 			"/>
			<polygon class="st17" points="893.5,608.3 893.5,614.5 975.4,567.3 975.4,560.2 			"/>
			<path class="st12" d="M403.2,401.2c-26-13.4-36.6-8-51.6-8v53l140.5,81.1C447,494.6,448.5,424.5,403.2,401.2z"/>
			<path class="st12" d="M792.4,700.7c-30.4-29.9-32.8-69.7-73.9-93c-51.9-29.5-85.6-7.5-126.8-22.8L792.4,700.7z"/>
			<polygon class="st1" points="433.5,243.8 351.6,292 233.6,223.9 317.8,177.1 			"/>
			<polygon class="st7" points="351.6,292 351.6,298.2 233.6,230.1 233.6,223.9 			"/>
			<g>
				<path class="st18" d="M532.2,382.5c-14.9-8.6-27-31.8-27-51.7s12.1-29,27-20.4s27,31.8,27,51.7S547.1,391.1,532.2,382.5z
					 M532.2,315.1c-13-7.5-23.5,0.5-23.5,17.8s10.5,37.4,23.5,44.9s23.5-0.5,23.5-17.8S545.2,322.6,532.2,315.1z"/>
				<path class="st19" d="M532.2,384.1c-15.6-9-28.2-33.2-28.2-54l5.7,3.3c0,16.6,10.1,35.9,22.5,43.1s22.5-0.5,22.5-17
					s-10.1-35.9-22.5-43.1v-7.6c15.6,9,28.2,33.2,28.2,54S547.8,393.1,532.2,384.1z"/>
				<g>
					<path class="st19" d="M530.7,337.4l-5.3,16.4l-3.3-1.9l5.4-16.4l-6.8-4v-3.9l10.1,5.8V337.4z"/>
					<path class="st19" d="M532.8,352.7v-0.5l3,1.8v0.2c0,0.7,0.2,1.4,0.5,2c0.3,0.6,0.8,1.1,1.4,1.4c0.7,0.4,1.1,0.4,1.4,0
						c0.4-0.6,0.5-1.4,0.5-2.1v-1.8c0-0.9-0.1-1.9-0.5-2.7c-0.3-0.7-0.8-1.3-1.5-1.6c-0.8-0.5-1.5-0.3-1.8,0.5l-2.8-1.7v-13.3
						l9.5,5.5v3.8l-6.6-3.8v5.3c0.8-0.3,1.8-0.2,2.5,0.4c1.5,0.8,2.6,2.1,3.3,3.7c0.8,1.8,1.2,3.7,1.1,5.6v2.2
						c0,2.1-0.5,3.6-1.4,4.2s-2.2,0.5-3.8-0.4C534.6,359.6,532.7,356.3,532.8,352.7L532.8,352.7z"/>
				</g>
			</g>
		</g>
		<g>
			<path class="st12" d="M659.1,390c10.2-14.5,33.1-29.1,31.8-38.1s-15.8-18.3-26.6-26.5s-18.2-22.8-18.1-36.9s-12.6-44.4-15.2-48.1
				s-7.3-3.2-3.8,2.2s8.1,30.6,5.8,38.6s-11,46.6,0,52.7s25.1,3,24.9,16S655.2,395.5,659.1,390z"/>
			<path class="st6" d="M638.4,288.5c0,0,10.9-18.2,12.4-24.2c0.9-3.7,0.3-25.2,0.1-27.9c-0.3-1.4-0.2-3,0.5-4.3
				c0.5-1,1.1-2.4-0.6-1.4c-1.4,0.9-1.7-0.4-1.8-1.9s0.1-2.3-0.5-2.8c-0.9-0.8-1.5-0.2-1.2,4.3s0.8,4.9,0.5,6.5
				c-0.2,1.3-1.9,25.7-1.9,25.7l-13,18.6C633,281.1,634.9,289,638.4,288.5z"/>
			<path class="st13" d="M656.8,380l-0.5,2.9c-0.2,0.8-0.5,1.6-0.9,2.3c-0.2,0.3-0.3,0.6-0.3,1l3.9,3.9l1.2-1.8c0,0-1.2-1.9-1.1-2.5
				c0.2-0.7,0.4-1.4,0.6-2.1l1.1-3.3L656.8,380z"/>
			<path class="st8" d="M657.8,392.3c-2.5-1.2-4.9-3.3-3.7-5.2c0.4-0.7,1.4-2.1,1.4-2.1c0.7,2.1,4.5,3.4,4.8,3.2c0,0,9.3,6.1,9,7.3
				c-0.1,0.2-0.1,0.3-0.2,0.5C668.2,397.1,660.1,393.4,657.8,392.3z"/>
			<path class="st13" d="M649.7,401.3c0,0-0.8,3.7-1,4.4s7.2,4.7,5.2-2.2c-0.1-1.2-0.1-2.4,0-3.6L649.7,401.3z"/>
			<path class="st8" d="M652.2,409.7c-2.5-0.9-4.5-2.1-3.9-4.2c0.2-0.6,1-2.4,1-2.4c0.5,1.6,4.6,2.9,4.9,2.1c0,0,10,5.5,10.1,6.8
				c0,0.2,0,0.4-0.1,0.6C663.7,413.9,654.7,410.6,652.2,409.7z"/>
			<path class="st13" d="M638.2,319.8c17.3,4,42,13.7,42,23.8c0,6.7-20,40.9-20,40.9s-3.5-0.3-4.4-1.6c0-3.1,16.2-34.6,11.4-37.2
				c-9.3-5.1-31.6-7.3-31.6-7.3L638.2,319.8z"/>
			<path class="st13" d="M621.2,331.9c0.1,11,29.7,21.3,30.5,25.6c1.2,7-2,43.7-2,43.7c0.6,1.2,4.1,1.6,4.1,0.4
				c0,0,9.6-46.6,8.7-49.6c-1.4-5.1-14.3-13.3-19-20.3c-1.6-2.4-6-9.4-6-9.4S621.1,314,621.2,331.9z"/>
			<path class="st10" d="M623.8,339.1c-8.4-5.5-20.9-29.2-14.2-50.1c7.1-22.2,26.1-10.4,29.2-1.2s-1.7,19.6,13.8,32.5
				c8.5,7.1-15.5-0.8-25.3,9.6C621.4,336.3,628.4,342.1,623.8,339.1z"/>
			<path class="st8" d="M623,277c-5.3-0.7-6.3,4.3-10.1,2.2s-5.2-8-11.2-8s-3.2-12-13.3-12.7s-5.4-15.4,5.2-16.1s11.8-6.3,19.9-2.5
				s3.4,10.7,9.4,13.2s1.3,5.7,5.9,7.3s6.8,3.9,5.3,7.7S629.1,277.9,623,277z"/>
			<path class="st6" d="M608.5,291.4c0.6-9.1,2.2-13.3,1.3-23c-0.8-8-2.4-16-4.7-23.7c-1.2-3.6-4.6-4.4-4-9.2s5,3.4,7.1,2
				s2.9-1.1,2.1,0.5s-2.1,3.8-0.8,8.6s6.7,17.6,7.6,22.2c0.7,3.7,0.5,17.8,0.8,22.1S607.9,300.5,608.5,291.4z"/>
			<path class="st6" d="M632.4,265c5,8.1,4.3,9.4,2.9,10.8s-2.4,0.7-4.1,2s-0.5,2.9-1.1,5c-0.4,1.5-4.9-2.2-7-3.3
				c-3.5-1.8-0.5-3.4,2.1-5.6s1.2-3.9,3.3-7.3S632.4,265,632.4,265z"/>
		</g>
		<g>
			<path class="st12" d="M799.1,476.7c-4.6-3.9-5.6-37.3-3-45.4s11.3-8.5,11.3-8.5l-2.8,13.3C804.6,436,806.9,483.3,799.1,476.7z"/>
			<path class="st12" d="M818,485.9c-4.6-3.9-4.1-45.1-1.5-53.2l8,4.6C824.5,437.3,825.8,492.5,818,485.9z"/>
			<path class="st12" d="M836.6,391.9c20.6,0.3,24.5,5,32.1,4.6s13.2-6.7,22,0.2s-8.2,10.1-16.7,8c-6.9-1.7-12.8,7.4-14.4,11.1
				l6.4,4.1l-8.7,4.8c0,0-5.7,0.9-15.4,2.7s-17.5,9.9-17.5,9.9l-19.2-11.1L836.6,391.9z"/>
			
				<linearGradient id="SVGID_00000121961426897914216300000018050469247335499692_" gradientUnits="userSpaceOnUse" x1="-3608.1245" y1="472.2437" x2="-3616.4844" y2="468.6637" gradientTransform="matrix(-1 0 0 -1 -2713.27 1000)">
				<stop  offset="0" style="stop-color:#04007E"/>
				<stop  offset="1" style="stop-color:#BB1AFF"/>
			</linearGradient>
			<path style="fill:url(#SVGID_00000121961426897914216300000018050469247335499692_);" d="M790.6,475.4c1.3,1.3,1.1,4.2,0.2,5.2
				s-2.8,0.8-3.9,1.5c-2.9,1.9-9.6,3.4-11,2.5s-1.8-3.4,5.1-6c1.7-0.6,3.3-1.6,4.6-2.8L790.6,475.4z"/>
			<path class="st13" d="M790.5,473c0.1,1.1,0.2,2.3,0.5,3.4c0.1,0.4-0.1,0.8-0.4,1.1c-1.3,1.3-3.3,1.7-5,1c0,0-1.3-0.5-0.7-2.2
				c0.4-1.2,0.7-2.5,0.9-3.8L790.5,473z"/>
			
				<linearGradient id="SVGID_00000097478444353158929750000010741476032719910840_" gradientUnits="userSpaceOnUse" x1="-3609.7319" y1="471.9711" x2="-3616.4119" y2="469.1011" gradientTransform="matrix(-1 0 0 -1 -2713.27 1000)">
				<stop  offset="0" style="stop-color:#04007E"/>
				<stop  offset="1" style="stop-color:#BB1AFF"/>
			</linearGradient>
			<path style="fill:url(#SVGID_00000097478444353158929750000010741476032719910840_);" d="M813.1,484.7c1.3,1.3,1.1,4.2,0.2,5.2
				s-2.3,0.2-3,1.3c-2.5,4.3-6.9,3.8-8.5,3.6c-2.3-0.2-2.5-2.2,1.4-5.8c1.6-1.4,3-2.9,4.4-4.4L813.1,484.7z"/>
			<path class="st19" d="M828.5,380.4c4.5,10.9,5.5,16.3-3.6,26.8s-22.2,20.8-23.9,23.9s-3.7,9.9-9.4,41.8c-0.3,2-6.4,2.4-6.3-1.2
				c0-6.3,1.1-42.1,2.8-51s20-26.4,20-26.4L828.5,380.4z"/>
			<path class="st13" d="M813,482.3c0.1,1.1,0.2,2.3,0.5,3.4c0.1,0.4-0.1,0.8-0.4,1.1c-1.3,1.3-3.3,1.7-5,1c0,0-1.3-0.5-0.7-2.2
				c0.4-1.2,0.7-2.5,0.9-3.8L813,482.3z"/>
			<path class="st6" d="M805.5,373.8c-5.5,4.2-7.8,5.9-7.8,5.9l-5.4-2.9l7.7-11l2.6-2.1l3.5,4.9L805.5,373.8z"/>
			<path class="st19" d="M841.6,387.9c4.5,10.9,5.5,16.3-3.6,26.8s-19.7,16.6-21.4,19.7s-3.4,32.6-2.5,47.4c0.1,2-6.4,3.6-6.9,0
				c-0.6-4.5-4.5-45.5-2.8-54.4s16.8-25.5,16.8-25.5L841.6,387.9z"/>
			<path class="st13" d="M807.5,355.9l0.2,19.2c0,0-0.7-2-2.1-1.2c0,0,0.6-7.5-5.5-8.1C800,365.7,805.6,356.9,807.5,355.9z"/>
			<path class="st13" d="M845,395.3c-1.7,9.5-13.4,14.8-28.3,6.5s-7.9-11.5-7.6-19.4s1.9-10.7-1.5-22.4s17.1-5.4,25.7,1.8
				S846.5,386.6,845,395.3z"/>
			<path class="st8" d="M834.8,362c8.6,7.2,12.7,27.6,11.2,36.4c-1.3,7.5-10.6,16.1-21.2,13.6c0.2-1.4,1.2-10.3,1.2-13.4
				c0.3-12.9-6.5-20.3-4.7-36c0,0,7.6-3.5,0.9-6.6s-9.8-3.1-10.6-0.6s2.7,21.4,2.2,35.2c-0.2,5-2.2,12.1-2.4,14.5
				c-9.1-6.4-3.8-15.9-3.5-22.9c0.2-7.9-1-10.4-1.2-22.5C806.4,347.3,826.1,354.8,834.8,362z"/>
			<path class="st6" d="M817.7,348.3c3,6.3,5.1,7.9,5.7,9s-2.4,2.6-4.9,2.8l-1.6,4.2l-2.8-6.4c0,0-1.5-0.6-1.2-2s-0.5-2.5-0.9-3.4
				S817.7,348.3,817.7,348.3z"/>
			<path class="st6" d="M817.8,347.2c-0.1,4.5-3.8,6.4-6.8,7.1s-9.8-8.8-8.8-13s7.6-8.3,11.3-5.2S817.8,347.2,817.8,347.2z"/>
			<path class="st13" d="M807.2,382.8c0,0,0.1,0,0.1,0l4.9-1.3c0.3-0.1,0.4-0.4,0.4-0.6c0,0,0,0,0,0c-0.1-0.3-0.3-0.4-0.6-0.4
				c0,0,0,0,0,0l-4.9,1.3c-0.3,0.1-0.4,0.3-0.4,0.6c0,0,0,0,0,0C806.7,382.6,806.9,382.8,807.2,382.8z"/>
			<path class="st13" d="M830.3,362.8c5.3,1.4,9,9.4,10.6,16.9s-5.9,5.7-8.5,2.9S823.1,360.9,830.3,362.8z"/>
			<path class="st6" d="M806.8,381.1c1.9-0.4,2.1,0.6,3.8,2.9l0,0l16.5,6.4c0,0,2.6-21,3.8-24.2l7.9,13.4
				c-2.8,11.9-5.8,16.8-8.2,19.1c-1.9,1.9-16.8-7.3-22.7-11l0,0c0,0-1.9,0.4-5-2.1S804.7,381.6,806.8,381.1z"/>
			
				<linearGradient id="SVGID_00000111902108171989200480000012622592953018211993_" gradientUnits="userSpaceOnUse" x1="-3555.1104" y1="644.6768" x2="-3562.7402" y2="641.4968" gradientTransform="matrix(-1 0 0 -1 -2713.27 1000)">
				<stop  offset="0" style="stop-color:#04007E"/>
				<stop  offset="1" style="stop-color:#BB1AFF"/>
			</linearGradient>
			<path style="fill:url(#SVGID_00000111902108171989200480000012622592953018211993_);" d="M818.6,347.3c-0.6,3,2.6,1.3,3.3,3.1
				s-4,2.2-5.8,0c-1-1.3-1.9-0.8-0.8-2.5s-1.4-2.6-2.5-1.4s-2.3-0.1-2.8-1s-3.9,1.3-6.4,1.7s-5.9-0.4-5.4-3.5s1.9-1.4,2.4-2.6
				s-2.1-1.1-0.6-2.8s3.3,0.3,3.8-1s2.8-1.6,3.7-2.9s2.8,0.5,3.4,0s3.4-0.5,4.9,3.4s1.4,2.3,2.4,4.1S818.6,347.3,818.6,347.3z"/>
			<polygon class="st1" points="806,384.1 791.1,371.8 799.7,387.5 814.5,400.5 			"/>
			<path class="st6" d="M793.2,375.6c-3.9,5.2-2.1,7.6-1,9.1s12.1,8.3,13.7,11.1s5.4,2.1,6.7,1.4s2.1-3.2,1.2-5.1
				c-1-2.3-4.6-0.1-4.6-0.1l-13-10.9L793.2,375.6z"/>
			<path class="st13" d="M828.8,377.5c2.4-2,8.7,1.2,9.2,4.7l1.6-1.9l-4.2-12l-4.1-3.7l-2.1,1.5L828.8,377.5z"/>
		</g>
		<g>
			<path class="st23" d="M140.5,419.8l269,155.3c-55.3-31.9-76.7-117.6-134.5-150.4C216,391.2,193.9,450.6,140.5,419.8z"/>
			<path class="st0" d="M357.6,377c-59-33.5-81,26-134.5-4.9l-82.6,47.7c53.4,30.8,75.5-28.6,134.5,4.9
				c57.8,32.8,79.2,118.5,134.5,150.4l82.6-47.7C436.8,495.4,415.3,409.8,357.6,377z"/>
			<path class="st24" d="M275,424.7c-56.7-32.2-79.3,21.5-128.5-1.8l-0.3,0.2l21.3,12.3c35.8,2.9,59.4-31.4,107.4-4.1
				c47,26.7,70,88.6,106.8,127.8l27.7,16C354.1,543.2,332.7,457.5,275,424.7z"/>
		</g>
		<g>
			<path class="st23" d="M440.8,593.2l269,155.3c-55.3-31.9-76.8-91.1-134.5-123.9C516.3,591.1,494.2,624,440.8,593.2z"/>
			<path class="st0" d="M657.9,576.8c-59-33.5-81-0.6-134.5-31.4l-82.6,47.7c53.4,30.8,75.5-2.1,134.5,31.4
				c57.8,32.8,79.2,92,134.5,123.9l82.6-47.7C737.1,668.8,715.7,609.6,657.9,576.8z"/>
			<path class="st24" d="M575.3,624.5c-56.7-32.2-79.3-5-128.5-28.3l-0.3,0.2l21.3,12.3c15.7,9.1,59.5-4.9,107.4,22.4
				c47.1,26.7,83.7,88,106.8,101.3l27.7,16C654.4,716.5,633,657.3,575.3,624.5z"/>
		</g>
		<g>
			<path class="st8" d="M270.3,571c-17.9,10.3-47,10.3-65,0s-17.9-27.2,0-37.5s47.1-10.3,65,0S288.2,560.7,270.3,571z M210,536.2
				c-15.3,8.9-15.3,23.3,0,32.1s40.3,8.9,55.6,0s15.3-23.3,0-32.1S225.4,527.3,210,536.2z"/>
			<path class="st13" d="M284.4,547l-9.4,1c-1.4-4.3-5-8.2-10.4-11.2c-14.8-8.5-38.8-8.5-53.5,0l-6.8-3.9
				c18.5-10.7,48.6-10.7,67.1,0C278.1,536.8,282.6,541.6,284.4,547z"/>
			<g>
				<path class="st13" d="M229.6,562.8l-0.6-0.4l3.7-2.1l0.4,0.3c0.7,0.4,1.5,0.6,2.3,0.6c0.8,0,1.6-0.3,2.4-0.7
					c0.7-0.4,1.1-0.9,1-1.4s-0.5-1-1.3-1.5l-0.6-0.3c-0.8-0.5-1.8-0.8-2.8-0.8c-1,0-1.9,0.2-2.7,0.7l-1.1,0.6l-3.3-1.9l1-0.6
					c0.8-0.4,1.1-0.9,1.1-1.4c0-0.5-0.4-1-1.2-1.4l-0.4-0.3c-0.7-0.4-1.5-0.7-2.4-0.7c-0.8,0-1.6,0.2-2.3,0.6
					c-0.7,0.4-1.1,0.8-1,1.3s0.4,0.9,1,1.3l0.5,0.3l-3.6,2.1l-0.5-0.3c-1.7-1-2.6-2.1-2.5-3.3s1.1-2.3,2.9-3.4
					c1.8-1,3.8-1.6,5.8-1.6c1.9-0.1,3.9,0.4,5.6,1.4l0.5,0.3c0.8,0.4,1.4,1,1.8,1.8c0.3,0.6,0.2,1.4-0.1,2c1.3-0.3,2.6-0.4,3.9-0.2
					c1.3,0.2,2.6,0.7,3.7,1.3l0.6,0.3c1,0.5,1.9,1.3,2.4,2.3c0.4,0.8,0.3,1.7-0.1,2.5c-0.6,1-1.4,1.7-2.4,2.3
					c-1.8,1.1-3.8,1.7-5.9,1.8C233.3,564.3,231.3,563.8,229.6,562.8z"/>
				<path class="st13" d="M243.1,553l-7.4-4.2c-2.3-1.3-3.5-2.6-3.6-3.9c-0.1-1.3,0.8-2.5,2.9-3.7c1.9-1.2,4.2-1.8,6.4-1.7
					c2.4,0.1,4.7,0.9,6.7,2.1l7.4,4.2c2.4,1.4,3.7,2.7,3.8,4s-0.8,2.5-2.9,3.8c-2,1.2-4.2,1.8-6.5,1.7
					C247.6,555.1,245.2,554.3,243.1,553z M251.3,547.9l-6.4-3.7c-1.1-0.7-2.3-1.2-3.6-1.5c-0.9-0.2-1.9,0-2.7,0.5
					c-0.9,0.5-1.2,1-0.9,1.5c0.7,0.9,1.6,1.6,2.7,2.1l6.4,3.7c1.1,0.7,2.3,1.2,3.6,1.5c0.9,0.2,1.9,0,2.7-0.5c0.9-0.5,1.2-1,0.9-1.6
					C253.3,549.1,252.3,548.4,251.3,547.9L251.3,547.9z"/>
			</g>
		</g>
		<g>
			<path class="st6" d="M523.6,647.2c0,0-1,14.6-1.1,16.4s4.6,2.8,5.1,0s3.1-14.8,3.1-14.8L523.6,647.2z"/>
			<path class="st6" d="M542.8,654.1c0,0-3.1,14.4-3.4,16.2s4.3,3.2,5.1,0.5s4.1-12.7,4.1-12.7L542.8,654.1z"/>
			<path class="st6" d="M558.5,572.4c0,0-20.2,23.2-38.5,33.6c-1.5,0.6-2.8,1.7-3.6,3.1c-0.7,1.1-1.6,2.5-1.7,0.3
				c-0.1-1.9-1.4-1.3-2.8-0.4s-2,1.5-2.8,1.3c-1.3-0.3-1.1-1.2,3.2-3.9s4.9-2.3,6.3-3.6c1-1,16.3-16.2,16.3-16.2l17.1-20.2
				C552,566.5,558.1,568.6,558.5,572.4z"/>
			<path class="st1" d="M556.7,576.4c-2.4,1.6-4.7,3.3-6.9,5.2c0,0-8.6-2.4-5.1-6.6c0.3-0.3,6.1-8.4,6.1-8.4L556.7,576.4z"/>
			<path class="st1" d="M574.6,597.6c-19.1,4.5-43.6,15.3-47.5,25.9c-2.8,7.5-3.5,23.7-3.5,23.7s5.7,5.1,9.1,2.2
				c1.7-6,2.7-18.9,8-21.9c10.3-5.7,36.8-9.2,36.8-9.2L574.6,597.6z"/>
			<path class="st1" d="M593.4,611.2c-0.1,12.2-33.4,24.1-35.8,28.3c-4.8,8.4-6.3,19.1-6.3,19.1c-0.7,1.4-8.9-1.1-8.9-2.4
				c0,0,4.5-19.1,5.4-22.5c1.6-5.7,15.8-14.8,21-22.6c1.7-2.6,6.6-10.5,6.6-10.5S593.5,591.1,593.4,611.2z"/>
			<path class="st13" d="M589.1,618.3c0,0,11.4,0.9,8.5-22.5c-2.4-19.5-10.7-27.1-28-36.9c-16.2-9.1-20.2,3.4-19.1,10.6
				c0.1,0.7,5.1,9.2,8.5,19.5c1.7,5.2,3.4,11.1,2.9,16.1c-0.6,5.8,24.1,12.4,24.1,12.4l1.7-11.7L589.1,618.3z"/>
			<path class="st6" d="M536,563.5c4.8,9.4,6.4,9.5,8.5,9s2-1.9,4.3-2.8s3,1.2,5.3,1.9c1.7,0.5,1.9-4.5,0.2-6.7s-2.2-4.5-5.8-3.2
				s-4.4-1-8.8-1.1S536,563.5,536,563.5z"/>
			<path class="st8" d="M535.2,558.3c-3.9,4.8,0.5,5.8,2.5,5.4c2.1-0.2,4.3-0.1,6.4,0.5c2.6-3.8,4.4,0.6,3.5,1.4
				c-1.4,1.2,5.1-1.4,7.4,4.1s7,3.5,8.7-1.6c1.5-4.6,3.5-9.9,8-7.7s12.9,8.3,16.3,12.4c5.5,6.6,8.2,15.8,8.2,15.8
				c0.6-3.5,4.8,1.3,6.2-3.5c2.2-7.3-4-16.4-12-17.6c-6.9-1-8.4-4.4-12.3-12s-17.5,1.2-22.3-0.7
				C541.5,549.4,540.6,551.7,535.2,558.3z"/>
			<path class="st6" d="M573.8,585.7c-4.4,14.4-5.4,21-18.7,25s-19.7,2.2-22.4,5.4s-1.8,0.1-1.6-0.4s2.2-4.2,3.9-5.3
				c1.3-0.9,2.9-1.4,4.4-1.2c1.8,0.1,19.2-2,21.5-9.5c1.6-5.3,3.7-16.4,3.7-16.4l6.1-2.5L573.8,585.7z"/>
			<path class="st1" d="M567.2,562.4c-2.6,5.5-2.6,20.8-2.6,20.8s7.6-1.3,9.2,2.5c0,0,3.5-8.4,2.9-13.1S568.7,559.3,567.2,562.4z"/>
		</g>
		<g>
			<path class="st8" d="M249.8,790.2c-15.7,9.1-43.2,7.9-61.4-2.5s-20.1-26.4-4.4-35.4s43.2-7.9,61.4,2.5S265.5,781.2,249.8,790.2z
				 M188.8,755c-13.4,7.8-11.8,21.4,3.8,30.3s39.1,10,52.6,2.2s11.8-21.4-3.8-30.3S202.2,747.2,188.8,755z"/>
			<path class="st13" d="M229.8,753.1c-13.7-4.1-29.9-3.5-40.1,2.4l-6.9-4c12.6-7.3,32.6-8.2,49.7-3.2L229.8,753.1z"/>
			<path class="st13" d="M215.2,763.2l12.1,13.4l-3.5,2l-11.9-13.4l-7.1,4.1l-3.5-2l10.5-6.1L215.2,763.2z"/>
		</g>
		<g>
			<polygon class="st10" points="815,300 815,247.3 748.5,208.9 748.5,260.2 808.5,294.8 815,320 			"/>
			<polygon class="st8" points="815,247.3 815,256.3 748.5,217.9 748.5,208.9 			"/>
			<polygon class="st1" points="765.5,236.2 765.5,265.6 758.8,261.7 758.8,232.3 			"/>
			<polygon class="st13" points="776.2,255.2 776.2,271.7 769.4,267.8 769.4,251.3 			"/>
			<polygon class="st13" points="798,277.9 798,284.3 791.3,280.4 791.3,274 			"/>
			<polygon class="st1" points="786.9,266.4 786.9,277.9 780.2,274 780.2,262.5 			"/>
		</g>
		<g>
			<polygon class="st10" points="570.9,504.9 570.9,449.9 641.7,490.8 641.7,545.4 577.9,508.5 570.9,526.2 			"/>
			<polygon class="st8" points="641.7,490.8 641.7,500.3 570.9,459.5 570.9,449.9 			"/>
			<polygon class="st13" points="630.5,506.5 630.5,529.9 581.6,501.7 581.6,477.4 			"/>
			<polygon class="st1" points="622,511.6 629.1,515.8 629.1,507.5 622,503.4 			"/>
			<polygon class="st8" points="583,489.1 590.1,493.3 590.1,485 583,480.9 			"/>
			<polygon class="st8" points="583,500 590.1,504.1 590.1,495.8 583,491.7 			"/>
		</g>
		<g class="st25">
			<polygon class="st8" points="434.2,719.3 351.6,671.6 316.3,671.6 316.3,767 351.6,767 351.6,767 			"/>
		</g>
		<g>
			
				<linearGradient id="SVGID_00000026843168638643063890000008422819314704132494_" gradientUnits="userSpaceOnUse" x1="173.98" y1="332.27" x2="363.85" y2="220.11" gradientTransform="matrix(1 0 0 -1 0 1000)">
				<stop  offset="0" style="stop-color:#FFFFFF"/>
				<stop  offset="1" style="stop-color:#D8DAE5"/>
				<stop  offset="1" style="stop-color:#EFEFF3"/>
			</linearGradient>
			<polygon style="fill:url(#SVGID_00000026843168638643063890000008422819314704132494_);" points="233.6,719.3 233.6,687.7 
				316.3,735.4 316.3,767 			"/>
			<polygon class="st16" points="398.9,719.3 398.9,687.7 316.3,735.4 316.3,767 			"/>
			<polygon class="st27" points="398.9,687.7 316.3,640 233.6,687.7 316.3,735.4 			"/>
		</g>
		<g>
			<path class="st12" d="M360.6,700.9l13.8-8.8l-17.7-10.2l-3.8,2.2l-12.4-17.6l-6.8,3.8l5.3,4.8l10,11.6
				c-13.9-3.5-35.4-6.6-35.4-6.6l-6.3,11.4c0,0,36.1,2,39.2,8.1s-2.8,25-2.8,25l3.5,11.4l10,6.7c2,0.7,6.5,0.6,7-0.3s-8-9.6-7.5-9.6
				S359.9,713.3,360.6,700.9z"/>
			<g>
				<path class="st28" d="M335.5,656.7l-0.9,2.8c0,0,4.9,3.7,6.5,3.2s4-2,3.3-3.2c-0.8-1.5-2-2.6-3.6-3.3
					C339.5,655.9,335.5,656.7,335.5,656.7z"/>
				<path class="st28" d="M301.7,625c3.2,9.8,8.6,19.5,10.3,21.5c2.8,3.3,23.4,10.3,23.4,10.3l-0.6,3.1c0,0-22.7-3.5-29.5-7.5
					c-8.8-5.2-14.7-16.8-14.7-16.8L301.7,625z"/>
				<path class="st29" d="M349.7,740.6c-2.9-1.4-4.7-1.5-5.1-3c-0.2-1.1,0.1-2.2,0.8-3l6.2,1c0,0,9.6,4.4,11.1,5.4
					c0.8,0.5,0.1,2.3-3.2,2.4C357.4,743.4,354.2,742.8,349.7,740.6z"/>
				<path class="st13" d="M349.6,734.6c1.2,0.9,2.4,1.2,2.5,1.6c0.5,2-5.3,3.3-6.8,1l-0.5-1.5L349.6,734.6z"/>
				<path class="st29" d="M351.5,727.4c-3.7,2.4-15.8,2.3-17.6,1.7c-1.1-0.4-1.2-2.6-1.2-3.6c0-0.8,0.3-1.5,0.9-2
					c0,0,3.2-0.2,4.2-0.1c1.6,0.1,11.7,0.8,13.7,1.4C352.9,725.2,352.1,727.1,351.5,727.4z"/>
				<path class="st13" d="M337,722.8c0.7,0.4,1.4,0.8,2.2,1c1.9,1-6,2.7-6.2,1.2c-0.1-1-0.1-2,0-3L337,722.8z"/>
				<path class="st29" d="M330.4,661c14,5.9,6.6,54,7.3,61.4c0,0-4,2.2-5.5,0.4l-6.9-46l-32.7,18.6l-16.8-13.1
					C275.7,682.2,323.3,658,330.4,661z"/>
				<path class="st13" d="M293.3,620.4c9.9,2,12.3,11,14.8,18.2c1.1,3.3-9,8-9,8L293.3,620.4z"/>
				<path class="st30" d="M262.4,638.7c-0.1-7.3,3.8-9.3,4.8-9.9c12.7-7.4,22.7-11.6,30.8-7c8.6,4.9,2.9,28.7,6.9,46.7
					c3.2,14.2-19.7,23.8-32.2,20.9C252.8,684.8,262.6,655.1,262.4,638.7z"/>
				<path class="st1" d="M274.1,624.8c-2.4,1.8,2.7,5.5,7.3,5.2s7-3.1,6.5-4.7c-0.6-1.9-2.1-3.3-4-3.8
					C281.4,620.7,274.1,624.8,274.1,624.8z"/>
				<path class="st28" d="M288.4,605.7c4.4,10.9,0.5,14.7-2.1,15.5c-1.6,0.5-1.2,1.7-0.7,2.4c0.5,0.7,0.5,1.7-0.1,2.4
					c-0.8,0.9-2.4,1.8-5.8,1.6c-3.6-0.3-5.5-2.8-4-3.5c0.9-0.8,1.5-2,1.6-3.2c0.1-1.3-6.2-15-0.5-16.7S288.4,605.7,288.4,605.7z"/>
				<path class="st29" d="M287.8,602.7c-0.6,0-1.1,0.1-1.6,0.4c-0.8-1.4-2.5-2-4-1.2c-0.3,0.1-0.5,0.3-0.7,0.6
					c-0.5-0.6-1.3-1-2.1-1.1c-1.1,0-2.1,0.6-2.7,1.5c-0.3-0.1-0.7-0.2-1-0.2c-1.6,0-3,1.2-3,2.8v0.1c-1.6,0.3-2.6,1.9-2.3,3.4
					c0.2,0.9,0.8,1.7,1.6,2.1c-0.4,0.5-0.7,1.1-0.7,1.8c0,1.6,1.2,2.9,2.8,3h0.1c-0.1,0.3-0.1,0.5-0.1,0.8c-0.1,1.6,1.2,3,2.8,3.1
					c1.6,0.1,3-1.2,3.1-2.8c0-0.7-0.2-1.4-0.7-2c0.5-0.5,0.8-1.2,0.8-1.9c0-0.9-0.3-1.7-1-2.3c0-0.2,0.1-0.4,0.1-0.6
					c0.8,0,1.6-0.3,2.2-0.9c1,1.3,2.9,1.4,4.1,0.4c0.4-0.4,0.8-0.9,0.9-1.4c0.4,0.2,0.8,0.3,1.3,0.3c1.6,0.1,3-1.2,3-2.8
					C290.7,604.1,289.4,602.7,287.8,602.7L287.8,602.7L287.8,602.7z"/>
				<path class="st28" d="M275.3,645.4c-4.3,9.3-7,20.1-7.1,22.7c-0.2,4.3,10.1,23.5,10.1,23.5l-2.6,1.8c0,0-14.2-18-16.5-25.5
					c-2.9-9.8,0.7-22.3,0.7-22.3L275.3,645.4z"/>
				<path class="st31" d="M260.4,693.7c0.2-0.1,0.5,0,0.6,0.3c0,0,0,0,0,0c0.1,0.2,0,0.5-0.2,0.6c-0.2,0.1-0.5,0-0.6-0.2
					c0,0,0-0.1,0-0.1C260,694,260.1,693.8,260.4,693.7C260.3,693.7,260.3,693.7,260.4,693.7z"/>
				<path class="st13" d="M263.3,633.4c-1.9,5-3.3,10.2-4.1,15.4c0,0,2.7,5.4,14.4,4.7c0,0,2.9-1.9,2.9-8.8S265,628.8,263.3,633.4z"
					/>
				<path class="st28" d="M278.3,691.6c5,1.4,10.6,4.8,5,3.7c0,0,2,1.2,2.1,3c0,2.2-4.5,1.9-6.9-0.8s-2.8-4.1-2.8-4.1L278.3,691.6z"
					/>
				<path class="st29" d="M285,673.5c0,0,25.7,3.6,34.8,13.4c3.8,4.1,28.1,40.1,30,46.7c0.7,2.4-5,3.6-6.4,1.5
					c-2.9-4.1-29.4-39.4-32.6-39.2c-21.3,0.8-31.1-1.4-36.3-5.1c-5.8-4.1-6.7-5.7-6.7-5.7l13.8-10.2L285,673.5z"/>
			</g>
			<path class="st13" d="M314.9,668.4l11.4,6.6c0.8,0.5,1.8,0.5,2.6,0l18.4-10.6c0.4-0.2,0.5-0.7,0.3-1.1c-0.1-0.1-0.2-0.2-0.3-0.3
				l-11.4-6.6c-0.8-0.5-1.8-0.5-2.6,0l-18.4,10.7c-0.4,0.2-0.6,0.7-0.3,1.1C314.7,668.2,314.8,668.3,314.9,668.4z"/>
			<path class="st11" d="M328.5,674.4l4.8-6.7c0.4-0.6,0.9-1,1.5-1.4l18.7-10.8c0.1-0.1,0.3-0.1,0.5,0c0.1,0.1,0.2,0.1,0.2,0.2
				c0,0.1-0.2,0.2-0.2,0.3l-4.8,6.7c-0.4,0.6-0.9,1-1.5,1.4L329,674.9c-0.1,0,0.1,0.2,0,0.2c-0.1-0.1-0.3-0.2-0.4-0.2
				C328.5,674.7,328.4,674.5,328.5,674.4z"/>
			<path class="st13" d="M328.9,674.6l4.8-6.7c0.4-0.6,0.9-1.1,1.5-1.4l18.7-10.8c0.2-0.1,0.4,0,0.5,0.1c0.1,0.1,0.1,0.3,0,0.4
				l-4.8,6.7c-0.4,0.6-0.9,1-1.5,1.4l-18.7,10.8c-0.2,0.1-0.4,0-0.5-0.2C328.8,674.8,328.8,674.7,328.9,674.6z"/>
			<polygon class="st11" points="323.1,663.6 329.9,659.7 333.8,661.9 327,665.8 			"/>
		</g>
	</g>
</g>
</svg>
