<?xml version="1.0" encoding="UTF-8"?>
<svg id="_레이어_2" data-name="레이어 2" xmlns="http://www.w3.org/2000/svg" xmlns:xlink="http://www.w3.org/1999/xlink" viewBox="0 0 1339.6 513.8">
  <defs>
    <style>
      .cls-1 {
        fill: url(#_무제_그라디언트_7-6);
      }

      .cls-1, .cls-2, .cls-3, .cls-4, .cls-5, .cls-6, .cls-7, .cls-8, .cls-9, .cls-10, .cls-11, .cls-12, .cls-13, .cls-14, .cls-15, .cls-16, .cls-17, .cls-18, .cls-19 {
        stroke-width: 0px;
      }

      .cls-2 {
        fill: url(#_무제_그라디언트_12-3);
      }

      .cls-3 {
        fill: #9ca3af;
      }

      .cls-4 {
        fill: url(#_무제_그라디언트_7);
      }

      .cls-5 {
        fill: url(#_무제_그라디언트_7-2);
      }

      .cls-6 {
        fill: url(#_무제_그라디언트_7-3);
      }

      .cls-7 {
        fill: url(#_무제_그라디언트_7-4);
      }

      .cls-20 {
        stroke: #6b7280;
      }

      .cls-20, .cls-8, .cls-21, .cls-22 {
        fill: none;
      }

      .cls-20, .cls-21, .cls-22 {
        stroke-miterlimit: 10;
      }

      .cls-9 {
        fill: #f1f5f9;
      }

      .cls-10 {
        fill: url(#_무제_그라디언트_7-5);
      }

      .cls-11 {
        fill: url(#_무제_그라디언트_12-4);
      }

      .cls-21 {
        stroke: #ecedef;
      }

      .cls-22 {
        stroke: #ecedef;
      }

      .cls-23 {
        opacity: .3;
      }

      .cls-12 {
        fill: #d1d5db;
      }

      .cls-13 {
        fill: #ecedef;
      }

      .cls-14 {
        fill: url(#_무제_그라디언트_12-2);
      }

      .cls-15 {
        fill: #ecedef;
      }

      .cls-16 {
        fill: url(#_무제_그라디언트_12-5);
      }

      .cls-17 {
        fill: url(#_무제_그라디언트_12);
      }

      .cls-18 {
        fill: #ecedef;
      }

      .cls-19 {
        fill: url(#_무제_그라디언트_12-6);
      }
    </style>
    <linearGradient id="_무제_그라디언트_12" data-name="무제 그라디언트 12" x1="1052.59" y1="-254.25" x2="1180" y2="-254.25" gradientTransform="translate(0 -86.4) scale(1 -1)" gradientUnits="userSpaceOnUse">
      <stop offset=".6" stop-color="#ecedef"/>
      <stop offset="1" stop-color="#fbfbfc"/>
    </linearGradient>
    <linearGradient id="_무제_그라디언트_7" data-name="무제 그라디언트 7" x1="167.6" y1="-278" x2="283.42" y2="-278" gradientTransform="translate(0 -86.4) scale(1 -1)" gradientUnits="userSpaceOnUse">
      <stop offset="0" stop-color="#fbfbfc"/>
      <stop offset=".4" stop-color="#ecedef"/>
    </linearGradient>
    <linearGradient id="_무제_그라디언트_7-2" data-name="무제 그라디언트 7" x1="123.8" y1="-345.55" x2="241.2" y2="-345.55" xlink:href="#_무제_그라디언트_7"/>
    <linearGradient id="_무제_그라디언트_7-3" data-name="무제 그라디언트 7" x1="174.59" y1="-478.85" x2="292.39" y2="-478.85" xlink:href="#_무제_그라디언트_7"/>
    <linearGradient id="_무제_그라디언트_7-4" data-name="무제 그라디언트 7" x1="174.6" y1="-376.25" x2="292.4" y2="-376.25" xlink:href="#_무제_그라디언트_7"/>
    <linearGradient id="_무제_그라디언트_7-5" data-name="무제 그라디언트 7" x1="0" y1="-342.85" x2="358.9" y2="-342.85" xlink:href="#_무제_그라디언트_7"/>
    <linearGradient id="_무제_그라디언트_7-6" data-name="무제 그라디언트 7" x1=".1" y1="-513.85" x2="359" y2="-513.85" xlink:href="#_무제_그라디언트_7"/>
    <linearGradient id="_무제_그라디언트_12-2" data-name="무제 그라디언트 12" x1="1042" y1="-465.4" x2="1171.4" y2="-465.4" xlink:href="#_무제_그라디언트_12"/>
    <linearGradient id="_무제_그라디언트_12-3" data-name="무제 그라디언트 12" x1="1042" y1="-357.6" x2="1171.4" y2="-357.6" xlink:href="#_무제_그라디언트_12"/>
    <linearGradient id="_무제_그라디언트_12-4" data-name="무제 그라디언트 12" x1="977" y1="-493.55" x2="1218" y2="-493.55" xlink:href="#_무제_그라디언트_12"/>
    <linearGradient id="_무제_그라디언트_12-5" data-name="무제 그라디언트 12" x1="977" y1="-324.05" x2="1218" y2="-324.05" xlink:href="#_무제_그라디언트_12"/>
    <linearGradient id="_무제_그라디언트_12-6" data-name="무제 그라디언트 12" x1="1109.4" y1="226.2" x2="1339.6" y2="226.2" gradientTransform="translate(0 2)" xlink:href="#_무제_그라디언트_12"/>
  </defs>
  <g id="_레이어_1-2" data-name=" 레이어 1">
    <path class="cls-18" d="M1092.3,115h-1l.6-43.3c0-3.1-1.3-6.1-3.6-8.2l-12.1-10.8c-2.6-2.3-5.8-3.5-9.4-3.5h-372v-1h372c3.8,0,7.3,1.3,10,3.7l12.1,10.8c2.5,2.3,4,5.6,4,9l-.6,43.3Z"/>
    <path class="cls-17" d="M1071.2,335.7l-18.5-162.2c-.5-4.5.7-9,3.5-12.6L1179.2,0l.8.6-123,160.9c-2.6,3.4-3.8,7.6-3.3,11.8l18.5,162.2h-1v.2Z"/>
    <path class="cls-18" d="M347.7,513.8c-2,0-3.7-1.7-3.7-3.7s1.7-3.7,3.7-3.7,3.7,1.7,3.7,3.7-1.7,3.7-3.7,3.7ZM347.7,507.4c-1.5,0-2.7,1.2-2.7,2.7s1.2,2.7,2.7,2.7,2.7-1.2,2.7-2.7-1.2-2.7-2.7-2.7Z"/>
    <path class="cls-18" d="M361,505c-2,0-3.7-1.7-3.7-3.7s1.7-3.7,3.7-3.7,3.7,1.7,3.7,3.7-1.7,3.7-3.7,3.7ZM361,498.6c-1.5,0-2.7,1.2-2.7,2.7s1.2,2.7,2.7,2.7,2.7-1.2,2.7-2.7-1.2-2.7-2.7-2.7Z"/>
    <path class="cls-13" d="M996.6,479.8l-5-14.7-.9.3,5,14.7c.4,1.2.2,2.5-.4,3.4l-6.1,9.4c-.5-.3-1.1-.4-1.7-.4-2,0-3.7,1.7-3.7,3.7s1.7,3.7,3.7,3.7,3.7-1.7,3.7-3.7-.5-2-1.2-2.7l6.1-9.4c.8-1.2,1-2.7.6-4.3h-.1ZM990.1,496.2c0,1.5-1.2,2.7-2.7,2.7s-2.7-1.2-2.7-2.7,1.2-2.7,2.7-2.7,2.7,1.2,2.7,2.7Z"/>
    <path class="cls-13" d="M975.3,488.5c-2,0-3.7-1.7-3.7-3.7s1.7-3.7,3.7-3.7,3.7,1.7,3.7,3.7-1.7,3.7-3.7,3.7ZM975.3,482.1c-1.5,0-2.7,1.2-2.7,2.7s1.2,2.7,2.7,2.7,2.7-1.2,2.7-2.7-1.2-2.7-2.7-2.7Z"/>
    <path class="cls-22" d="M232.4,114.3v-41.2c0-2.7,1-5.3,2.9-7.2l13.3-13.3c2.5-2.5,5.9-3.9,9.4-3.9l370.1-.2"/>
    <path class="cls-4" d="M264.8,353.1h-1l18.5-166.5c.5-3.8-.5-7.5-2.9-10.5L167.6,30.6l.8-.6,111.8,145.5c2.5,3.2,3.6,7.2,3.1,11.3l-18.5,166.4h0v-.1Z"/>
    <g>
      <g>
        <rect class="cls-9" x="628.1" y="44.8" width="27" height="7.6" rx="3.5" ry="3.5"/>
        <rect class="cls-21" x="628.1" y="44.8" width="27" height="7.6" rx="3.5" ry="3.5"/>
      </g>
      <g class="cls-23">
        <rect class="cls-3" x="628.1" y="44.8" width="27" height="7.6" rx="3.5" ry="3.5"/>
        <rect class="cls-20" x="628.1" y="44.8" width="27" height="7.6" rx="3.5" ry="3.5"/>
      </g>
    </g>
    <g>
      <g>
        <path class="cls-9" d="M674.6,44.8h19.7c1.9,0,3.4,1.6,3.4,3.5v.6c0,1.9-1.5,3.5-3.4,3.5h-19.7c-1.9,0-3.4-1.6-3.4-3.5v-.6c0-1.9,1.5-3.5,3.4-3.5Z"/>
        <path class="cls-21" d="M674.6,44.8h19.7c1.9,0,3.4,1.6,3.4,3.5v.6c0,1.9-1.5,3.5-3.4,3.5h-19.7c-1.9,0-3.4-1.6-3.4-3.5v-.6c0-1.9,1.5-3.5,3.4-3.5Z"/>
      </g>
      <g class="cls-23">
        <path class="cls-3" d="M674.6,44.8h19.7c1.9,0,3.4,1.6,3.4,3.5v.6c0,1.9-1.5,3.5-3.4,3.5h-19.7c-1.9,0-3.4-1.6-3.4-3.5v-.6c0-1.9,1.5-3.5,3.4-3.5Z"/>
        <path class="cls-20" d="M674.6,44.8h19.7c1.9,0,3.4,1.6,3.4,3.5v.6c0,1.9-1.5,3.5-3.4,3.5h-19.7c-1.9,0-3.4-1.6-3.4-3.5v-.6c0-1.9,1.5-3.5,3.4-3.5Z"/>
      </g>
    </g>
    <rect class="cls-15" x="641.7" y="45.7" width="12.8" height="5.9" rx="2.9" ry="2.9"/>
    <rect class="cls-15" x="671.7" y="45.7" width="12.8" height="5.9" rx="2.9" ry="2.9"/>
    <path class="cls-5" d="M240.4,348.1l-49.4-64.9c-2.6-3.6-4-7.7-4-11.9v-13.7c0-4.2-1.4-8.2-4-11.5l-59.2-75.3.8-.6,59.2,75.3c2.8,3.5,4.2,7.7,4.2,12.1v13.7c0,4,1.3,7.9,3.8,11.3l49.4,64.9-.8.6h0Z"/>
    <path class="cls-8" d="M281.7,372.1c-.4,0-.8,0-1.2.3l3.5,4.4c.4-.5.6-1.1.6-1.7,0-1.6-1.3-2.9-2.9-2.9h0v-.1Z"/>
    <path class="cls-8" d="M278.8,375c0,1.6,1.3,2.9,2.9,2.9s1.1-.2,1.6-.5l-3.6-4.5c-.5.5-.9,1.3-.9,2.1Z"/>
    <path class="cls-6" d="M289.8,384l-5.1-6.5c-.2.3-.5.5-.7.7l5.1,6.4c2.3,2.9,3,6.7,1.8,10.1l-4.2,12.4.9.3,4.2-12.4c1.3-3.8.5-7.9-2-11.1h0v.1Z"/>
    <path class="cls-7" d="M233.7,313.6c-2.9-3.7-4.5-8.2-4.6-12.7l-.4-22.2c0-1.8-.7-3.8-1.9-5.3l-51.4-65.8-.8.6,51.4,65.8c1.1,1.4,1.7,3.1,1.7,4.7l.4,22.2c.1,4.8,1.8,9.5,4.8,13.3l46.2,57.9c.2-.2.5-.4.8-.6l-46.2-58h0v.1Z"/>
    <path class="cls-18" d="M281.7,372.1c1.6,0,2.9,1.3,2.9,2.9s-.2,1.2-.6,1.7l.6.8c.6-.7,1-1.6,1-2.5,0-2.2-1.7-3.9-3.9-3.9s-1.3.2-1.8.5l.6.8c.4-.2.8-.3,1.2-.3h0Z"/>
    <path class="cls-18" d="M281.7,377.9c-1.6,0-2.9-1.3-2.9-2.9s.3-1.6.9-2.1l-.6-.8c-.8.7-1.3,1.7-1.3,2.9,0,2.2,1.7,3.9,3.9,3.9s1.6-.3,2.2-.7l-.6-.8c-.5.3-1,.5-1.6.5h0Z"/>
    <path class="cls-18" d="M280.5,372.4l-.6-.8c-.3.2-.6.3-.8.6l.6.8c.2-.2.5-.4.8-.6Z"/>
    <path class="cls-18" d="M284.6,377.5l-.6-.8c-.2.3-.4.5-.7.7l.6.8c.3-.2.5-.4.7-.7Z"/>
    <path class="cls-8" d="M242,353c0,1.6,1.3,2.9,2.9,2.9s.9,0,1.3-.3l-3.5-4.5c-.4.5-.7,1.1-.7,1.9h0Z"/>
    <path class="cls-8" d="M244.9,350.1c-.5,0-1,.2-1.4.4l3.5,4.5c.5-.5.8-1.2.8-2,0-1.6-1.3-2.9-2.9-2.9Z"/>
    <path class="cls-10" d="M242.8,349.7l-13.8-17.6c-2.4-3-7.5-5.9-11.5-6.4l-86-10.1c-4.9-.6-9.6-3.1-12.7-7L.8,162.6l-.8.6,118,146c3.3,4.1,8.1,6.8,13.3,7.4l86,10.1c3.7.5,8.6,3.2,10.9,6l13.8,17.6c.2-.2.5-.5.8-.6h0Z"/>
    <path class="cls-1" d="M359,498.5l-111.4-142.7c-.2.2-.5.4-.8.6l111.4,142.7.8-.6Z"/>
    <path class="cls-18" d="M244.9,355.9c-1.6,0-2.9-1.3-2.9-2.9s.3-1.4.7-1.9l-.6-.8c-.7.7-1.1,1.6-1.1,2.7,0,2.2,1.7,3.9,3.9,3.9s1.3-.2,1.9-.5l-.6-.8c-.4.2-.8.3-1.3.3Z"/>
    <path class="cls-18" d="M244.9,350.1c1.6,0,2.9,1.3,2.9,2.9s-.3,1.5-.8,2l.6.8c.7-.7,1.2-1.7,1.2-2.8,0-2.2-1.7-3.9-3.9-3.9s-1.5.2-2.1.6l.6.8c.4-.2.9-.4,1.4-.4h.1Z"/>
    <path class="cls-18" d="M243.5,350.5l-.6-.8c-.3.2-.5.4-.8.6l.6.8c.2-.3.5-.5.8-.6Z"/>
    <path class="cls-18" d="M247,355c-.2.2-.5.4-.8.6l.6.8c.3-.2.6-.4.8-.6l-.6-.8Z"/>
    <path class="cls-12" d="M307.3,426.4c-.7-1-1.9-1.5-3-1.5s-1.7.3-2.4.9c-1.7,1.4-1.9,3.8-.6,5.5l16.5,20.7c.7,1,2.2,1.5,3,1.5s1.7-.3,2.4-.9c1.7-1.4,1.9-3.8.6-5.5l-16.5-20.7Z"/>
    <path class="cls-18" d="M325.4,445.8l-16.5-20.7c-1.1-1.4-2.8-2.2-4.6-2.2s-2.6.5-3.7,1.3c-2.5,2-2.9,5.7-.9,8.3l16.5,20.7c1.1,1.4,2.8,2.2,4.6,2.2s2.6-.5,3.7-1.3c2.5-2,2.9-5.7.9-8.3ZM320.8,453.5c-.8,0-2.3-.5-3-1.5l-16.5-20.7c-1.3-1.7-1.1-4.1.6-5.5.7-.6,1.6-.9,2.4-.9s2.3.5,3,1.5l16.5,20.7c1.3,1.7,1.1,4.1-.6,5.5-.7.6-1.6.9-2.4.9Z"/>
    <path class="cls-18" d="M346,507.3l-1.8-3.5c-2-3.9-2.3-8.5-.8-12.7l2.8-7.7.9.3-2.8,7.7c-1.4,3.9-1.1,8.2.7,11.9l1.8,3.5-.9.5h.1Z"/>
    <path class="cls-8" d="M1047.1,363.6c0,.5.2.9.4,1.3l2.7-3.3c-.3,0-.6-.2-.9-.2-1.2,0-2.2,1-2.2,2.2Z"/>
    <path class="cls-8" d="M1049.3,365.8c1.2,0,2.2-1,2.2-2.2s-.2-1-.5-1.4l-2.7,3.4c.3.2.7.3,1,.3h0v-.1Z"/>
    <path class="cls-14" d="M1046.9,365.7l-2.8,3.4c-1.9,2.5-2.5,5.7-1.8,8.6l5.6,14.8.9-.4-5.6-14.8c-.7-2.5,0-5.4,1.6-7.7l2.7-3.4c-.3-.2-.5-.4-.8-.7l.2.2h0Z"/>
    <path class="cls-2" d="M1171.4,181.6l-.8-.6-59.4,76c-2.7,3.5-4.1,7.9-4,12.3l.3,12.6c0,5.1-1.6,10.1-4.8,14.1l-51.9,64.8c.3.2.6.4.8.6l51.9-64.8c3.3-4.1,5.1-9.4,5-14.7l-.3-12.6c0-4.2,1.3-8.4,3.8-11.7l59.4-76h0Z"/>
    <path class="cls-13" d="M1051.5,363.6c0,1.2-1,2.2-2.2,2.2s-.7,0-1-.3l-.6.8c.5.3,1.1.5,1.7.5,1.8,0,3.2-1.4,3.2-3.2s-.3-1.6-.9-2.2l-.6.8c.3.4.5.9.5,1.4h-.1Z"/>
    <path class="cls-13" d="M1047.1,363.6c0-1.2,1-2.2,2.2-2.2s.6,0,.9.2l.6-.8c-.5-.2-1-.4-1.5-.4-1.8,0-3.2,1.4-3.2,3.2s.3,1.5.8,2.1l.6-.8c-.3-.4-.4-.8-.4-1.3Z"/>
    <path class="cls-13" d="M1047.5,364.9l-.6.8c.2.3.5.5.8.7l.6-.8c-.3-.2-.6-.4-.8-.7Z"/>
    <path class="cls-13" d="M1050.8,360.8l-.6.8c.3,0,.6.3.8.6l.6-.8c-.2-.2-.5-.4-.8-.6Z"/>
    <path class="cls-8" d="M1096.2,329.5c0,.5.2,1,.5,1.4l2.7-3.4c-.3,0-.6-.2-.9-.2-1.2,0-2.2,1-2.2,2.2h-.1Z"/>
    <path class="cls-8" d="M1098.4,331.7c1.2,0,2.2-1,2.2-2.2s-.2-1-.5-1.4l-2.7,3.4c.3,0,.6.2.9.2h.1Z"/>
    <path class="cls-11" d="M1096.1,331.7l-119.1,150.3.8.6,119.1-150.3c-.3-.2-.6-.4-.8-.6Z"/>
    <path class="cls-16" d="M1218,148.6l-.8-.6-64.9,84.4c-2.8,3.6-4.3,8.2-4.2,12.8l.3,14.1c0,3.9-1.2,7.8-3.7,11l-44.7,56.4c.3.2.6.4.8.6l44.7-56.4c2.6-3.4,4-7.5,3.9-11.6l-.3-14.1c0-4.4,1.3-8.7,4-12.2l64.9-84.4h0Z"/>
    <path class="cls-13" d="M1096.2,329.5c0-1.2,1-2.2,2.2-2.2s.6,0,.9.2l.6-.8c-.5-.3-1-.4-1.6-.4-1.8,0-3.2,1.4-3.2,3.2s.3,1.6.9,2.2l.6-.8c-.3-.4-.5-.8-.5-1.4h.1Z"/>
    <path class="cls-13" d="M1100.6,329.5c0,1.2-1,2.2-2.2,2.2s-.7,0-.9-.2l-.6.8c.5.3,1,.4,1.6.4,1.8,0,3.2-1.4,3.2-3.2s-.3-1.6-.9-2.2l-.6.8c.3.4.5.9.5,1.4h-.1Z"/>
    <path class="cls-13" d="M1096.7,330.9l-.6.8c.2.2.5.5.8.6l.6-.8c-.3,0-.6-.4-.8-.6Z"/>
    <path class="cls-13" d="M1100,326.7l-.6.8c.3,0,.6.4.8.6l.6-.8c-.2-.2-.5-.4-.8-.6Z"/>
    <path class="cls-19" d="M1338.9,140.8l-122.3,153.5c-3.3,4.1-8,6.7-13.3,7.4l-92.7,12.6-1.2,1.3,1.3-.3,92.7-12.6c5.5-.7,10.4-3.5,13.9-7.8l122.3-153.5-.8-.6h.1Z"/>
    <path class="cls-12" d="M1031.3,414.1c-.7-.6-1.5-.9-2.4-.9s-2.2.5-3,1.5l-16.5,20.7c-1.3,1.7-1.1,4.2.6,5.5.7.6,1.3.9,2.4.9s2.2-.5,3-1.5l16.5-20.7c1.3-1.7,1.1-4.2-.6-5.5Z"/>
    <path class="cls-18" d="M1032.6,412.4c-1-.8-2.3-1.3-3.7-1.3h0c-1.8,0-3.5.9-4.6,2.3l-16.5,20.7c-1,1.2-1.4,2.8-1.3,4.3.2,1.6.9,3,2.2,3.9,1,.8,2.3,1.3,3.7,1.3s3.5-.8,4.6-2.2l16.5-20.7c2-2.5,1.6-6.2-.9-8.3h0ZM1012.4,441.8c-1.1,0-1.7-.3-2.4-.9-1.7-1.3-1.9-3.8-.6-5.5l16.5-20.7c.8-1,1.9-1.5,3-1.5s1.7.3,2.4.9c1.7,1.3,1.9,3.8.6,5.5l-16.5,20.7c-.8,1-1.9,1.5-3,1.5Z"/>
  </g>
</svg>