<?xml version="1.0" encoding="UTF-8"?>
<svg id="_레이어_2" data-name=" 레이어 2" xmlns="http://www.w3.org/2000/svg" version="1.1" viewBox="0 0 1369.1 506.3">
  <defs>
    <style>
      .cls-1 {
        fill: #f1f2f3;
        stroke-width: 0px;
      }

      .cls-2 {
        stroke-miterlimit: 10;
        stroke-width: 2px;
      }

      .cls-2, .cls-3 {
        fill: #223744;
        stroke: #142a3a;
      }

      .cls-4 {
        fill: none;
        stroke: #f1f2f3;
      }

      .cls-4, .cls-3 {
        stroke-miterlimit: 10;
      }

      .cls-3 {
        stroke-width: 2px;
      }
    </style>
  </defs>
  <circle class="cls-4" cx="127.1" cy="136.3" r="3"/>
  <line class="cls-4" x1="128.8" y1="138.6" x2="328" y2="381.7"/>
  <circle class="cls-4" cx="329.6" cy="384.2" r="3"/>
  <path class="cls-4" d="M143.9,458.4l-15.9.2c-9,.1-17.8-2.1-25.7-6.5l-8.1-4.6c-7.5-4.2-16-6.5-24.6-6.5H6.5"/>
  <circle class="cls-4" cx="3.5" cy="440.9" r="3"/>
  <circle class="cls-4" cx="49.1" cy="502.8" r="3"/>
  <path class="cls-1" d="M327.6,386.8l-63.1,59.6c-7.2,6.8-16.6,10.6-26.5,10.7h-13.6c0,.3,0,.5,0,.7s0,.3,0,.5h13.6c10.2-.2,19.8-4.1,27.1-11.1l63.1-59.6-.7-.7Z"/>
  <path class="cls-1" d="M217.5,457.2l-105.1.9c-9.8,0-19.2,3.8-26.5,10.4l-35.1,31.8.7.7,35.1-31.8c7.1-6.4,16.3-10,25.9-10.1l105.1-.9c0-.2,0-.3,0-.5s0-.3,0-.5Z"/>
  <path class="cls-1" d="M221,460.2c-1.2,0-2.2-.9-2.4-2h-1c.3,1.7,1.7,3,3.4,3s3.2-1.3,3.5-3h-1c-.2,1.2-1.2,2-2.5,2Z"/>
  <path class="cls-1" d="M221,455.2c1.2,0,2.2.8,2.4,2h1c-.3-1.7-1.7-3-3.4-3s-3.2,1.3-3.5,3h1c.2-1.2,1.2-2,2.5-2Z"/>
  <path class="cls-1" d="M218.5,457.7c0-.2,0-.3,0-.5h-1c0,.2,0,.3,0,.5s0,.4,0,.5h1c0-.2,0-.4,0-.5Z"/>
  <path class="cls-1" d="M224.4,457.2h-1c0,.2,0,.4,0,.5s0,.3,0,.5h1c0-.2,0-.3,0-.5s0-.4,0-.5Z"/>
  <path class="cls-2" d="M278.5,429.7l7.7-7.2c1.2-1.1,3.1-1.1,4.2.1h0c1.1,1.2,1.1,3.1-.1,4.2l-7.7,7.2c-1.2,1.1-3.1,1.1-4.2-.1h0c-1.1-1.2-1.1-3.1.1-4.2Z"/>
  <path class="cls-2" d="M292.1,416.8l1.5-1.4c1.2-1.1,3.1-1.1,4.2.1h0c1.1,1.2,1.1,3.1-.1,4.2l-1.5,1.4c-1.2,1.1-3.1,1.1-4.2-.1h0c-1.1-1.2-1.1-3.1.1-4.2Z"/>
  <path class="cls-1" d="M218.5,4.8h351v-1H218.5c-9.4,0-17.1,7.7-17.1,17.1v44.5c0,5.8,1.2,11.4,3.7,16.7l15.2,32.9c3.4,7.3,5.1,15.1,5.1,23.1v22.4c-1.7.2-3,1.7-3,3.4s1.3,3.2,3,3.4v89.5h1v-89.5c1.7-.2,3-1.7,3-3.4s-1.3-3.2-3-3.4v-22.4c0-8.2-1.7-16.1-5.2-23.5l-15.2-32.9c-2.4-5.1-3.6-10.6-3.6-16.3V20.9c0-8.9,7.2-16.1,16.1-16.1ZM228.3,163.9c0,1.2-.9,2.2-2,2.4-.2,0-.3,0-.5,0s-.3,0-.5,0c-1.1-.2-2-1.2-2-2.4s.9-2.2,2-2.4c.2,0,.3,0,.5,0s.3,0,.5,0c1.1.2,2,1.2,2,2.4Z"/>
  <path class="cls-3" d="M564.6,1h13.8c1.8,0,3.2,1.5,3.2,3.2h0c0,1.8-1.5,3.2-3.2,3.2h-13.8c-1.8,0-3.2-1.5-3.2-3.2h0c0-1.8,1.5-3.2,3.2-3.2Z"/>
  <circle class="cls-4" cx="1242" cy="136.3" r="3"/>
  <line class="cls-4" x1="1240.2" y1="138.6" x2="1041.1" y2="381.7"/>
  <circle class="cls-4" cx="1039.4" cy="384.2" r="3"/>
  <path class="cls-4" d="M1225.2,458.4l15.9.2c9,.1,17.8-2.1,25.7-6.5l8.1-4.6c7.5-4.2,16-6.5,24.6-6.5h63.2"/>
  <circle class="cls-4" cx="1365.6" cy="440.9" r="3"/>
  <circle class="cls-4" cx="1319.9" cy="502.8" r="3"/>
  <path class="cls-1" d="M1144.6,457.2h-13.6c-9.9-.2-19.3-4-26.5-10.8l-63.1-59.6-.7.7,63.1,59.6c7.4,7,17,10.8,27.2,10.9h13.6s0-.2,0-.3,0-.4,0-.5Z"/>
  <path class="cls-1" d="M1283.2,468.5c-7.3-6.6-16.7-10.3-26.5-10.4l-105.1-.9c0,.2,0,.3,0,.5s0,.4,0,.5l105.1.9c9.6,0,18.8,3.7,25.9,10.1l35.1,31.8.7-.7-35.1-31.8Z"/>
  <path class="cls-1" d="M1148.1,460.2c-1.2,0-2.2-.9-2.5-2h-1c.2,1.7,1.7,3,3.5,3s3.2-1.3,3.4-3h-1c-.2,1.1-1.2,2-2.4,2Z"/>
  <path class="cls-1" d="M1148.1,455.2c1.2,0,2.2.9,2.5,2h1c-.2-1.7-1.7-3-3.5-3s-3.2,1.3-3.4,3h1c.2-1.1,1.2-2,2.4-2Z"/>
  <path class="cls-1" d="M1145.6,457.7c0-.2,0-.4,0-.5h-1c0,.2,0,.3,0,.5s0,.3,0,.5h1c0-.1,0-.3,0-.5Z"/>
  <path class="cls-1" d="M1151.5,457.2h-1c0,.1,0,.3,0,.5s0,.4,0,.5h1c0-.2,0-.3,0-.5s0-.3,0-.5Z"/>
  <path class="cls-2" d="M1082.9,422.5l7.7,7.2c1.2,1.1,1.3,3,.1,4.2h0c-1.1,1.2-3,1.3-4.2.1l-7.7-7.2c-1.2-1.1-1.3-3-.1-4.2h0c1.1-1.2,3-1.3,4.2-.1Z"/>
  <path class="cls-2" d="M1075.4,415.5l1.5,1.4c1.2,1.1,1.3,3,.1,4.2h0c-1.1,1.2-3,1.3-4.2.1l-1.5-1.4c-1.2-1.1-1.3-3-.1-4.2h0c1.1-1.2,3-1.3,4.2-.1Z"/>
  <path class="cls-1" d="M1140.8,163.9c0-1.2.9-2.2,2-2.4v-1c-1.7.2-3,1.7-3,3.4s1.3,3.2,3,3.4v-1c-1.1-.2-2-1.2-2-2.4Z"/>
  <path class="cls-1" d="M1145.8,163.9c0,1.2-.9,2.2-2,2.4v1c1.7-.2,3-1.7,3-3.4s-1.3-3.2-3-3.4v1c1.1.2,2,1.2,2,2.4Z"/>
  <path class="cls-1" d="M1150.6,3.8h-351v1h351c8.9,0,16.1,7.2,16.1,16.1v44.5c0,5.7-1.2,11.1-3.6,16.3l-15.2,32.9c-3.4,7.4-5.2,15.3-5.2,23.5v22.4c.2,0,.3,0,.5,0s.3,0,.5,0v-22.4c0-8,1.7-15.8,5.1-23.1l15.2-32.9c2.4-5.3,3.7-10.9,3.7-16.7V20.9c0-9.4-7.7-17.1-17.1-17.1Z"/>
  <path class="cls-1" d="M1142.8,167.3v89.5h1v-89.5c-.2,0-.3,0-.5,0s-.3,0-.5,0Z"/>
  <path class="cls-1" d="M1143.3,166.4c-.2,0-.3,0-.5,0v1c.2,0,.3,0,.5,0s.3,0,.5,0v-1c-.2,0-.3,0-.5,0Z"/>
  <path class="cls-1" d="M1142.8,160.4v1c.2,0,.3,0,.5,0s.3,0,.5,0v-1c-.2,0-.3,0-.5,0s-.3,0-.5,0Z"/>
  <path class="cls-3" d="M790.7,1h13.8c1.8,0,3.2,1.5,3.2,3.2h0c0,1.8-1.5,3.2-3.2,3.2h-13.8c-1.8,0-3.2-1.5-3.2-3.2h0c0-1.8,1.5-3.2,3.2-3.2Z"/>
</svg>