<?xml version="1.0" encoding="UTF-8"?>
<svg id="_레이어_2" data-name="레이어 2" xmlns="http://www.w3.org/2000/svg" viewBox="0 0 543.4 169.6">
  <defs>
    <style>
      .cls-1 {
        fill: #444444;
        stroke-width: 0px;
      }
    </style>
  </defs>
  <g id="_레이어_1-2" data-name=" 레이어 1">
    <circle class="cls-1" cx=".6" cy="36.7" r=".6"/>
    <circle class="cls-1" cx=".6" cy=".6" r=".6"/>
    <circle class="cls-1" cx="12.7" cy="36.7" r=".6"/>
    <circle class="cls-1" cx="12.7" cy=".6" r=".6"/>
    <circle class="cls-1" cx="24.7" cy="36.7" r=".6"/>
    <circle class="cls-1" cx="24.7" cy=".6" r=".6"/>
    <circle class="cls-1" cx="36.8" cy="36.7" r=".6"/>
    <circle class="cls-1" cx="36.8" cy="24.7" r=".6"/>
    <circle class="cls-1" cx="36.8" cy="12.7" r=".6"/>
    <circle class="cls-1" cx="36.8" cy=".6" r=".6"/>
    <circle class="cls-1" cx="48.8" cy="36.7" r=".6"/>
    <circle class="cls-1" cx="48.8" cy="24.7" r=".6"/>
    <circle class="cls-1" cx="48.8" cy="12.7" r=".6"/>
    <circle class="cls-1" cx="48.8" cy=".6" r=".6"/>
    <circle class="cls-1" cx="60.9" cy="36.7" r=".6"/>
    <circle class="cls-1" cx="60.9" cy="24.7" r=".6"/>
    <circle class="cls-1" cx="60.9" cy="12.7" r=".6"/>
    <circle class="cls-1" cx="60.9" cy=".6" r=".6"/>
    <circle class="cls-1" cx="72.9" cy="36.7" r=".6"/>
    <circle class="cls-1" cx="72.9" cy="24.7" r=".6"/>
    <circle class="cls-1" cx="72.9" cy="12.7" r=".6"/>
    <circle class="cls-1" cx="72.9" cy=".6" r=".6"/>
    <circle class="cls-1" cx="85" cy="36.7" r=".6"/>
    <circle class="cls-1" cx="85" cy="24.7" r=".6"/>
    <circle class="cls-1" cx="85" cy="12.7" r=".6"/>
    <circle class="cls-1" cx="97" cy="36.7" r=".6"/>
    <circle class="cls-1" cx="97" cy="24.7" r=".6"/>
    <circle class="cls-1" cx="97" cy="12.7" r=".6"/>
    <circle class="cls-1" cx="109" cy="36.7" r=".6"/>
    <circle class="cls-1" cx="109" cy="24.7" r=".6"/>
    <circle class="cls-1" cx="109" cy="12.7" r=".6"/>
    <circle class="cls-1" cx="121.1" cy="36.7" r=".6"/>
    <circle class="cls-1" cx="121.1" cy="24.7" r=".6"/>
    <circle class="cls-1" cx="121.1" cy="12.7" r=".6"/>
    <circle class="cls-1" cx="121.1" cy=".6" r=".6"/>
    <circle class="cls-1" cx="133.1" cy="36.7" r=".6"/>
    <circle class="cls-1" cx=".6" cy="48.7" r=".6"/>
    <circle class="cls-1" cx="12.7" cy="48.7" r=".6"/>
    <circle class="cls-1" cx="24.7" cy="48.7" r=".6"/>
    <circle class="cls-1" cx="36.8" cy="48.7" r=".6"/>
    <circle class="cls-1" cx="48.8" cy="48.7" r=".6"/>
    <circle class="cls-1" cx="60.9" cy="48.7" r=".6"/>
    <circle class="cls-1" cx="72.9" cy="48.7" r=".6"/>
    <circle class="cls-1" cx="85" cy="48.7" r=".6"/>
    <circle class="cls-1" cx="97" cy="48.7" r=".6"/>
    <circle class="cls-1" cx="109" cy="48.7" r=".6"/>
    <circle class="cls-1" cx="121.1" cy="48.7" r=".6"/>
    <circle class="cls-1" cx="133.1" cy="48.7" r=".6"/>
    <circle class="cls-1" cx=".6" cy="60.8" r=".6"/>
    <circle class="cls-1" cx="12.7" cy="60.8" r=".6"/>
    <circle class="cls-1" cx="24.7" cy="60.8" r=".6"/>
    <circle class="cls-1" cx="36.8" cy="60.8" r=".6"/>
    <circle class="cls-1" cx="48.8" cy="60.8" r=".6"/>
    <circle class="cls-1" cx="60.9" cy="60.8" r=".6"/>
    <circle class="cls-1" cx="72.9" cy="60.8" r=".6"/>
    <circle class="cls-1" cx="85" cy="60.8" r=".6"/>
    <circle class="cls-1" cx="97" cy="60.8" r=".6"/>
    <circle class="cls-1" cx="109" cy="60.8" r=".6"/>
    <circle class="cls-1" cx="121.1" cy="60.8" r=".6"/>
    <circle class="cls-1" cx="60.9" cy="72.8" r=".6"/>
    <circle class="cls-1" cx="72.9" cy="72.8" r=".6"/>
    <circle class="cls-1" cx="60.9" cy="84.8" r=".6"/>
    <circle class="cls-1" cx="72.9" cy="84.8" r=".6"/>
    <circle class="cls-1" cx="72.9" cy="96.8" r=".6"/>
    <circle class="cls-1" cx="72.9" cy="108.8" r=".6"/>
    <circle class="cls-1" cx="60.9" cy="120.9" r=".6"/>
    <circle class="cls-1" cx="72.9" cy="120.9" r=".6"/>
    <circle class="cls-1" cx="60.9" cy="144.9" r=".6"/>
    <circle class="cls-1" cx="72.9" cy="144.9" r=".6"/>
    <circle class="cls-1" cx="60.9" cy="156.9" r=".6"/>
    <circle class="cls-1" cx="72.9" cy="156.9" r=".6"/>
    <circle class="cls-1" cx="48.8" cy="120.9" r=".6"/>
    <circle class="cls-1" cx="48.8" cy="132.9" r=".6"/>
    <circle class="cls-1" cx="48.8" cy="144.9" r=".6"/>
    <circle class="cls-1" cx="48.8" cy="156.9" r=".6"/>
    <circle class="cls-1" cx="36.8" cy="120.9" r=".6"/>
    <circle class="cls-1" cx="36.8" cy="132.9" r=".6"/>
    <circle class="cls-1" cx="36.8" cy="144.9" r=".6"/>
    <circle class="cls-1" cx="36.8" cy="156.9" r=".6"/>
    <circle class="cls-1" cx="36.8" cy="169" r=".6"/>
    <circle class="cls-1" cx="24.7" cy="120.9" r=".6"/>
    <circle class="cls-1" cx="24.7" cy="132.9" r=".6"/>
    <circle class="cls-1" cx="24.7" cy="144.9" r=".6"/>
    <circle class="cls-1" cx="24.7" cy="156.9" r=".6"/>
    <circle class="cls-1" cx="24.7" cy="169" r=".6"/>
    <circle class="cls-1" cx="12.7" cy="120.9" r=".6"/>
    <circle class="cls-1" cx="12.7" cy="132.9" r=".6"/>
    <circle class="cls-1" cx="12.7" cy="144.9" r=".6"/>
    <circle class="cls-1" cx="12.7" cy="156.9" r=".6"/>
    <circle class="cls-1" cx="12.7" cy="169" r=".6"/>
    <circle class="cls-1" cx=".6" cy="120.9" r=".6"/>
    <circle class="cls-1" cx="24.7" cy="96.8" r=".6"/>
    <circle class="cls-1" cx="12.7" cy="96.8" r=".6"/>
    <circle class="cls-1" cx=".6" cy="96.8" r=".6"/>
    <circle class="cls-1" cx=".6" cy="132.9" r=".6"/>
    <circle class="cls-1" cx=".6" cy="144.9" r=".6"/>
    <circle class="cls-1" cx=".6" cy="156.9" r=".6"/>
    <circle class="cls-1" cx=".6" cy="169" r=".6"/>
    <circle class="cls-1" cx="72.9" cy="169" r=".6"/>
    <circle class="cls-1" cx="85" cy="96.8" r=".6"/>
    <circle class="cls-1" cx="85" cy="108.8" r=".6"/>
    <circle class="cls-1" cx="85" cy="120.9" r=".6"/>
    <circle class="cls-1" cx="85" cy="144.9" r=".6"/>
    <circle class="cls-1" cx="85" cy="156.9" r=".6"/>
    <circle class="cls-1" cx="85" cy="169" r=".6"/>
    <circle class="cls-1" cx="97" cy="96.8" r=".6"/>
    <circle class="cls-1" cx="97" cy="108.8" r=".6"/>
    <circle class="cls-1" cx="97" cy="120.9" r=".6"/>
    <circle class="cls-1" cx="97" cy="132.9" r=".6"/>
    <circle class="cls-1" cx="97" cy="144.9" r=".6"/>
    <circle class="cls-1" cx="97" cy="156.9" r=".6"/>
    <circle class="cls-1" cx="97" cy="169" r=".6"/>
    <circle class="cls-1" cx="109" cy="96.8" r=".6"/>
    <circle class="cls-1" cx="109" cy="108.8" r=".6"/>
    <circle class="cls-1" cx="109" cy="120.9" r=".6"/>
    <circle class="cls-1" cx="109" cy="132.9" r=".6"/>
    <circle class="cls-1" cx="109" cy="144.9" r=".6"/>
    <circle class="cls-1" cx="109" cy="156.9" r=".6"/>
    <circle class="cls-1" cx="109" cy="169" r=".6"/>
    <circle class="cls-1" cx="121.1" cy="96.8" r=".6"/>
    <circle class="cls-1" cx="121.1" cy="108.8" r=".6"/>
    <circle class="cls-1" cx="121.1" cy="120.9" r=".6"/>
    <circle class="cls-1" cx="121.1" cy="132.9" r=".6"/>
    <circle class="cls-1" cx="121.1" cy="144.9" r=".6"/>
    <circle class="cls-1" cx="121.1" cy="156.9" r=".6"/>
    <circle class="cls-1" cx="121.1" cy="169" r=".6"/>
    <circle class="cls-1" cx="133.1" cy="84.8" r=".6"/>
    <circle class="cls-1" cx="133.1" cy="96.8" r=".6"/>
    <circle class="cls-1" cx="133.1" cy="132.9" r=".6"/>
    <circle class="cls-1" cx="133.1" cy="144.9" r=".6"/>
    <circle class="cls-1" cx="133.1" cy="156.9" r=".6"/>
    <circle class="cls-1" cx="133.1" cy="169" r=".6"/>
    <circle class="cls-1" cx="145.2" cy="84.8" r=".6"/>
    <circle class="cls-1" cx="145.2" cy="96.8" r=".6"/>
    <circle class="cls-1" cx="145.2" cy="132.9" r=".6"/>
    <circle class="cls-1" cx="145.2" cy="144.9" r=".6"/>
    <circle class="cls-1" cx="145.2" cy="156.9" r=".6"/>
    <circle class="cls-1" cx="157.2" cy="84.8" r=".6"/>
    <circle class="cls-1" cx="157.2" cy="96.8" r=".6"/>
    <circle class="cls-1" cx="157.2" cy="132.9" r=".6"/>
    <circle class="cls-1" cx="157.2" cy="144.9" r=".6"/>
    <circle class="cls-1" cx="157.2" cy="156.9" r=".6"/>
    <circle class="cls-1" cx="169.3" cy="84.8" r=".6"/>
    <circle class="cls-1" cx="169.3" cy="96.8" r=".6"/>
    <circle class="cls-1" cx="169.3" cy="132.9" r=".6"/>
    <circle class="cls-1" cx="169.3" cy="144.9" r=".6"/>
    <circle class="cls-1" cx="169.3" cy="156.9" r=".6"/>
    <circle class="cls-1" cx="169.3" cy="169" r=".6"/>
    <circle class="cls-1" cx="181.3" cy="84.8" r=".6"/>
    <circle class="cls-1" cx="181.3" cy="96.8" r=".6"/>
    <circle class="cls-1" cx="181.3" cy="120.9" r=".6"/>
    <circle class="cls-1" cx="181.3" cy="132.9" r=".6"/>
    <circle class="cls-1" cx="181.3" cy="156.9" r=".6"/>
    <circle class="cls-1" cx="181.3" cy="169" r=".6"/>
    <circle class="cls-1" cx="193.4" cy="84.8" r=".6"/>
    <circle class="cls-1" cx="193.4" cy="96.8" r=".6"/>
    <circle class="cls-1" cx="193.4" cy="108.8" r=".6"/>
    <circle class="cls-1" cx="193.4" cy="120.9" r=".6"/>
    <circle class="cls-1" cx="193.4" cy="132.9" r=".6"/>
    <circle class="cls-1" cx="193.4" cy="156.9" r=".6"/>
    <circle class="cls-1" cx="193.4" cy="169" r=".6"/>
    <circle class="cls-1" cx="205.4" cy="84.8" r=".6"/>
    <circle class="cls-1" cx="145.2" cy="72.8" r=".6"/>
    <circle class="cls-1" cx="157.2" cy="72.8" r=".6"/>
    <circle class="cls-1" cx="169.3" cy="72.8" r=".6"/>
    <circle class="cls-1" cx="181.3" cy="72.8" r=".6"/>
    <circle class="cls-1" cx="193.4" cy="72.8" r=".6"/>
    <circle class="cls-1" cx="205.4" cy="72.8" r=".6"/>
    <circle class="cls-1" cx="181.3" cy="60.8" r=".6"/>
    <circle class="cls-1" cx="193.4" cy="60.8" r=".6"/>
    <circle class="cls-1" cx="205.4" cy="60.8" r=".6"/>
    <circle class="cls-1" cx="205.4" cy="96.8" r=".6"/>
    <circle class="cls-1" cx="205.4" cy="108.8" r=".6"/>
    <circle class="cls-1" cx="205.4" cy="120.9" r=".6"/>
    <circle class="cls-1" cx="205.4" cy="132.9" r=".6"/>
    <circle class="cls-1" cx="205.4" cy="156.9" r=".6"/>
    <circle class="cls-1" cx="205.4" cy="169" r=".6"/>
    <circle class="cls-1" cx="217.5" cy="132.9" r=".6"/>
    <circle class="cls-1" cx="217.5" cy="156.9" r=".6"/>
    <circle class="cls-1" cx="217.5" cy="169" r=".6"/>
    <circle class="cls-1" cx="229.5" cy="132.9" r=".6"/>
    <circle class="cls-1" cx="229.5" cy="144.9" r=".6"/>
    <circle class="cls-1" cx="229.5" cy="156.9" r=".6"/>
    <circle class="cls-1" cx="229.5" cy="169" r=".6"/>
    <circle class="cls-1" cx="241.6" cy="144.9" r=".6"/>
    <circle class="cls-1" cx="241.6" cy="156.9" r=".6"/>
    <circle class="cls-1" cx="253.6" cy="144.9" r=".6"/>
    <circle class="cls-1" cx="253.6" cy="156.9" r=".6"/>
    <circle class="cls-1" cx="265.7" cy="144.9" r=".6"/>
    <circle class="cls-1" cx="265.7" cy="156.9" r=".6"/>
    <circle class="cls-1" cx="265.7" cy="169" r=".6"/>
    <circle class="cls-1" cx="277.7" cy="132.9" r=".6"/>
    <circle class="cls-1" cx="277.7" cy="144.9" r=".6"/>
    <circle class="cls-1" cx="277.7" cy="156.9" r=".6"/>
    <circle class="cls-1" cx="277.7" cy="169" r=".6"/>
    <circle class="cls-1" cx="289.8" cy="132.9" r=".6"/>
    <circle class="cls-1" cx="289.8" cy="144.9" r=".6"/>
    <circle class="cls-1" cx="289.8" cy="156.9" r=".6"/>
    <circle class="cls-1" cx="289.8" cy="169" r=".6"/>
    <circle class="cls-1" cx="301.8" cy="96.8" r=".6"/>
    <circle class="cls-1" cx="301.8" cy="108.8" r=".6"/>
    <circle class="cls-1" cx="301.8" cy="120.9" r=".6"/>
    <circle class="cls-1" cx="301.8" cy="132.9" r=".6"/>
    <circle class="cls-1" cx="301.8" cy="144.9" r=".6"/>
    <circle class="cls-1" cx="301.8" cy="156.9" r=".6"/>
    <circle class="cls-1" cx="301.8" cy="169" r=".6"/>
    <circle class="cls-1" cx="313.9" cy="84.8" r=".6"/>
    <circle class="cls-1" cx="313.9" cy="96.8" r=".6"/>
    <circle class="cls-1" cx="313.9" cy="108.8" r=".6"/>
    <circle class="cls-1" cx="313.9" cy="120.9" r=".6"/>
    <circle class="cls-1" cx="325.9" cy="84.8" r=".6"/>
    <circle class="cls-1" cx="325.9" cy="96.8" r=".6"/>
    <circle class="cls-1" cx="325.9" cy="108.8" r=".6"/>
    <circle class="cls-1" cx="325.9" cy="120.9" r=".6"/>
    <circle class="cls-1" cx="338" cy="84.8" r=".6"/>
    <circle class="cls-1" cx="338" cy="96.8" r=".6"/>
    <circle class="cls-1" cx="338" cy="108.8" r=".6"/>
    <circle class="cls-1" cx="338" cy="120.9" r=".6"/>
    <circle class="cls-1" cx="350" cy="84.8" r=".6"/>
    <circle class="cls-1" cx="350" cy="96.8" r=".6"/>
    <circle class="cls-1" cx="350" cy="108.8" r=".6"/>
    <circle class="cls-1" cx="350" cy="120.9" r=".6"/>
    <circle class="cls-1" cx="362.1" cy="84.8" r=".6"/>
    <circle class="cls-1" cx="362.1" cy="96.8" r=".6"/>
    <circle class="cls-1" cx="362.1" cy="108.8" r=".6"/>
    <circle class="cls-1" cx="362.1" cy="169" r=".6"/>
    <circle class="cls-1" cx="374.1" cy="84.8" r=".6"/>
    <circle class="cls-1" cx="374.1" cy="96.8" r=".6"/>
    <circle class="cls-1" cx="374.1" cy="108.8" r=".6"/>
    <circle class="cls-1" cx="374.1" cy="132.9" r=".6"/>
    <circle class="cls-1" cx="374.1" cy="144.9" r=".6"/>
    <circle class="cls-1" cx="374.1" cy="156.9" r=".6"/>
    <circle class="cls-1" cx="374.1" cy="169" r=".6"/>
    <circle class="cls-1" cx="386.2" cy="84.8" r=".6"/>
    <circle class="cls-1" cx="386.2" cy="96.8" r=".6"/>
    <circle class="cls-1" cx="386.2" cy="108.8" r=".6"/>
    <circle class="cls-1" cx="386.2" cy="132.9" r=".6"/>
    <circle class="cls-1" cx="386.2" cy="144.9" r=".6"/>
    <circle class="cls-1" cx="386.2" cy="156.9" r=".6"/>
    <circle class="cls-1" cx="386.2" cy="169" r=".6"/>
    <circle class="cls-1" cx="398.2" cy="84.8" r=".6"/>
    <circle class="cls-1" cx="398.2" cy="96.8" r=".6"/>
    <circle class="cls-1" cx="398.2" cy="108.8" r=".6"/>
    <circle class="cls-1" cx="398.2" cy="120.9" r=".6"/>
    <circle class="cls-1" cx="398.2" cy="132.9" r=".6"/>
    <circle class="cls-1" cx="398.2" cy="144.9" r=".6"/>
    <circle class="cls-1" cx="398.2" cy="156.9" r=".6"/>
    <circle class="cls-1" cx="398.2" cy="169" r=".6"/>
    <circle class="cls-1" cx="410.3" cy="84.8" r=".6"/>
    <circle class="cls-1" cx="410.3" cy="96.8" r=".6"/>
    <circle class="cls-1" cx="410.3" cy="108.8" r=".6"/>
    <circle class="cls-1" cx="410.3" cy="120.9" r=".6"/>
    <circle class="cls-1" cx="410.3" cy="132.9" r=".6"/>
    <circle class="cls-1" cx="410.3" cy="144.9" r=".6"/>
    <circle class="cls-1" cx="410.3" cy="156.9" r=".6"/>
    <circle class="cls-1" cx="410.3" cy="169" r=".6"/>
    <circle class="cls-1" cx="422.3" cy="84.8" r=".6"/>
    <circle class="cls-1" cx="422.3" cy="96.8" r=".6"/>
    <circle class="cls-1" cx="422.3" cy="108.8" r=".6"/>
    <circle class="cls-1" cx="422.3" cy="120.9" r=".6"/>
    <circle class="cls-1" cx="422.3" cy="132.9" r=".6"/>
    <circle class="cls-1" cx="422.3" cy="144.9" r=".6"/>
    <circle class="cls-1" cx="422.3" cy="156.9" r=".6"/>
    <circle class="cls-1" cx="422.3" cy="169" r=".6"/>
    <circle class="cls-1" cx="434.4" cy="120.9" r=".6"/>
    <circle class="cls-1" cx="434.4" cy="132.9" r=".6"/>
    <circle class="cls-1" cx="434.4" cy="144.9" r=".6"/>
    <circle class="cls-1" cx="434.4" cy="156.9" r=".6"/>
    <circle class="cls-1" cx="434.4" cy="169" r=".6"/>
    <circle class="cls-1" cx="446.4" cy="120.9" r=".6"/>
    <circle class="cls-1" cx="446.4" cy="132.9" r=".6"/>
    <circle class="cls-1" cx="446.4" cy="144.9" r=".6"/>
    <circle class="cls-1" cx="446.4" cy="156.9" r=".6"/>
    <circle class="cls-1" cx="458.4" cy="120.9" r=".6"/>
    <circle class="cls-1" cx="470.5" cy="120.9" r=".6"/>
    <circle class="cls-1" cx="506.6" cy="120.9" r=".6"/>
    <circle class="cls-1" cx="458.4" cy="60.8" r=".6"/>
    <circle class="cls-1" cx="470.5" cy="60.8" r=".6"/>
    <circle class="cls-1" cx="482.5" cy="60.8" r=".6"/>
    <circle class="cls-1" cx="494.6" cy="60.8" r=".6"/>
    <circle class="cls-1" cx="506.6" cy="60.8" r=".6"/>
    <circle class="cls-1" cx="518.7" cy="60.8" r=".6"/>
    <circle class="cls-1" cx="518.7" cy="120.9" r=".6"/>
    <circle class="cls-1" cx="518.7" cy="144.9" r=".6"/>
    <circle class="cls-1" cx="530.7" cy="120.9" r=".6"/>
    <circle class="cls-1" cx="530.7" cy="144.9" r=".6"/>
    <circle class="cls-1" cx="530.7" cy="156.9" r=".6"/>
    <circle class="cls-1" cx="530.7" cy="169" r=".6"/>
    <circle class="cls-1" cx="542.8" cy="120.9" r=".6"/>
    <circle class="cls-1" cx="542.8" cy="144.9" r=".6"/>
    <circle class="cls-1" cx="542.8" cy="156.9" r=".6"/>
    <circle class="cls-1" cx="542.8" cy="169" r=".6"/>
    <circle class="cls-1" cx="85" cy="72.8" r=".6"/>
    <circle class="cls-1" cx="97" cy="72.8" r=".6"/>
    <circle class="cls-1" cx="109" cy="72.8" r=".6"/>
    <circle class="cls-1" cx="121.1" cy="72.8" r=".6"/>
    <circle class="cls-1" cx="133.1" cy="72.8" r=".6"/>
    <circle class="cls-1" cx="133.1" cy="24.7" r=".6"/>
    <circle class="cls-1" cx="133.1" cy="12.7" r=".6"/>
    <circle class="cls-1" cx="133.1" cy=".6" r=".6"/>
    <circle class="cls-1" cx="193.4" cy="36.7" r=".6"/>
    <circle class="cls-1" cx="205.4" cy="36.7" r=".6"/>
    <circle class="cls-1" cx="193.4" cy="48.7" r=".6"/>
    <circle class="cls-1" cx="181.3" cy="48.7" r=".6"/>
    <circle class="cls-1" cx="169.3" cy="48.7" r=".6"/>
    <circle class="cls-1" cx="157.2" cy="48.7" r=".6"/>
    <circle class="cls-1" cx="145.2" cy="48.7" r=".6"/>
    <circle class="cls-1" cx="205.4" cy="48.7" r=".6"/>
    <circle class="cls-1" cx="205.4" cy="24.7" r=".6"/>
    <circle class="cls-1" cx="205.4" cy="12.7" r=".6"/>
    <circle class="cls-1" cx="205.4" cy=".6" r=".6"/>
    <circle class="cls-1" cx="217.5" cy="36.7" r=".6"/>
    <circle class="cls-1" cx="217.5" cy="24.7" r=".6"/>
    <circle class="cls-1" cx="217.5" cy="12.7" r=".6"/>
    <circle class="cls-1" cx="217.5" cy=".6" r=".6"/>
    <circle class="cls-1" cx="229.5" cy="36.7" r=".6"/>
    <circle class="cls-1" cx="229.5" cy="24.7" r=".6"/>
    <circle class="cls-1" cx="229.5" cy="12.7" r=".6"/>
    <circle class="cls-1" cx="229.5" cy=".6" r=".6"/>
    <circle class="cls-1" cx="241.6" cy="36.7" r=".6"/>
    <circle class="cls-1" cx="241.6" cy="24.7" r=".6"/>
    <circle class="cls-1" cx="241.6" cy="12.7" r=".6"/>
    <circle class="cls-1" cx="241.6" cy=".6" r=".6"/>
    <circle class="cls-1" cx="253.6" cy="36.7" r=".6"/>
    <circle class="cls-1" cx="253.6" cy="12.7" r=".6"/>
    <circle class="cls-1" cx="265.7" cy="36.7" r=".6"/>
    <circle class="cls-1" cx="265.7" cy="12.7" r=".6"/>
    <circle class="cls-1" cx="277.7" cy="36.7" r=".6"/>
    <circle class="cls-1" cx="277.7" cy="12.7" r=".6"/>
    <circle class="cls-1" cx="289.8" cy="36.7" r=".6"/>
    <circle class="cls-1" cx="289.8" cy="24.7" r=".6"/>
    <circle class="cls-1" cx="289.8" cy="12.7" r=".6"/>
    <circle class="cls-1" cx="301.8" cy="36.7" r=".6"/>
    <circle class="cls-1" cx="301.8" cy="24.7" r=".6"/>
    <circle class="cls-1" cx="301.8" cy="12.7" r=".6"/>
    <circle class="cls-1" cx="313.9" cy="36.7" r=".6"/>
    <circle class="cls-1" cx="313.9" cy="24.7" r=".6"/>
    <circle class="cls-1" cx="313.9" cy="12.7" r=".6"/>
    <circle class="cls-1" cx="325.9" cy="36.7" r=".6"/>
    <circle class="cls-1" cx="325.9" cy="24.7" r=".6"/>
    <circle class="cls-1" cx="325.9" cy="12.7" r=".6"/>
    <circle class="cls-1" cx="338" cy="36.7" r=".6"/>
    <circle class="cls-1" cx="301.8" cy="48.7" r=".6"/>
    <circle class="cls-1" cx="313.9" cy="48.7" r=".6"/>
    <circle class="cls-1" cx="325.9" cy="48.7" r=".6"/>
    <circle class="cls-1" cx="338" cy="48.7" r=".6"/>
    <circle class="cls-1" cx="301.8" cy="60.8" r=".6"/>
    <circle class="cls-1" cx="313.9" cy="60.8" r=".6"/>
    <circle class="cls-1" cx="325.9" cy="60.8" r=".6"/>
    <circle class="cls-1" cx="338" cy="60.8" r=".6"/>
    <circle class="cls-1" cx="350" cy="48.7" r=".6"/>
    <circle class="cls-1" cx="350" cy="60.8" r=".6"/>
    <circle class="cls-1" cx="338" cy="12.7" r=".6"/>
    <circle class="cls-1" cx="350" cy="12.7" r=".6"/>
    <circle class="cls-1" cx="350" cy=".6" r=".6"/>
    <circle class="cls-1" cx="362.1" cy="36.7" r=".6"/>
    <circle class="cls-1" cx="362.1" cy="12.7" r=".6"/>
    <circle class="cls-1" cx="362.1" cy=".6" r=".6"/>
    <circle class="cls-1" cx="374.1" cy="36.7" r=".6"/>
    <circle class="cls-1" cx="374.1" cy="12.7" r=".6"/>
    <circle class="cls-1" cx="374.1" cy=".6" r=".6"/>
    <circle class="cls-1" cx="386.2" cy="36.7" r=".6"/>
    <circle class="cls-1" cx="386.2" cy="24.7" r=".6"/>
    <circle class="cls-1" cx="386.2" cy="12.7" r=".6"/>
    <circle class="cls-1" cx="386.2" cy=".6" r=".6"/>
    <circle class="cls-1" cx="398.2" cy="36.7" r=".6"/>
    <circle class="cls-1" cx="398.2" cy="24.7" r=".6"/>
    <circle class="cls-1" cx="398.2" cy="12.7" r=".6"/>
    <circle class="cls-1" cx="398.2" cy=".6" r=".6"/>
    <circle class="cls-1" cx="410.3" cy="36.7" r=".6"/>
    <circle class="cls-1" cx="410.3" cy="24.7" r=".6"/>
    <circle class="cls-1" cx="410.3" cy="12.7" r=".6"/>
    <circle class="cls-1" cx="410.3" cy=".6" r=".6"/>
    <circle class="cls-1" cx="422.3" cy="36.7" r=".6"/>
    <circle class="cls-1" cx="422.3" cy="24.7" r=".6"/>
    <circle class="cls-1" cx="422.3" cy="12.7" r=".6"/>
    <circle class="cls-1" cx="422.3" cy=".6" r=".6"/>
    <circle class="cls-1" cx="434.4" cy="36.7" r=".6"/>
    <circle class="cls-1" cx="434.4" cy="24.7" r=".6"/>
    <circle class="cls-1" cx="434.4" cy="12.7" r=".6"/>
    <circle class="cls-1" cx="434.4" cy=".6" r=".6"/>
    <circle class="cls-1" cx="446.4" cy="36.7" r=".6"/>
    <circle class="cls-1" cx="362.1" cy="48.7" r=".6"/>
    <circle class="cls-1" cx="374.1" cy="48.7" r=".6"/>
    <circle class="cls-1" cx="386.2" cy="48.7" r=".6"/>
    <circle class="cls-1" cx="398.2" cy="48.7" r=".6"/>
    <circle class="cls-1" cx="410.3" cy="48.7" r=".6"/>
    <circle class="cls-1" cx="422.3" cy="48.7" r=".6"/>
    <circle class="cls-1" cx="434.4" cy="48.7" r=".6"/>
    <circle class="cls-1" cx="446.4" cy="48.7" r=".6"/>
    <circle class="cls-1" cx="362.1" cy="60.8" r=".6"/>
    <circle class="cls-1" cx="374.1" cy="60.8" r=".6"/>
    <circle class="cls-1" cx="386.2" cy="60.8" r=".6"/>
    <circle class="cls-1" cx="398.2" cy="60.8" r=".6"/>
    <circle class="cls-1" cx="410.3" cy="60.8" r=".6"/>
    <circle class="cls-1" cx="422.3" cy="60.8" r=".6"/>
    <circle class="cls-1" cx="434.4" cy="60.8" r=".6"/>
    <circle class="cls-1" cx="362.1" cy="72.8" r=".6"/>
    <circle class="cls-1" cx="374.1" cy="72.8" r=".6"/>
    <circle class="cls-1" cx="386.2" cy="72.8" r=".6"/>
    <circle class="cls-1" cx="398.2" cy="72.8" r=".6"/>
    <circle class="cls-1" cx="410.3" cy="72.8" r=".6"/>
    <circle class="cls-1" cx="422.3" cy="72.8" r=".6"/>
    <circle class="cls-1" cx="446.4" cy="60.8" r=".6"/>
    <circle class="cls-1" cx="446.4" cy="24.7" r=".6"/>
    <circle class="cls-1" cx="446.4" cy="12.7" r=".6"/>
    <circle class="cls-1" cx="446.4" cy=".6" r=".6"/>
  </g>
</svg>